<svg width="32" height="32" viewBox="0 0 32 32" fill="none" xmlns="http://www.w3.org/2000/svg">
<g clip-path="url(#clip0_634_1327)">
<path fill-rule="evenodd" clip-rule="evenodd" d="M5.07143 4C4.78727 4 4.51475 4.11288 4.31381 4.31381C4.11288 4.51475 4 4.78727 4 5.07143C4 5.35559 4.11288 5.62811 4.31381 5.82904C4.51475 6.02997 4.78727 6.14286 5.07143 6.14286H8.188L8.53943 9.46857L9.64343 19.9343C9.7159 20.6196 10.0396 21.2537 10.5522 21.7144C11.0647 22.175 11.7297 22.4294 12.4189 22.4286H23.0611C24.34 22.4286 25.456 21.5611 25.768 20.32L27.916 11.7486C28.0187 11.3374 28.0263 10.9083 27.9382 10.4938C27.8501 10.0793 27.6687 9.69035 27.4077 9.35649C27.1468 9.02263 26.8131 8.75266 26.4321 8.56712C26.0512 8.38158 25.6329 8.28533 25.2091 8.28571H10.5691L10.2177 4.96C10.1902 4.69675 10.0662 4.453 9.86962 4.27574C9.67305 4.09848 9.41783 4.00026 9.15314 4H5.07143ZM11.7743 19.7097L10.7954 10.4286H25.2091C25.6326 10.4286 25.9377 10.8229 25.8366 11.2274L23.6886 19.7989C23.6523 19.9378 23.5711 20.0609 23.4576 20.149C23.3442 20.237 23.2048 20.2851 23.0611 20.2857H12.4189C12.2591 20.2866 12.1048 20.2282 11.9857 20.1218C11.8666 20.0154 11.7913 19.8685 11.7743 19.7097ZM17.8943 11.5C18.2353 11.5 18.5623 11.6355 18.8034 11.8766C19.0445 12.1177 19.18 12.4447 19.18 12.7857V14.0714H20.4657C20.8067 14.0714 21.1337 14.2069 21.3749 14.448C21.616 14.6891 21.7514 15.0162 21.7514 15.3571C21.7514 15.6981 21.616 16.0252 21.3749 16.2663C21.1337 16.5074 20.8067 16.6429 20.4657 16.6429H19.18V17.9286C19.18 18.2696 19.0445 18.5966 18.8034 18.8377C18.5623 19.0788 18.2353 19.2143 17.8943 19.2143C17.5533 19.2143 17.2263 19.0788 16.9851 18.8377C16.744 18.5966 16.6086 18.2696 16.6086 17.9286V16.6429H15.3229C14.9819 16.6429 14.6548 16.5074 14.4137 16.2663C14.1726 16.0252 14.0371 15.6981 14.0371 15.3571C14.0371 15.0162 14.1726 14.6891 14.4137 14.448C14.6548 14.2069 14.9819 14.0714 15.3229 14.0714H16.6086V12.7857C16.6086 12.4447 16.744 12.1177 16.9851 11.8766C17.2263 11.6355 17.5533 11.5 17.8943 11.5ZM24.6931 26.0714C24.6931 25.5599 24.49 25.0694 24.1283 24.7077C23.7666 24.346 23.2761 24.1429 22.7646 24.1429C22.2531 24.1429 21.7625 24.346 21.4009 24.7077C21.0392 25.0694 20.836 25.5599 20.836 26.0714C20.836 26.5829 21.0392 27.0735 21.4009 27.4351C21.7625 27.7968 22.2531 28 22.7646 28C23.2761 28 23.7666 27.7968 24.1283 27.4351C24.49 27.0735 24.6931 26.5829 24.6931 26.0714ZM11.6217 24.1429C11.875 24.1429 12.1258 24.1927 12.3597 24.2897C12.5937 24.3866 12.8063 24.5286 12.9854 24.7077C13.1645 24.8868 13.3066 25.0994 13.4035 25.3334C13.5004 25.5674 13.5503 25.8182 13.5503 26.0714C13.5503 26.3247 13.5004 26.5755 13.4035 26.8095C13.3066 27.0434 13.1645 27.2561 12.9854 27.4351C12.8063 27.6142 12.5937 27.7563 12.3597 27.8532C12.1258 27.9501 11.875 28 11.6217 28C11.1102 28 10.6197 27.7968 10.258 27.4351C9.89633 27.0735 9.69314 26.5829 9.69314 26.0714C9.69314 25.5599 9.89633 25.0694 10.258 24.7077C10.6197 24.346 11.1102 24.1429 11.6217 24.1429Z" fill="white"/>
</g>
<defs>
<clipPath id="clip0_634_1327">
<rect width="24" height="24" fill="white" transform="translate(4 4)"/>
</clipPath>
</defs>
</svg>
