<svg width="138" height="100" viewBox="0 0 138 100" fill="none" xmlns="http://www.w3.org/2000/svg">
<path d="M49.2062 20.8936C49.1096 22.5347 50.3651 23.9432 52.0106 24.0395C53.6562 24.1359 55.0683 22.8837 55.1649 21.2426C55.2616 19.6013 54.0058 18.193 52.3604 18.0967C50.715 18.0002 49.3027 19.2527 49.2062 20.8937V20.8936ZM35.1156 27.0909C35.0215 28.6922 36.2466 30.0668 37.8525 30.1607C39.4582 30.2549 40.836 29.0325 40.9305 27.4314C41.0248 25.8297 39.7995 24.4554 38.1936 24.3612C36.588 24.2673 35.2097 25.4894 35.1156 27.0909ZM25.2804 35.3016C25.198 36.7018 26.2692 37.9035 27.6731 37.9858C29.077 38.068 30.2819 36.9993 30.3643 35.5991C30.4466 34.1992 29.3754 32.9973 27.9717 32.9153C26.5677 32.833 25.3629 33.9014 25.2804 35.3016ZM68.1393 30.5087C67.6446 31.8724 66.7759 34.3434 66.228 35.8641C66.1037 36.209 65.9043 36.5246 65.6268 36.7651C65.6246 36.7669 65.6222 36.7689 65.6202 36.7708C65.4712 36.899 65.201 37.1256 64.7769 37.2357C64.6309 37.2734 64.3673 37.3233 64.0447 37.2798C63.8674 37.2561 63.5841 37.2181 63.3123 37.0142C63.133 36.8798 63.0441 36.7371 62.9131 36.5275C62.6726 36.1425 62.599 35.8034 62.58 35.7085C62.5799 35.7066 62.5794 35.7048 62.579 35.7028C62.5293 35.4487 62.5576 35.1855 62.6453 34.9418C63.0745 33.7515 63.8174 31.619 64.1833 30.619C65.5075 30.5601 66.6033 30.5087 68.1393 30.5087ZM59.2146 31.5272C60.1887 33.0546 61.4306 34.8872 61.8535 35.5315C61.9224 35.6365 62.1322 35.9455 62.2084 36.3945C62.2478 36.625 62.3189 37.0442 62.0975 37.4569C61.9602 37.7128 61.7665 37.8619 61.6316 37.9657C61.3665 38.1697 61.1125 38.2601 60.988 38.2977C60.7983 38.3552 60.4399 38.4637 60.0117 38.3421C59.6439 38.2373 59.4166 38.0144 59.3016 37.8995C59.0992 37.6964 59.0883 37.5926 58.7912 37.1027C58.6668 36.8975 58.516 36.6782 58.2144 36.2396C57.8301 35.6811 57.8062 35.68 57.5708 35.332C57.1955 34.7772 57.1514 34.6241 56.8164 34.0928C56.6295 33.7967 56.0791 32.8323 55.6853 32.3366C56.9427 32.1079 57.9573 31.7557 59.2148 31.527L59.2146 31.5272ZM55.3771 32.4195C55.1478 34.33 54.8267 36.852 54.5974 38.7625C54.5311 39.1117 54.3957 39.3203 54.3079 39.4289C54.2293 39.5263 54.1247 39.6644 53.9117 39.8079C53.6258 40.001 53.4364 40.0478 53.2661 40.0903C52.9395 40.1723 52.6539 40.0825 52.4674 40.0238C52.2086 39.9427 52.0259 39.824 51.9348 39.7583C51.7917 39.6555 51.4941 39.4412 51.3577 39.0501C51.3116 38.9171 51.2962 38.7998 51.2911 38.7182C51.454 37.0804 51.587 35.1884 51.7496 33.5506C53.0619 33.1072 54.2084 32.6775 55.3771 32.4193V32.4195ZM46.6178 35.6917L50.3254 39.3388C50.5677 39.5773 50.7635 39.8581 50.9027 40.1679C50.9542 40.3359 51.0592 40.7635 50.8694 41.2043C50.7623 41.4532 50.5985 41.6206 50.5144 41.7061C50.2934 41.9308 50.072 42.0463 49.9819 42.0895C49.8147 42.17 49.5962 42.275 49.3013 42.2665C49.0075 42.2582 48.7979 42.1417 48.6504 42.0601C48.4368 41.9415 47.8248 41.3212 47.6074 41.1305C47.1231 40.7053 47.0026 40.5518 46.5535 40.1347C46.1214 39.7334 46.1001 39.7522 45.6548 39.349C45.2864 39.0154 45.1822 38.8833 44.6449 38.364C44.356 38.0848 44.1169 37.8601 43.9607 37.715C43.898 37.6745 43.8237 37.6762 43.7795 37.715C43.7482 37.7422 43.7407 37.7802 43.7389 37.7959C43.7501 37.9999 43.7626 38.2055 43.776 38.4121C43.8086 38.9147 43.8471 39.409 43.8907 39.8949C44.0423 41.1442 44.194 42.3933 44.3456 43.6425C44.3712 43.8975 44.3421 44.1039 44.3122 44.2398C44.269 44.4377 44.2155 44.6829 44.0127 44.8928C43.884 45.0262 43.7441 45.0943 43.6356 45.1474C43.581 45.174 43.4225 45.2473 43.1919 45.291C42.9493 45.3369 42.6065 45.402 42.2819 45.2358C42.1454 45.1658 42.0505 45.0911 41.8828 44.9164C41.797 44.8269 41.6525 44.6847 41.5298 44.463C41.4444 44.3087 41.4138 44.1557 41.3832 44.0516C41.2316 42.7974 41.08 41.5434 40.9283 40.2893C40.873 39.8814 40.8174 39.4738 40.7621 39.0659C42.6142 37.813 44.5697 36.6849 46.6177 35.6914L46.6178 35.6917ZM36.3323 42.4752C37.9191 43.356 39.506 44.2368 41.0928 45.1175C41.3225 45.2727 41.4862 45.4349 41.5956 45.5601C41.7515 45.7383 41.8819 45.8874 41.9507 46.1208C42.0244 46.3711 41.9863 46.5781 41.9507 46.77C41.9097 46.9917 41.8433 47.3512 41.5366 47.6553C41.4761 47.715 41.2623 47.916 40.9152 48.0094C40.8132 48.0369 40.3346 48.1536 39.8796 47.8913C39.7581 47.8213 38.0049 46.704 37.4832 46.4456C37.1179 46.2646 36.7715 46.1092 36.2405 45.7964C35.6762 45.4638 34.983 45.1175 34.983 45.1175C34.9179 45.1664 34.979 45.3517 35.0163 45.4606C35.1356 45.8095 35.2875 46.1824 35.6597 47.1428C36.3439 48.9066 36.6858 49.7887 36.7915 49.9865C36.8342 50.0661 36.9289 50.2382 36.9691 50.4845C37.018 50.783 36.9622 51.0415 36.9248 51.2148C36.8871 51.3898 36.862 51.5057 36.7805 51.6465C36.6673 51.842 36.5195 51.9254 36.4229 51.9967C36.3116 52.079 36.1148 52.166 35.7683 52.2062C35.7011 52.214 35.3851 52.2513 35.0341 52.0907C34.9665 52.0597 34.7694 51.9918 34.5028 51.6185C34.1756 51.1602 34.0096 50.7051 33.9846 50.6172C33.8654 50.1983 33.513 49.0966 32.3688 46.4029C33.6047 45.0126 34.9282 43.7017 36.3325 42.4752H36.3323ZM11.9883 57.6516H14.9172V63.5839C14.9172 63.8237 14.9596 64.0481 15.045 64.2581C15.1299 64.4677 15.2501 64.6502 15.4055 64.8047C15.5607 64.9599 15.7408 65.0821 15.9463 65.1717C16.1513 65.2616 16.3692 65.3067 16.5997 65.3067C16.8299 65.3067 17.0451 65.2616 17.2454 65.1717C17.4457 65.0821 17.6209 64.9599 17.7711 64.8047C17.9214 64.6502 18.0391 64.4703 18.1243 64.2657C18.2091 64.0609 18.2518 63.8439 18.2518 63.614V58.2805C18.2518 58.0911 18.1917 57.8813 18.0715 57.6516H21.0004V63.8535C21.0004 64.4729 20.8879 65.0573 20.6625 65.6063C20.4372 66.1557 20.124 66.6352 19.7236 67.0445C19.3232 67.4541 18.855 67.7762 18.3192 68.0108C17.7833 68.2453 17.2102 68.3627 16.5994 68.3627C16.1886 68.3627 15.7933 68.3078 15.4125 68.1979C15.0321 68.0882 14.6766 67.9359 14.3462 67.7412C14.0156 67.5463 13.7177 67.312 13.4526 67.0371C13.187 66.7626 12.9591 66.4578 12.769 66.1233C12.5786 65.7888 12.4309 65.4292 12.3257 65.0445C12.2206 64.6602 12.1681 64.2633 12.1681 63.8535V58.2805C12.1681 58.1906 12.1554 58.1007 12.1304 58.0111C12.1053 57.9213 12.0577 57.8014 11.9878 57.6516H11.9883ZM25.5217 57.6516L28.9915 63.7187V58.2957C28.9915 58.106 28.9315 57.8909 28.8113 57.6514H31.7552V68.213H28.9013L25.4165 62.1455V68.213H22.6678V58.2956C22.6678 58.1059 22.6025 57.8907 22.4725 57.6513H25.5216L25.5217 57.6516ZM36.0812 57.6516V68.2131H33.3324V58.2957C33.3324 58.106 33.2674 57.8909 33.1372 57.6514H36.0812V57.6516ZM45.6194 57.6516V60.258H43.081V68.2131H40.332V60.258H37.8087V58.2957C37.8087 58.106 37.7434 57.8909 37.6133 57.6514H45.6192L45.6194 57.6516ZM54.046 57.6516V60.258H49.9604V61.7411H53.4001V64.3329H49.9604V65.6213H54.2713V68.2131H47.2114V58.2957C47.2114 58.106 47.1463 57.8909 47.0163 57.6514H54.046V57.6516ZM59.123 65.3966C59.4633 65.3966 59.7786 65.3318 60.0691 65.202C60.3595 65.0721 60.6122 64.8947 60.8276 64.6699C61.043 64.4454 61.2156 64.1832 61.3459 63.8835C61.4759 63.5839 61.5412 63.2597 61.5412 62.9098C61.5412 62.5801 61.4761 62.2657 61.3459 61.9658C61.2155 61.6661 61.0404 61.4041 60.8202 61.1794C60.6 60.9547 60.3444 60.78 60.0541 60.6551C59.7635 60.5303 59.4532 60.468 59.1228 60.468H58.642V65.3966H59.1228H59.123ZM59.123 57.6516C59.5936 57.6516 60.0491 57.7139 60.4898 57.8389C60.9302 57.9638 61.3409 58.1434 61.7215 58.3779C62.102 58.6127 62.4499 58.89 62.7654 59.2094C63.0809 59.5292 63.3512 59.8836 63.5765 60.2731C63.8018 60.6627 63.977 61.0799 64.1022 61.5242C64.2274 61.9684 64.29 62.4303 64.29 62.9098C64.29 63.3991 64.2274 63.8684 64.1022 64.3179C63.977 64.7673 63.8041 65.1892 63.584 65.5839C63.3637 65.9784 63.0958 66.3379 62.7805 66.6625C62.465 66.987 62.1145 67.2642 61.7288 67.4938C61.3435 67.7237 60.9328 67.9008 60.4973 68.0257C60.0618 68.1503 59.6035 68.213 59.123 68.213H55.8935V58.2956C55.8935 58.1059 55.8282 57.8907 55.6984 57.6513H59.123V57.6516ZM86.9296 20.8934C87.0262 22.5345 85.7707 23.9431 84.1251 24.0394C82.4796 24.1357 81.0674 22.8835 80.9709 21.2425C80.8741 19.6011 82.1299 18.1928 83.7753 18.0965C85.4207 18.0001 86.8331 19.2525 86.9296 20.8936V20.8934ZM101.02 27.0907C101.114 28.692 99.8892 30.0667 98.2833 30.1606C96.6777 30.2547 95.2997 29.0324 95.2053 27.4312C95.1112 25.8296 96.3363 24.4552 97.9422 24.361C99.5479 24.2672 100.926 25.4892 101.02 27.0907ZM111.558 35.1448C111.64 36.5448 110.569 37.7466 109.165 37.8288C107.761 37.9109 106.556 36.8424 106.474 35.442C106.391 34.042 107.462 32.8405 108.866 32.7583C110.27 32.676 111.475 33.7445 111.558 35.1448ZM77.9783 31.527C77.0043 33.0544 75.7624 34.887 75.3396 35.5314C75.2707 35.6363 75.0609 35.9454 74.9847 36.3943C74.9453 36.6248 74.8742 37.044 75.0956 37.4568C75.2329 37.7127 75.4266 37.8618 75.5614 37.9656C75.8266 38.1696 76.0806 38.26 76.2051 38.2975C76.3948 38.3551 76.7532 38.4635 77.1814 38.342C77.5492 38.2371 77.7766 38.0142 77.8915 37.8994C78.0939 37.6963 78.1048 37.5925 78.4019 37.1026C78.5262 36.8973 78.6771 36.6781 78.9787 36.2395C79.363 35.6809 79.3869 35.6799 79.6223 35.3319C79.9976 34.777 80.0417 34.624 80.3767 34.0927C80.5636 33.7966 81.114 32.8321 81.5078 32.3364C80.2504 32.1077 79.2358 31.7555 77.9783 31.5269V31.527ZM81.8158 32.4193C82.0451 34.3299 82.3662 36.8518 82.5955 38.7624C82.6619 39.1115 82.7972 39.3201 82.8851 39.4288C82.9636 39.5261 83.0683 39.6643 83.2812 39.8078C83.5671 40.0008 83.7566 40.0477 83.9268 40.0901C84.2534 40.1721 84.539 40.0824 84.7256 40.0237C84.9843 39.9426 85.167 39.8239 85.2581 39.7582C85.4014 39.6553 85.6988 39.4411 85.8352 39.0499C85.8813 38.9169 85.8967 38.7996 85.9019 38.7181C85.739 37.0802 85.6059 35.1883 85.4433 33.5504C84.1311 33.107 82.9845 32.6774 81.8158 32.4192V32.4193ZM72.9364 30.7882C71.3685 30.6526 70.2362 30.5552 68.8825 30.5257C69.4266 31.8514 70.4071 34.4004 70.8795 35.8633C70.9261 36.0076 70.9718 36.1515 71.017 36.2951C71.1259 36.642 71.3282 36.9564 71.6168 37.1782C71.6191 37.1802 71.6217 37.182 71.6241 37.1838C71.9146 37.4055 72.114 37.4571 72.2996 37.523C72.8897 37.7323 73.4639 37.4431 73.5644 37.3903C73.9034 37.2118 74.0922 36.9632 74.1856 36.8371C74.2262 36.7826 74.4066 36.5337 74.5186 36.1511C74.6188 35.8081 74.624 35.4951 74.6008 35.2537C74.5865 35.1058 74.55 34.9623 74.4988 34.8228C74.0896 33.71 73.301 31.8089 72.9365 30.7883L72.9364 30.7882ZM90.5751 35.6916L86.8675 39.3387C86.6253 39.5771 86.4294 39.858 86.2903 40.1677C86.2387 40.3357 86.1338 40.7634 86.3235 41.2042C86.4306 41.4531 86.5945 41.6204 86.6785 41.7059C86.8996 41.9307 87.1209 42.0461 87.2111 42.0894C87.3783 42.1698 87.5967 42.2748 87.8916 42.2663C88.1854 42.2581 88.3952 42.1415 88.5425 42.06C88.7561 41.9413 89.3683 41.321 89.5855 41.1304C90.0697 40.7051 90.1904 40.5516 90.6395 40.1346C91.0715 39.7332 91.0928 39.7521 91.5381 39.3489C91.9065 39.0152 92.0107 38.8832 92.548 38.3639C92.837 38.0847 93.076 37.86 93.2322 37.7148C93.2949 37.6744 93.3692 37.676 93.4134 37.7148C93.4447 37.7421 93.4522 37.7801 93.454 37.7958C93.4429 37.9998 93.4305 38.2053 93.4169 38.412C93.3843 38.9145 93.3459 39.4088 93.3022 39.8948C93.1506 41.1441 92.999 42.3932 92.8473 43.6423C92.8217 43.8973 92.8508 44.1038 92.8807 44.2396C92.9239 44.4376 92.9775 44.6827 93.1802 44.8927C93.3089 45.0261 93.4488 45.0941 93.5573 45.1472C93.6119 45.1738 93.7704 45.2472 94.0011 45.2908C94.2436 45.3368 94.5864 45.4019 94.911 45.2356C95.0476 45.1656 95.1424 45.0909 95.3101 44.9162C95.396 44.8268 95.5405 44.6845 95.6631 44.4628C95.7485 44.3086 95.7792 44.1555 95.8097 44.0514C95.9613 42.7973 96.113 41.5433 96.2646 40.2892C96.32 39.8812 96.3755 39.4736 96.4309 39.0657C94.5788 37.8128 92.6232 36.6848 90.5753 35.6913L90.5751 35.6916ZM100.861 42.475C99.2738 43.3558 97.687 44.2366 96.1002 45.1174C95.8704 45.2726 95.7067 45.4348 95.5974 45.56C95.4414 45.7381 95.311 45.8872 95.2422 46.1206C95.1685 46.3709 95.2067 46.578 95.2422 46.7699C95.2832 46.9915 95.3496 47.3511 95.6564 47.6552C95.7166 47.7148 95.9307 47.9158 96.2776 48.0092C96.3796 48.0368 96.8582 48.1535 97.3132 47.8912C97.4347 47.8212 99.1879 46.7038 99.7096 46.4455C100.075 46.2644 100.421 46.1091 100.952 45.7963C101.517 45.4637 102.21 45.1174 102.21 45.1174C102.275 45.1662 102.214 45.3515 102.177 45.4605C102.057 45.8093 101.905 46.1823 101.533 47.1426C100.849 48.9065 100.507 49.7886 100.401 49.9864C100.359 50.066 100.264 50.238 100.224 50.4844C100.175 50.7829 100.231 51.0414 100.268 51.2147C100.306 51.3896 100.331 51.5056 100.412 51.6463C100.525 51.8418 100.673 51.9252 100.77 51.9966C100.881 52.0789 101.078 52.1659 101.424 52.2061C101.492 52.2138 101.808 52.2511 102.159 52.0906C102.226 52.0595 102.423 51.9917 102.69 51.6183C103.017 51.1601 103.183 50.705 103.208 50.617C103.327 50.1982 103.68 49.0965 104.824 46.4027C103.588 45.0124 102.265 43.7015 100.86 42.475H100.861ZM71.9805 57.6514V62.505H75.1348V58.2804C75.1348 58.1005 75.0747 57.8909 74.9546 57.6514H77.9135V68.1978H75.1348V65.1119H71.9805V68.1978H69.2315V58.2804C69.2315 58.1905 69.219 58.1005 69.194 58.0109C69.1688 57.9212 69.1212 57.8013 69.0514 57.6514H71.9803H71.9805ZM82.1344 64.168H83.7564L82.9453 59.404L82.1342 64.168H82.1344ZM80.6021 58.3403C80.6121 58.3006 80.6195 58.2606 80.6247 58.2206C80.6298 58.1809 80.6324 58.1407 80.6324 58.1005C80.6324 57.9712 80.5973 57.821 80.5271 57.6514H85.1686L87.2715 68.2127H84.4626L84.2074 66.7595H81.6837L81.4433 68.2127H78.6344L80.6021 58.3402V58.3403ZM91.7924 57.6514L95.2622 63.7186V58.2956C95.2622 58.1059 95.2021 57.8907 95.082 57.6513H98.0258V68.2128H95.172L91.6872 62.1454V68.2128H88.9385V58.2954C88.9385 58.1057 88.8732 57.8906 88.7433 57.6511H91.7923L91.7924 57.6514ZM98.762 62.8347C98.762 62.3454 98.8244 61.8736 98.9498 61.4192C99.0749 60.9649 99.2503 60.5402 99.4752 60.1456C99.7008 59.7513 99.9711 59.3918 100.287 59.0671C100.602 58.7426 100.955 58.463 101.346 58.2282C101.736 57.9936 102.154 57.8137 102.6 57.6888C103.045 57.5642 103.508 57.5015 103.989 57.5015C104.58 57.5015 105.151 57.5968 105.701 57.7864C106.252 57.9761 106.778 58.2656 107.279 58.6551L105.867 61.4415C105.807 61.3618 105.774 61.3169 105.769 61.3067C105.764 61.2968 105.756 61.2868 105.747 61.2768C105.526 60.9973 105.258 60.7876 104.943 60.6475C104.627 60.508 104.304 60.4378 103.974 60.4378C103.644 60.4378 103.335 60.5005 103.05 60.6251C102.765 60.75 102.517 60.9198 102.307 61.1347C102.096 61.3493 101.931 61.604 101.811 61.8984C101.691 62.1935 101.631 62.5052 101.631 62.8349C101.631 63.1743 101.691 63.4891 101.811 63.7787C101.931 64.0684 102.096 64.3206 102.307 64.5351C102.517 64.75 102.765 64.9198 103.05 65.0444C103.335 65.1696 103.644 65.2317 103.974 65.2317C104.094 65.2317 104.217 65.2218 104.342 65.2017C104.467 65.1818 104.59 65.1519 104.71 65.1119L104.86 65.0518V63.9882C104.86 63.7986 104.8 63.5889 104.68 63.359H107.624V68.1978H103.944C103.593 68.1978 103.25 68.1605 102.915 68.0856C102.58 68.0108 102.247 67.8984 101.916 67.7486C101.275 67.4588 100.727 67.0795 100.271 66.6101C99.8158 66.1404 99.4529 65.5764 99.1824 64.917C98.9019 64.238 98.7618 63.5441 98.7618 62.8347H98.762ZM116.126 57.6514V60.2578H112.04V61.741H115.48V64.3328H112.04V65.6212H116.351V68.213H109.291V58.2956C109.291 58.1059 109.226 57.8907 109.096 57.6513H116.126L116.126 57.6514ZM120.737 62.61H121.879C122.039 62.61 122.186 62.5802 122.322 62.5201C122.457 62.4602 122.579 62.3779 122.69 62.273C122.8 62.168 122.882 62.0434 122.938 61.8986C122.993 61.7539 123.02 61.6013 123.02 61.4415C123.02 61.2819 122.993 61.1295 122.938 60.9846C122.882 60.84 122.802 60.7128 122.698 60.6026C122.592 60.4929 122.47 60.4079 122.33 60.3478C122.189 60.288 122.039 60.2578 121.879 60.2578H120.737V62.6099L120.737 62.61ZM117.778 57.6513H121.879C122.39 57.6513 122.87 57.7512 123.321 57.951C123.772 58.1511 124.162 58.4205 124.493 58.7599C124.823 59.0997 125.083 59.4994 125.274 59.9584C125.464 60.4182 125.559 60.9124 125.559 61.4415C125.559 62.2707 125.319 63.0146 124.838 63.6737L124.718 63.8385L124.853 63.9883C125.214 64.3679 125.489 64.8047 125.679 65.2992C125.869 65.7934 125.965 66.3102 125.965 66.8496V68.213H123.411V66.8496C123.411 66.6299 123.371 66.4177 123.291 66.2129C123.211 66.0084 123.098 65.8334 122.953 65.6886C122.808 65.5439 122.638 65.4266 122.442 65.3367C122.247 65.2467 122.039 65.2019 121.819 65.2019H120.737V68.213H117.974V58.2956C117.974 58.106 117.908 57.891 117.778 57.6513H117.778Z" fill="white"/>
<path d="M35.5535 84.7544L35.3426 84.3364L35.2394 84.0807L35.1339 83.7986L35.0393 83.4894L34.9711 83.1778L34.887 82.6951L34.8451 82.2351L35.3984 82.1849L35.4321 82.5528L35.4657 82.9208L35.633 83.5548L35.8275 84.0406L36.0936 84.5599C36.4209 84.2829 36.7303 83.9544 37.0221 83.5743C37.1466 83.3954 37.305 83.1468 37.4963 82.8291C37.6413 82.5863 37.7367 82.4229 37.7821 82.3392L38.1002 81.6212L38.3656 80.9082C38.425 80.6908 38.4637 80.537 38.4822 80.4469C38.5003 80.3573 38.5234 80.2227 38.5511 80.0433C38.6088 79.7114 38.6262 79.4184 38.6032 79.1642C38.5742 78.8488 38.4796 78.5393 38.3193 78.2361C38.1589 77.9324 37.919 77.6762 37.5994 77.4668C37.4407 77.3752 37.2424 77.2871 37.0049 77.2031L36.6955 77.1516L36.3511 77.1564L36.1407 77.1758L35.8431 77.2556C35.6965 77.2954 35.539 77.3628 35.3711 77.4575C35.1256 77.5771 34.8889 77.7221 34.6616 77.8928C34.4341 78.064 34.2071 78.2656 33.981 78.4982C33.5286 78.9633 33.1493 79.4571 32.8435 79.9794C32.7144 80.2123 32.5597 80.553 32.3802 81.002C32.3228 81.1488 32.2682 81.3481 32.2162 81.6001C32.1639 81.8522 32.1314 82.0052 32.119 82.0595L32.0559 82.6745L32.0705 83.2696L32.164 83.8573C32.1791 83.9265 32.2048 84.0104 32.2403 84.1085C32.2758 84.2071 32.3152 84.2987 32.3582 84.383C32.4453 84.5602 32.5388 84.7131 32.6391 84.8408C32.7393 84.9687 32.8635 85.092 33.0117 85.211C33.1599 85.3301 33.3437 85.4282 33.5634 85.5054C33.771 85.5481 33.9672 85.5612 34.1514 85.5445L34.3755 85.5241L34.6617 85.4571L34.8925 85.3681L35.1584 85.2218L35.3975 85.0772L35.6475 84.9051L35.554 84.7544H35.5535ZM37.254 86.2074C37.5368 86.4914 37.9226 86.7889 38.4114 87.0989L38.6199 87.1997L38.8452 87.3384L38.5592 87.8431C37.9624 87.5163 37.4563 87.1633 37.0409 86.7846C36.8555 86.5973 36.6705 86.3901 36.4861 86.1634C36.3013 85.9364 36.112 85.6811 35.9177 85.397L35.655 85.5749L35.3134 85.7599C35.2042 85.8255 35.076 85.8793 34.9294 85.9207L34.646 86.0163L34.4089 86.0379L34.1848 86.0583C33.9478 86.0797 33.7025 86.0621 33.4494 86.0059C33.1963 85.949 32.9474 85.8436 32.703 85.6889C32.3268 85.4491 32.0383 85.1259 31.8373 84.7197C31.6362 84.3131 31.5139 83.8684 31.4698 83.3861L31.4469 83.1358L31.4191 82.8334L31.4733 82.2578C31.5404 81.8272 31.6508 81.3813 31.8042 80.9209C31.9576 80.4602 32.1425 80.0523 32.3585 79.6961C32.7037 79.0988 33.1617 78.5174 33.7321 77.9526C34.3025 77.3877 34.9186 76.9824 35.5802 76.7365L35.9564 76.6224L36.3529 76.5862C36.6523 76.5593 36.9211 76.5832 37.1591 76.6588C37.386 76.709 37.6497 76.8263 37.9512 77.0108C38.358 77.2832 38.6436 77.5884 38.8079 77.9266C38.9999 78.2802 39.1151 78.663 39.1528 79.0744L39.1563 79.5514L39.1217 80.0448C39.0658 80.5002 38.9597 80.9387 38.8033 81.3592C38.7404 81.5416 38.6611 81.7429 38.5664 81.9637C38.4714 82.1841 38.3751 82.3917 38.2778 82.5858L38.2444 82.6552L38.2108 82.7247C37.9763 83.1612 37.7126 83.5737 37.4207 83.9621C37.2705 84.1618 37.1106 84.3506 36.9411 84.5295C36.7716 84.7086 36.5794 84.8869 36.3657 85.0653C36.6357 85.5019 36.9318 85.8825 37.254 86.208V86.2074ZM36.6818 77.2314L36.3521 77.2374L36.1477 77.2564L35.8641 77.3338C35.7251 77.3714 35.5729 77.4367 35.4109 77.5281C35.1665 77.6474 34.9322 77.791 34.7102 77.9578C34.4866 78.1259 34.2608 78.3266 34.0393 78.5545C33.5939 79.0123 33.2151 79.5054 32.9138 80.0201C32.7872 80.2491 32.6327 80.5901 32.4555 81.0319C32.4008 81.1721 32.3468 81.3689 32.2957 81.6162C32.2432 81.8692 32.2107 82.023 32.1979 82.0775L32.1367 82.6827L32.1515 83.2674L32.2441 83.8442C32.2572 83.9045 32.2819 83.9854 32.3164 84.0807C32.3509 84.1767 32.3893 84.2657 32.4302 84.3455C32.515 84.5185 32.6066 84.6676 32.7028 84.7903C32.7982 84.9121 32.919 85.0323 33.0624 85.1474C33.2026 85.2601 33.38 85.3544 33.5901 85.4287C33.7786 85.4664 33.9687 85.479 34.1438 85.4634L34.3678 85.4431L34.6425 85.3779L34.8626 85.2922L35.1185 85.1507L35.3546 85.0077L35.5367 84.882L35.4805 84.7909L35.2695 84.3732L35.0574 83.8272L34.9612 83.513L34.8912 83.1952L34.8063 82.7089L34.7562 82.1613L35.4719 82.0964L35.5465 82.9134L35.7116 83.534L35.9032 84.0102L36.1186 84.4303C36.4115 84.1725 36.6932 83.8681 36.957 83.5247C37.0767 83.3528 37.2352 83.1037 37.4259 82.7869C37.5702 82.5458 37.6648 82.3835 37.7101 82.3004L38.0253 81.5882L38.2887 80.8798C38.345 80.6723 38.3839 80.5187 38.4018 80.4308C38.4196 80.3421 38.4425 80.2087 38.4701 80.0306C38.5266 79.7057 38.5438 79.4167 38.5215 79.1715C38.4938 78.8686 38.4015 78.5664 38.2468 78.2738C38.0938 77.9841 37.8608 77.7354 37.5542 77.5347C37.4043 77.448 37.2088 77.3617 36.9774 77.2797L36.6818 77.2314ZM33.9951 85.6327C33.8517 85.6327 33.7016 85.6167 33.5466 85.5849C33.3083 85.5019 33.1146 85.3982 32.9602 85.2741C32.8072 85.151 32.6774 85.0221 32.5745 84.8904C32.4711 84.7589 32.3738 84.6002 32.2845 84.4184C32.2412 84.3337 32.2 84.2381 32.1631 84.1357C32.1256 84.0321 32.0998 83.9465 32.0839 83.874L31.9895 83.2817L31.9739 82.6762L32.0376 82.051C32.0517 81.987 32.0839 81.8345 32.136 81.5833C32.1897 81.3233 32.2447 81.1235 32.3041 80.9723C32.4835 80.5236 32.6409 80.1764 32.7721 79.94C33.081 79.4123 33.4676 78.9087 33.9225 78.4413C34.1496 78.2075 34.3818 78.001 34.6123 77.8277C34.8425 77.6547 35.0858 77.5056 35.3352 77.3839C35.5044 77.2884 35.6695 77.2179 35.8217 77.1768L36.1195 77.0968L36.3436 77.0752L36.6941 77.07L37.0183 77.1227C37.2731 77.2115 37.4776 77.3027 37.6401 77.3965C37.9739 77.6149 38.2254 77.8837 38.3913 78.1979C38.556 78.5098 38.6546 78.8323 38.6842 79.1569C38.708 79.4166 38.6903 79.7195 38.6314 80.0574C38.6036 80.237 38.5803 80.3725 38.562 80.4632C38.5434 80.5548 38.5038 80.7117 38.4442 80.9298L38.1766 81.6497L37.8567 82.3722C37.8081 82.4621 37.7121 82.6266 37.5663 82.8708C37.3734 83.1907 37.2128 83.443 37.0891 83.621C36.7927 84.007 36.4763 84.3428 36.1465 84.622L36.0678 84.6885L35.7549 84.0778L35.5572 83.5853L35.3866 82.942L35.3246 82.2735L34.9337 82.3092L34.9683 82.6879L35.0515 83.1641L35.1191 83.4724L35.2121 83.7755L35.4184 84.3064L35.6249 84.715L35.7575 84.9284L35.4437 85.1446L35.2005 85.2916L34.9319 85.4396L34.691 85.5335L34.3938 85.6038L34.1586 85.6259C34.1054 85.6307 34.0508 85.6332 33.9952 85.6332L33.9951 85.6327ZM35.9392 85.284L35.9851 85.3511C36.1761 85.6306 36.3659 85.8865 36.5492 86.1117C36.7308 86.335 36.9156 86.5421 37.099 86.7272C37.4886 87.0822 37.9698 87.4212 38.5281 87.7328L38.7356 87.3666L38.5771 87.2689L38.376 87.1721C37.8761 86.8558 37.4821 86.552 37.196 86.2646V86.2643C36.8706 85.9359 36.5681 85.5466 36.2963 85.1073L36.2594 85.0474L36.3135 85.0021C36.5259 84.8251 36.717 84.6468 36.8819 84.4729C37.0488 84.297 37.2082 84.1085 37.3556 83.9128C37.6442 83.5288 37.9078 83.1159 38.1392 82.6855L38.2047 82.5501C38.3008 82.3579 38.3971 82.1502 38.4918 81.9308C38.5864 81.7104 38.6655 81.5089 38.7266 81.3321C38.8805 80.918 38.9862 80.4818 39.041 80.0343L39.0751 79.5452L39.0713 79.0746C39.0352 78.6831 38.9223 78.3077 38.7363 77.9651C38.5777 77.6384 38.2987 77.3411 37.9057 77.0779C37.6169 76.9011 37.3588 76.7861 37.1416 76.7377C36.9083 76.6639 36.6479 76.641 36.3605 76.6667L35.964 76.7029L35.6043 76.814C34.9612 77.0531 34.349 77.456 33.7899 78.0098C33.2274 78.5665 32.7698 79.1474 32.4296 79.7364C32.2163 80.0877 32.0324 80.4941 31.882 80.946C31.7306 81.4004 31.6202 81.8459 31.5543 82.27L31.5009 82.8403L31.5512 83.3783C31.5944 83.8489 31.7154 84.288 31.9108 84.6832C32.1044 85.0743 32.3858 85.3894 32.7474 85.6198C32.9818 85.7681 33.2242 85.8713 33.4677 85.9259C33.7115 85.9802 33.9505 85.9968 34.1777 85.9766L34.6294 85.9355L34.9038 85.843C35.0465 85.8025 35.1689 85.7514 35.2716 85.6896L35.6168 85.5028L35.9398 85.2837L35.9392 85.284ZM38.5906 87.9531L38.5197 87.9145C37.9205 87.5861 37.4043 87.2261 36.9858 86.8447C36.7959 86.6527 36.6073 86.4415 36.4225 86.2145C36.251 86.0038 36.0742 85.7671 35.8962 85.5099L35.7006 85.6421L35.352 85.8314C35.2402 85.899 35.1043 85.9559 34.9514 85.9991L34.653 86.0975L34.1919 86.1392C33.9479 86.1616 33.6918 86.1432 33.4314 86.0852C33.1693 86.0265 32.9095 85.9162 32.659 85.7576C32.2717 85.5108 31.9706 85.1737 31.7639 84.7557C31.5593 84.3425 31.433 83.8842 31.3882 83.3936L31.3377 82.8407L31.3918 82.2503C31.4599 81.8124 31.5724 81.358 31.7267 80.8953C31.8809 80.4319 32.0702 80.0142 32.2885 79.6541C32.6351 79.0542 33.1017 78.4617 33.6744 77.895C34.2501 77.3246 34.8817 76.9092 35.5515 76.6603L35.9323 76.5445L36.3453 76.5054C36.6542 76.4773 36.9364 76.5031 37.1838 76.5815C37.4117 76.6317 37.6865 76.7536 37.9937 76.9416C38.4138 77.2229 38.7113 77.5418 38.8811 77.8915C39.0764 78.2502 39.1954 78.6469 39.2338 79.0671L39.2378 79.5509L39.203 80.0503C39.1462 80.5148 39.0376 80.963 38.88 81.3875C38.8181 81.5661 38.7379 81.7715 38.6414 81.9955C38.5456 82.2176 38.4479 82.4285 38.351 82.6222L38.2843 82.7597C38.0476 83.2005 37.7797 83.6203 37.486 84.0108C37.3349 84.2115 37.1716 84.4049 37.0003 84.5852C36.8455 84.7489 36.6679 84.9158 36.4723 85.0821C36.728 85.4865 37.0102 85.8454 37.3118 86.1505C37.5892 86.4292 37.9739 86.7256 38.4553 87.0308L38.6556 87.1268L38.9548 87.3109L38.5906 87.9536V87.9531ZM39.1691 84.4989L39.2111 84.458L39.2674 84.4158L39.5128 84.1946L39.7442 83.9612L40.134 83.5679L40.5436 83.1068L41.1167 82.3918L41.6014 81.7379L42.1246 80.9216C42.2235 80.7447 42.3222 80.5633 42.4203 80.3775C42.4354 80.3497 42.4909 80.2297 42.5867 80.0176L42.8071 79.5205L43.0105 78.9849L43.5317 79.1663L41.5184 85.4806L40.9866 85.3208L41.9873 82.1819L41.512 82.7947L40.9622 83.4677L40.5529 83.9288L40.1781 84.3338L39.8608 84.6407L39.5424 84.9347L39.1711 85.2336L38.7615 85.5489L38.31 85.2589L40.3622 79.2256L40.8888 79.4026L39.1693 84.4985L39.1691 84.4989ZM38.4074 85.2251L38.7571 85.4497L39.1211 85.1693L39.4908 84.8715L39.8051 84.5814L40.121 84.2757L40.4925 83.8739L40.901 83.4139L41.4484 82.7437L42.2044 81.7686L41.0891 85.2668L41.4648 85.3798L43.4297 79.2176L43.0582 79.0884L42.8831 79.5499L42.661 80.0509C42.5307 80.3391 42.502 80.3975 42.4916 80.4168C42.3934 80.6023 42.2946 80.7839 42.1955 80.9618L41.6699 81.7823L41.1819 82.441L40.6069 83.158L40.1947 83.6224L39.5708 84.2524L39.2259 84.5575L38.9839 84.7922L40.7852 79.4546L40.4132 79.3296L38.4073 85.2256L38.4074 85.2251ZM38.7656 85.6487L38.2122 85.2933L40.3109 79.1229L40.9921 79.3519L39.3432 84.2383L39.4583 84.1345L40.0759 83.511L40.4824 83.0529L41.0528 82.3412L41.5359 81.6895L42.056 80.8778C42.1518 80.7057 42.2502 80.5248 42.3481 80.3397C42.3583 80.3211 42.3945 80.245 42.5122 79.9841L42.7324 79.4876L42.9621 78.8821L43.6336 79.1155L41.5716 85.5814L40.8835 85.3748L41.7696 82.5951L41.5763 82.8448L41.0255 83.5192L40.6138 83.983L40.238 84.3892L39.9175 84.6994L39.5976 84.9946L39.2224 85.2971L38.7656 85.6487ZM42.9786 84.7419C42.9577 84.7086 42.9382 84.6618 42.9192 84.6014C42.9006 84.5414 42.8868 84.4632 42.8778 84.3667C42.8626 84.2004 42.8685 84.0455 42.8951 83.9016C42.9218 83.7579 42.9787 83.5804 43.0655 83.3695C43.2243 82.9753 43.4481 82.5662 43.7372 82.1425C44.0582 81.6805 44.4049 81.2603 44.7779 80.8818C44.8754 80.7848 44.9483 80.712 44.9971 80.6631C45.1591 80.4982 45.2851 80.3763 45.3755 80.2975L46.0293 79.7477L47.8008 78.3512L48.1461 78.7859L46.3754 80.1814C46.0677 80.4043 45.7693 80.6753 45.4796 80.9936L45.1059 81.4129L44.7228 81.8728C44.6437 81.9775 44.5573 82.1006 44.4641 82.2423C44.3706 82.3836 44.3012 82.4962 44.2557 82.5799L43.8571 83.3073L43.6465 83.911C43.6076 84.065 43.5889 84.204 43.5915 84.3274L43.6025 84.4463L43.6638 84.5336L43.7334 84.5674L43.8258 84.5589C44.0107 84.542 44.2704 84.4189 44.6045 84.19C44.9385 83.9606 45.3009 83.6519 45.6917 83.263C45.8542 83.0981 45.9972 82.9415 46.1216 82.7932C46.2456 82.645 46.3869 82.4665 46.5454 82.2578C46.6863 82.0509 46.8123 81.8515 46.9234 81.6605C47.0347 81.4694 47.1334 81.2638 47.2199 81.0438L48.0687 78.9659L48.5814 79.1841L48.1769 80.1353L47.8559 80.986L47.6907 81.5043L47.5258 82.0229L47.3868 82.5388L47.2504 83.0815L47.1356 83.569L47.0277 83.9895L46.9989 84.1114L46.9849 84.2453L46.9298 84.5153L46.8662 84.839L46.247 84.7496L46.3377 84.2908L46.4456 83.8699L46.5293 83.478L46.6489 83.0433L46.0262 83.7888C45.987 83.8451 45.937 83.9029 45.876 83.9614C45.8148 84.0201 45.7638 84.0689 45.7231 84.1077L45.3686 84.4449C45.2777 84.515 45.1675 84.5957 45.0388 84.687C44.9097 84.7778 44.7735 84.8612 44.6298 84.9359C44.4031 85.0714 44.1712 85.1498 43.9339 85.1714C43.7932 85.1843 43.6844 85.181 43.6076 85.1614C43.5304 85.142 43.4692 85.1251 43.4237 85.1121C43.3781 85.0985 43.3179 85.0687 43.243 85.0224C43.1215 84.9541 43.0332 84.8604 42.9781 84.7419H42.9786ZM43.7186 84.4697L43.7485 84.4843L43.8184 84.4781C43.9882 84.4625 44.237 84.3433 44.5584 84.1231C44.8874 83.8972 45.2494 83.5885 45.634 83.2057C45.7933 83.0439 45.9365 82.8875 46.059 82.7413C46.1805 82.5962 46.3225 82.4171 46.4804 82.2089C46.6163 82.0095 46.7425 81.81 46.8527 81.6198C46.9611 81.4342 47.059 81.2305 47.144 81.0146L47.9485 79.0455L46.4259 80.2455C46.1222 80.4655 45.825 80.7349 45.5401 81.0485L45.1669 81.4672L44.7855 81.925C44.7096 82.0261 44.6237 82.1488 44.5322 82.2873C44.4406 82.4261 44.3717 82.5376 44.3276 82.6188L43.9285 83.3465L43.7236 83.9379C43.6884 84.0782 43.6706 84.2109 43.673 84.3264L43.6817 84.4178L43.7185 84.4701L43.7186 84.4697ZM47.7876 78.4655L46.0801 79.8114L45.4281 80.3597C45.3414 80.4357 45.2156 80.5569 45.0554 80.7202L44.8356 80.9393C44.4688 81.3119 44.1215 81.7324 43.8046 82.1887C43.5204 82.6053 43.2973 83.0129 43.1417 83.3998C43.0568 83.6052 43.001 83.7788 42.9754 83.9163C42.9502 84.0524 42.9447 84.2015 42.9592 84.3594C42.9675 84.4496 42.9804 84.5228 42.9974 84.5776C43.014 84.6314 43.0312 84.6722 43.048 84.6987L43.0527 84.708C43.1011 84.8117 43.1766 84.8914 43.2837 84.9519C43.3713 85.0057 43.4211 85.0262 43.4478 85.0343C43.4921 85.0472 43.5523 85.0637 43.6281 85.0827C43.6957 85.1003 43.7963 85.1028 43.9273 85.0906C44.1509 85.0704 44.3735 84.9948 44.5886 84.8663C44.7312 84.7919 44.8658 84.7102 44.9924 84.6208C45.1199 84.5304 45.2292 84.4504 45.3196 84.3807L45.82 83.9031C45.876 83.8492 45.9231 83.7954 45.9602 83.7427L46.8282 82.7028L46.6088 83.4998L46.526 83.8871L46.4177 84.3107L46.3444 84.6812L46.8016 84.7472L46.9055 84.229L46.9186 84.1029L46.949 83.971L47.057 83.5487L47.3083 82.5192L47.4474 82.0019L47.7789 80.9615L48.1009 80.1069L48.475 79.2275L48.1134 79.0735L47.2959 81.0747C47.208 81.2976 47.1066 81.5086 46.9943 81.7014C46.8817 81.8949 46.7534 82.0976 46.6132 82.3037C46.4509 82.5173 46.3077 82.6984 46.1843 82.8454C46.0593 82.9952 45.913 83.1548 45.7501 83.3201C45.3579 83.7106 44.9883 84.0254 44.6511 84.257C44.3015 84.4965 44.0341 84.6217 43.8335 84.6399L43.7183 84.6506L43.6094 84.5978L43.5233 84.4752L43.5107 84.3349C43.5076 84.1995 43.5269 84.052 43.5676 83.8908L43.7802 83.2804L44.1845 82.5408C44.2307 82.4557 44.302 82.3399 44.3961 82.1972C44.4893 82.056 44.5773 81.9305 44.6577 81.8239L45.0434 81.3609L45.4189 80.9394C45.7123 80.617 46.0178 80.34 46.3277 80.1155L48.0317 78.7724L47.7877 78.4655H47.7876ZM43.7815 85.2609C43.7047 85.2609 43.6407 85.254 43.5877 85.2405C43.5101 85.221 43.4477 85.2038 43.4015 85.1904C43.3475 85.1743 43.2819 85.142 43.2005 85.092C43.0686 85.0177 42.9688 84.9126 42.9064 84.7807C42.8831 84.742 42.8617 84.6915 42.8413 84.626C42.8205 84.5595 42.8059 84.4771 42.7964 84.374C42.7807 84.2015 42.7868 84.0373 42.8149 83.8868C42.8424 83.7382 42.9016 83.5536 42.99 83.3385C43.1502 82.9414 43.3787 82.5233 43.6698 82.0965C43.9924 81.632 44.3457 81.2043 44.7195 80.8249L44.9392 80.6058C45.1039 80.438 45.2292 80.317 45.3214 80.2364L45.9767 79.6856L47.814 78.237L48.2606 78.7992L48.1285 78.9031L48.6884 79.1415L48.2519 80.1671L47.9325 81.0149L47.6036 82.0478L47.3298 83.1017L47.0788 84.1304L47.0662 84.2541L46.9318 84.9305L46.1506 84.8181L46.2583 84.2752L46.367 83.8503L46.4714 83.3844L46.0894 83.8413C46.0508 83.8975 45.9966 83.9597 45.933 84.0204L45.4256 84.5041C45.3272 84.5801 45.2163 84.6617 45.0867 84.7538C44.954 84.8475 44.8132 84.9328 44.6681 85.0083C44.4359 85.1474 44.1904 85.2301 43.9419 85.2528C43.8831 85.2581 43.8297 85.261 43.7815 85.261V85.2609ZM51.2674 76.5695L50.9026 77.6503L50.8168 77.87L50.7322 78.103L50.4371 79.0453L50.1056 80.1076L49.7727 81.2512L49.5054 82.2427L49.4482 82.4868L49.3755 82.7054L49.1628 83.5725L48.9314 84.5172L48.3924 84.3824L48.608 83.5026L48.7967 82.6768L48.8673 82.3892L48.9537 82.0922L49.2336 81.0861L49.5709 79.9567L49.8864 78.9069L50.1878 77.992L50.2689 77.7194L50.3756 77.4315L50.7557 76.3636L51.216 75.1556L51.7244 75.3483L51.2671 76.5696L51.2674 76.5695ZM48.491 84.3232L48.8716 84.4183L49.2961 82.6861L49.3707 82.4611L49.4258 82.2243L49.6937 81.2299L50.027 80.0847L50.6541 78.0785L50.8265 77.6206L51.1907 76.5409L51.6198 75.3953L51.2631 75.2601L50.8317 76.3921L50.3454 77.7474L50.2657 78.0149L49.9637 78.932L49.3115 81.1091L48.8757 82.696L48.6872 83.5206L48.4905 84.323L48.491 84.3232ZM48.9913 84.6159L48.294 84.4417L48.529 83.4832L48.7881 82.3696L48.8753 82.0691L49.1552 81.0642L49.8084 78.8833L50.191 77.6961L50.299 77.4031L50.679 76.3361L51.1687 75.0503L51.8295 75.3006L51.3441 76.5964L50.98 77.676L50.8091 78.1306L50.1837 80.1317L49.8513 81.2738L49.528 82.5052L49.4531 82.7308L48.9915 84.6158L48.9913 84.6159ZM54.2717 76.6134L53.7364 76.4234L54.2499 75.0653L54.7864 75.2681L54.2717 76.6133V76.6134ZM53.1299 78.0564L53.6629 78.219L51.5609 84.306L51.0373 84.1202L53.1299 78.0564ZM53.842 76.3747L54.2238 76.5103L54.681 75.3156L54.2973 75.1705L53.842 76.3749V76.3747ZM54.3195 76.7167L53.6307 76.4724L54.2026 74.9602L54.892 75.2211L54.3196 76.7169L54.3195 76.7167ZM51.1409 84.0705L51.5106 84.2018L53.5584 78.2721L53.1817 78.1571L51.1409 84.0705ZM51.6112 84.4102L50.9339 84.17L53.0783 77.9552L53.7674 78.1656L51.6111 84.4102H51.6112ZM55.8623 76.8651L56.0538 76.4894L56.5148 75.5724L57.0449 74.5426L57.548 74.8147L57.0033 75.8312L56.5549 76.7466L56.4518 76.9278L56.3633 77.1213L59.45 76.4514L59.5658 76.993L56.1115 77.7583L55.8184 78.5224L55.5151 79.4043L55.1504 80.5231L54.8688 81.5284L54.7304 82.0574L54.6195 82.5975L54.5811 82.7599L54.5425 82.9221L54.5785 82.8792L54.6262 82.8219L54.9065 82.5446L55.1855 82.2541L55.5687 81.9412L55.9746 81.5862L56.4442 81.1993L56.891 80.8539L57.1758 80.6292L57.5016 80.4142L57.8034 80.2277L58.1553 80.0103L58.4528 80.4999L58.0621 80.7342L57.7222 80.9373L57.4849 81.1045L57.2478 81.2719L56.8001 81.6042L56.3174 81.9927L55.8515 82.4189L55.4601 82.7859L55.266 82.989L55.0828 83.1647L54.7236 83.5948L54.3021 84.0706L53.8049 83.8637L53.8745 83.4601L53.9462 83.0824L54.031 82.5581L54.116 82.1794C54.1637 81.9278 54.1941 81.7771 54.2075 81.7272C54.2206 81.6776 54.2613 81.5436 54.3301 81.3253L54.4474 80.8641C54.4903 80.6572 54.5452 80.4799 54.6116 80.3325L54.975 79.2261L55.2038 78.5297L55.4383 77.8988L54.2659 78.1512L54.1628 77.6035L55.6994 77.2648L55.8622 76.8655L55.8623 76.8651ZM53.8966 83.8133L54.2799 83.9728L54.6627 83.5407L55.0203 83.1122L55.2099 82.9303L55.4013 82.7294L56.2625 81.9323L56.7491 81.5404L57.6752 80.8705L58.3408 80.472L58.1286 80.1224L57.5448 80.483L57.2213 80.6966L56.4944 81.2632L56.0269 81.6487L55.6227 82.0022L55.2375 82.3168L54.9657 82.6007L54.6055 82.9742L54.3837 83.2394L54.5405 82.5787L54.6506 82.0411L54.7901 81.5079L55.072 80.5012L55.4376 79.379L55.7414 78.4956L56.0512 77.6882L59.4692 76.9313L59.3873 76.5483L56.2214 77.2354L56.3778 76.894L56.484 76.7064L56.9299 75.7956L57.438 74.8479L57.0797 74.6539L56.5874 75.6096L55.9366 76.8989L55.7591 77.3346L54.2578 77.6652L54.331 78.0535L55.567 77.7872L55.2807 78.5574L54.6892 80.3572C54.6223 80.5067 54.5689 80.68 54.5275 80.8798L54.4093 81.3446C54.34 81.5655 54.2996 81.6982 54.2867 81.7475C54.274 81.7946 54.2435 81.945 54.1962 82.1939L54.1108 82.5753L54.0267 83.0949L53.8964 83.813L53.8966 83.8133ZM54.3248 84.1677L53.7138 83.9136L53.9506 82.5449L54.0363 82.1612C54.0847 81.9072 54.1149 81.7577 54.1288 81.7061C54.142 81.6562 54.1829 81.5209 54.2523 81.3003L54.3684 80.8436C54.4114 80.6356 54.4685 80.451 54.537 80.2989L55.1263 78.5037L55.3101 78.0089L54.2012 78.2478L54.0679 77.5405L55.6399 77.1939L55.7894 76.8281L57.0104 74.4313L57.6582 74.7817L57.075 75.8696L56.6281 76.782L56.5047 77.0072L59.5126 76.3542L59.6625 77.0548L56.172 77.828L55.8947 78.5512L55.5922 79.4303L55.2279 80.548L54.8093 82.0778L54.6929 82.6413L54.849 82.4863L55.1266 82.1975L55.517 81.878L55.9209 81.5246L56.392 81.136L57.1252 80.5648L57.4563 80.3456L58.1825 79.8974L58.5648 80.5271L57.7639 81.0064L57.2949 81.3379L56.8486 81.6687L56.3685 82.0554L55.5158 82.8443L55.3251 83.0445L55.1391 83.2225L54.7863 83.6461L54.3246 84.1672L54.3248 84.1677ZM59.9974 82.7051L60.0965 82.6296L60.1694 82.5566L60.4035 82.3631L60.6358 82.1434L61.1134 81.7021L61.6092 81.1667L62.287 80.4427L62.8629 79.7676L63.2892 79.1989L63.7118 78.5907L64.1284 77.9166L64.5737 77.1207L65.0744 77.3667L60.868 88.0308L60.3528 87.8238L63.5271 79.811L63.3751 79.98L63.2451 80.1507L62.671 80.827L62.0212 81.5497L61.4995 82.0747L61.0256 82.5424L60.7687 82.7783L60.5238 83L60.0916 83.3441L59.6093 83.7201L59.1777 83.2028L61.1442 77.2471L61.6678 77.433L59.9969 82.7049L59.9974 82.7051ZM60.4587 87.7786L60.8224 87.9247L64.9711 77.4069L64.6073 77.2283L64.1998 77.9563L63.7812 78.6333L63.3564 79.2453L62.9283 79.8164L62.3492 80.4958L61.1735 81.7577L60.4597 82.4227L60.0468 82.7702L59.8419 82.9254L61.5666 77.4837L61.1958 77.352L59.2697 83.1856L59.6216 83.6076L60.4732 82.9365L60.9706 82.4828L61.9637 81.4925L62.6104 80.7728L63.1832 80.0985L63.3106 79.9311L63.7707 79.4187L60.4587 87.7789V87.7786ZM60.914 88.1372L60.2475 87.869L63.2639 80.2551L62.7335 80.8796L62.0826 81.604L61.0834 82.6006L60.579 83.0604L59.5975 83.8328L59.0865 83.22L61.0933 77.1424L61.7698 77.3827L60.1612 82.458L60.3514 82.3005L61.0582 81.6426L62.2276 80.3874L62.8009 79.7149L63.2239 79.1503L63.645 78.5445L64.0593 77.8741L64.5406 77.014L65.1784 77.3273L60.9143 88.1374L60.914 88.1372ZM71.5849 75.7206C71.6722 75.5969 71.7471 75.4562 71.8093 75.2992C71.8712 75.1419 71.9326 74.9535 71.9936 74.7337L72.0252 74.4901L72.007 74.2912C71.994 74.1497 71.9298 74.0309 71.8137 73.9341C71.7847 73.9102 71.7285 73.8797 71.6449 73.8425C71.5048 73.7751 71.4212 73.7383 71.3938 73.7318L71.3276 73.7375L71.2876 73.7414C71.1372 73.7549 70.9805 73.8485 70.8183 74.0224C70.6749 74.2122 70.5517 74.4268 70.4487 74.6655C70.4344 74.7025 70.4155 74.7437 70.3932 74.7898C70.3706 74.8362 70.3433 74.9269 70.3106 75.0624L70.3049 75.434C70.3169 75.5654 70.3543 75.7298 70.4173 75.9272L70.5323 76.1552L70.6926 76.4321L70.7715 76.5574L70.8165 76.6063L70.9259 76.4762C71.1341 76.2967 71.3539 76.0449 71.5849 75.7206ZM70.552 77.558C70.3555 77.7344 70.1883 77.8913 70.0504 78.0275C69.9119 78.1637 69.7509 78.3374 69.5665 78.5483C69.4219 78.712 69.2974 78.8997 69.1928 79.1123C69.0881 79.3253 68.9844 79.5948 68.8816 79.9223L68.7786 80.541L68.7897 81.0966C68.8233 81.4646 68.9328 81.7616 69.1186 81.9877C69.3041 82.2138 69.5827 82.3097 69.9541 82.2759C70.1133 82.2616 70.2194 82.2517 70.2727 82.247L70.6356 82.1199L71.1986 81.8404L71.6424 81.5721C71.811 81.4671 71.9899 81.3256 72.1788 81.147L72.5908 80.68L72.6918 80.4961L72.8161 80.3104L70.7267 77.4356L70.552 77.5578V77.558ZM72.4335 81.6647C72.2033 81.8624 71.7919 82.1164 71.1999 82.4271L71.0343 82.5087L70.8568 82.6045L70.6514 82.6896L70.3676 82.7818L69.9358 82.8609C69.3729 82.912 68.9552 82.7576 68.6831 82.3982C68.4106 82.0385 68.2528 81.618 68.2087 81.1362L68.1905 80.9391C68.1827 80.8515 68.1856 80.7893 68.2001 80.7527L68.194 80.5414L68.2348 80.2593L68.3508 79.7851C68.5336 79.1677 68.7755 78.6666 69.0768 78.2816C69.3781 77.8965 69.6925 77.5563 70.0199 77.2616L70.1433 77.1575L70.2664 77.0534L70.3168 77.0224L70.354 76.9929L70.3491 76.9401L70.3001 76.8386L69.9201 76.1708C69.8281 75.9409 69.7715 75.7075 69.75 75.471C69.7307 75.2608 69.7346 75.0863 69.7618 74.9467C69.7889 74.8071 69.8503 74.6316 69.9461 74.4198L70.0373 74.2524L70.127 74.0721C70.2315 73.8597 70.3708 73.6659 70.5456 73.4909C70.7198 73.3162 70.9431 73.2161 71.2156 73.1915L71.3472 73.1795C71.4264 73.1722 71.4798 73.1763 71.5079 73.1915C71.7937 73.2186 72.0395 73.338 72.2447 73.5489L72.4747 73.8867C72.5394 74.014 72.5789 74.1559 72.5936 74.314C72.6056 74.4459 72.6138 74.5378 72.6187 74.5905C72.626 74.6696 72.6071 74.7598 72.5624 74.8611C72.437 75.3593 72.2534 75.7611 72.0113 76.0662C71.7886 76.3873 71.5279 76.6854 71.2293 76.9603L71.1925 77.0035L71.1427 77.048L71.3091 77.2716L71.5846 77.6715L72.2204 78.5297L72.8309 79.4035L73.1313 79.7874L73.1659 79.7305L73.1876 79.6749L74.4048 77.6861L74.8827 77.9723L73.6689 79.9772L73.5752 80.1324L73.4938 80.2733L73.8469 80.7556L74.6303 81.8467L75.3944 82.8677L75.7369 83.3579L75.2958 83.7112L74.9764 83.237L74.2521 82.2261L73.5241 81.2322L73.203 80.7711C72.9759 81.1013 72.7194 81.3992 72.4334 81.6644L72.4335 81.6647ZM71.3851 73.8141L71.2951 73.8223C71.1654 73.834 71.025 73.92 70.8778 74.0777C70.7444 74.2556 70.6231 74.466 70.5235 74.6976C70.5094 74.7338 70.4899 74.777 70.4663 74.8252C70.4527 74.8532 70.4284 74.9206 70.39 75.081L70.3863 75.4351C70.3973 75.5518 70.4341 75.7118 70.4948 75.9023L70.6052 76.1182L70.8176 76.478L70.8632 76.4237C71.0754 76.2395 71.2926 75.9901 71.5181 75.6733C71.6012 75.5557 71.6735 75.4197 71.733 75.2692C71.794 75.1145 71.8551 74.927 71.9146 74.712L71.944 74.4796L71.9257 74.2985C71.9147 74.1783 71.861 74.0797 71.7612 73.9965C71.7483 73.986 71.7118 73.9614 71.6116 73.9169C71.4626 73.8454 71.406 73.8218 71.3849 73.8141H71.3851ZM70.8193 76.7295L70.7114 76.6124L70.6232 76.4753L70.4615 76.1958L70.3442 75.9638C70.2747 75.7501 70.2359 75.5784 70.2232 75.4411L70.2292 75.0611C70.2652 74.9013 70.2939 74.8067 70.3195 74.7545C70.341 74.7102 70.3587 74.6711 70.3726 74.6358C70.4783 74.3901 70.6058 74.1681 70.753 73.9737C70.9338 73.7789 71.1092 73.6759 71.28 73.6604L71.3996 73.6495L71.4128 73.6526C71.4374 73.6586 71.4882 73.6768 71.6802 73.7693C71.7707 73.8095 71.8305 73.8424 71.8661 73.8717C71.9986 73.9824 72.0735 74.1211 72.0883 74.2839L72.1065 74.4828L72.0744 74.7443C72.0111 74.976 71.9481 75.1688 71.8851 75.329C71.8207 75.4918 71.7422 75.6392 71.6516 75.7676H71.6513C71.4182 76.0952 71.1919 76.3542 70.9791 76.5378L70.8193 76.7297V76.7295ZM70.6028 77.6219C70.4126 77.7929 70.246 77.9487 70.1075 78.0853C69.9715 78.2193 69.8103 78.3929 69.6278 78.6018C69.4883 78.7599 69.3665 78.9436 69.266 79.1479C69.1636 79.3565 69.0605 79.625 68.9592 79.9465L68.8591 80.5545L68.871 81.0951C68.9026 81.4391 69.0071 81.7241 69.1813 81.9361C69.3502 82.1418 69.6004 82.2264 69.9464 82.1949L70.2609 82.1662L70.6083 82.0431L71.162 81.7677L71.6 81.5024C71.7625 81.4013 71.9385 81.262 72.1223 81.0882L72.5295 80.6265L72.6199 80.4574L72.7167 80.3126L70.7077 77.5484L70.6026 77.6219H70.6028ZM69.8144 82.3638C69.4873 82.3638 69.2324 82.255 69.0553 82.0393C68.8602 81.8016 68.7435 81.487 68.7083 81.104L68.697 80.5428L68.801 79.9091C68.9072 79.5686 69.0134 79.2921 69.1194 79.0764C69.2265 78.859 69.3563 78.6632 69.505 78.4946C69.6899 78.2829 69.8539 78.1061 69.9929 77.9697C70.1338 77.8301 70.3036 77.6715 70.4972 77.4973L70.5053 77.4912L70.7459 77.3233L72.9156 80.3086L72.7597 80.5416L72.6625 80.7191L72.2401 81.201C72.043 81.3875 71.8581 81.5339 71.6857 81.6411L71.2412 81.91L70.6719 82.193L70.2801 82.3279L69.9616 82.3568C69.911 82.3615 69.862 82.3637 69.8144 82.3637V82.3638ZM73.2024 80.6283L73.5911 81.1859L74.3181 82.1785L75.0431 83.1898L75.3143 83.5926L75.6267 83.3424L75.3277 82.9144L74.565 81.8957L73.3966 80.2785L73.5993 79.9354L74.7709 78.0001L74.4326 77.7976L73.1401 79.9305L72.7672 79.4537L72.1539 78.5764L71.5195 77.7198L71.2423 77.3177L71.0333 77.0364L71.1672 76.9078C71.4671 76.6312 71.7262 76.3349 71.9446 76.0201C72.1812 75.7214 72.3615 75.3263 72.4837 74.8415C72.5271 74.7403 72.5438 74.6629 72.5379 74.5978L72.5124 74.3213C72.499 74.1748 72.4621 74.0409 72.4023 73.9236L72.1774 73.5947C71.9956 73.4097 71.7646 73.2974 71.5002 73.2726L71.4688 73.2628C71.4684 73.2627 71.4446 73.2523 71.3549 73.2606L71.2229 73.2726C70.9718 73.2954 70.7631 73.3881 70.6032 73.5481C70.4359 73.7158 70.3006 73.904 70.2002 74.1077L70.0178 74.4586C69.9277 74.658 69.8678 74.8295 69.8419 74.9622C69.8164 75.0936 69.8129 75.2622 69.8312 75.4637C69.8519 75.6919 69.9075 75.9196 69.9959 76.1409L70.4302 76.9328L70.4389 77.0291L70.0724 77.3238C69.7526 77.6117 69.4385 77.9511 69.1411 78.3316C68.8474 78.7067 68.608 79.2033 68.4288 79.8081L68.3136 80.2787L68.2746 80.5528L68.2819 80.7669L68.2758 80.7827C68.2715 80.7935 68.2624 80.8299 68.2715 80.9315L68.2897 81.1287C68.3321 81.5929 68.4863 82.0034 68.7479 82.3489C69.0045 82.6876 69.3905 82.8283 69.9282 82.7793L70.3528 82.7014L70.6263 82.612L70.8252 82.5289L71.1634 82.3539C71.7452 82.0487 72.1547 81.796 72.3788 81.6037C72.6582 81.3447 72.913 81.0491 73.1357 80.7254L73.2024 80.6281V80.6283ZM75.2777 83.8304L74.9088 83.2825L74.1859 82.2736L73.4584 81.2804L73.2027 80.9136C72.9894 81.2104 72.7498 81.4826 72.4888 81.7242L72.4865 81.7263C72.25 81.9296 71.8416 82.1826 71.2378 82.4994L70.8955 82.676L70.683 82.7647L70.393 82.8591L69.9506 82.9408C69.3534 82.996 68.9073 82.8292 68.6181 82.4472C68.3379 82.0773 68.1728 81.6387 68.1277 81.1438L68.1095 80.9466C68.1013 80.8553 68.1039 80.789 68.1184 80.7406L68.1124 80.5438L68.1541 80.2481L68.2715 79.7659C68.4575 79.1376 68.7063 78.6227 69.0126 78.2315C69.3157 77.8438 69.6365 77.4973 69.9651 77.2015L70.267 76.9579L70.2266 76.8741L69.8493 76.2112C69.75 75.9656 69.6908 75.7226 69.6686 75.4786C69.6487 75.2619 69.6533 75.0778 69.6818 74.9313C69.7101 74.7861 69.7738 74.6028 69.8719 74.3866L70.0539 74.0361C70.1619 73.8167 70.3079 73.6138 70.4878 73.4334C70.6754 73.2453 70.9179 73.1366 71.2083 73.1105L71.3401 73.0985C71.4264 73.0906 71.4864 73.0946 71.5294 73.1116C71.8279 73.1431 72.088 73.2711 72.3033 73.4923L72.5425 73.8412C72.6169 73.9857 72.6598 74.1394 72.6749 74.3066L72.7003 74.5829C72.7089 74.6757 72.6877 74.7802 72.6375 74.894C72.5141 75.3883 72.3237 75.804 72.0755 76.1167C71.8534 76.4372 71.5866 76.7424 71.285 77.0203L71.2526 77.0586L71.3751 77.2234L71.6523 77.6254L72.2866 78.4815L72.8985 79.3569L73.1174 79.6369L74.3779 77.5747L74.9953 77.9447L73.5914 80.2685L73.9134 80.7079L74.6969 81.7997L75.4604 82.8192L75.8479 83.3742L75.2781 83.8305L75.2777 83.8304ZM86.9821 74.0695L87.2138 73.951L87.6031 73.7054L87.6534 73.6744L87.7036 73.6434L87.9926 73.4594L88.1912 73.3102C88.2894 73.2225 88.3614 73.1392 88.4073 73.0605C88.4533 72.9818 88.4734 72.9123 88.4681 72.8511C88.4571 72.7297 88.3311 72.638 88.091 72.5767C87.8507 72.5154 87.546 72.5015 87.177 72.5348L86.4956 72.6366L85.6247 72.8475C85.3483 72.9258 85.0363 73.0246 84.6886 73.144C84.3408 73.2635 83.9666 73.4074 83.5656 73.5758L83.3367 73.6889L83.0974 73.8294C82.9038 73.9436 82.7073 74.0914 82.507 74.2723C82.3064 74.4532 82.1487 74.6413 82.0335 74.8364L81.8996 75.1122L81.8706 75.3788L81.8849 75.5356L82.0041 75.67L82.1766 75.7996L82.4236 75.8694L82.7622 75.9174L82.9227 75.9161L85.5835 76.2029L86.0176 76.2691L86.5168 76.3578C86.9589 76.4502 87.3078 76.5821 87.5625 76.7528C87.8884 76.9265 88.0675 77.1928 88.1004 77.5519C88.1637 78.2443 87.9163 78.8322 87.3584 79.3157C86.8002 79.7991 86.1719 80.2406 85.4734 80.6397L85.3977 80.6863L85.3344 80.7187C85.225 80.7813 85.072 80.8507 84.875 80.9257C84.6781 81.0014 84.4548 81.0767 84.2049 81.1523L83.5413 81.3053L82.9258 81.4009L82.781 81.4143L82.649 81.4263C81.7707 81.5062 80.9583 81.4608 80.2121 81.2901C79.4659 81.1194 79.0745 80.8328 79.0376 80.4297C79.0185 80.2193 79.1476 79.9605 79.4249 79.6526C79.7025 79.3446 80.2085 78.9983 80.9441 78.6136L81.2627 78.4651L81.5824 78.3301L82.0855 78.165L82.6818 78.0051L83.192 77.9187L84.0438 77.7883L84.1085 78.3522L83.2675 78.4553L82.864 78.5448C82.603 78.595 82.3137 78.6791 81.9969 78.7963L81.8161 78.8523C81.7546 78.8579 81.6907 78.8857 81.6245 78.9358C81.4773 78.976 81.3675 79.0301 81.2939 79.0984C80.8044 79.3638 80.445 79.5996 80.2162 79.8056C80.0291 79.9906 79.934 80.1583 79.93 80.3088C79.95 80.528 80.2208 80.68 80.7422 80.7651C81.3409 80.8253 81.9217 80.8302 82.484 80.7789L82.6551 80.7634L82.8396 80.7465C83.1294 80.7202 83.3418 80.6968 83.4772 80.6751C83.6125 80.6543 83.7862 80.6143 83.9977 80.5551C84.2092 80.4959 84.4029 80.4342 84.5785 80.3696C84.7541 80.3053 84.901 80.2408 85.0192 80.1769L85.1965 80.0813L85.3978 79.9566C85.9031 79.672 86.376 79.3241 86.8169 78.9127C87.2576 78.5013 87.4609 78.1113 87.4274 77.7431C87.4113 77.5677 87.3003 77.4189 87.0937 77.296L86.813 77.1359L86.4399 76.9841L85.8128 76.8155L85.517 76.7523L82.8861 76.4659L82.6716 76.4456L82.4169 76.4161L81.9151 76.303C81.7696 76.2636 81.6392 76.1918 81.5235 76.0875C81.4196 76.0176 81.3363 75.9283 81.2732 75.8192L81.1618 75.4726L81.1545 75.394C81.1402 75.2368 81.1702 75.0819 81.245 74.9295C81.3196 74.7776 81.4357 74.6171 81.5929 74.4488C81.7502 74.2803 81.9089 74.1267 82.0689 73.989C82.2291 73.851 82.4208 73.6969 82.6445 73.527L82.9583 73.3268L83.2733 73.1392L83.7163 72.9007L84.1895 72.699C84.65 72.5077 85.1354 72.3442 85.6459 72.2097C85.871 72.1541 86.1162 72.1015 86.3818 72.0505C86.6474 71.9999 86.8809 71.9655 87.0831 71.9472C87.6891 71.892 88.1929 71.9296 88.5945 72.0601C88.9936 72.1642 89.2062 72.3559 89.2316 72.6349C89.2436 72.7655 89.2001 72.9233 89.1021 73.1081C89.0487 73.2006 88.9834 73.2879 88.9069 73.3695C88.8299 73.4512 88.7271 73.5594 88.5979 73.6943L88.3605 73.8608L88.0874 74.0703L87.9869 74.1321L87.8861 74.1938L87.5352 74.4237L87.2275 74.5663L85.4285 75.5029L85.1719 75.0112L86.9816 74.0694L86.9821 74.0695ZM83.9723 77.8819L82.6954 78.0855L82.1064 78.2437L81.6077 78.4075L81.2944 78.5402L80.9785 78.6875C80.2586 79.0642 79.7552 79.4079 79.4855 79.707C79.2252 79.9961 79.1019 80.237 79.1189 80.4224C79.1518 80.7845 79.526 81.0496 80.2307 81.2109C80.9644 81.3788 81.7757 81.4239 82.6419 81.3454L82.9183 81.3199L83.5291 81.2249L84.1867 81.0729C84.4302 80.9989 84.6539 80.9233 84.8458 80.8498C85.0364 80.7769 85.1872 80.7089 85.2938 80.6478L85.4305 80.5703C86.1235 80.174 86.7534 79.7315 87.3047 79.2539C87.8391 78.7907 88.0795 78.2206 88.0193 77.5592C87.9886 77.2261 87.8266 76.9857 87.5239 76.8243C87.2715 76.6557 86.9294 76.5267 86.5 76.4372L86.0033 76.349L85.5711 76.2831L82.914 75.9971L82.7628 75.9988L82.4121 75.9498L82.1275 75.8643L81.9549 75.7346L81.806 75.5695L81.7894 75.3861L81.8262 75.0766L81.9601 74.8004C82.082 74.5931 82.2466 74.3968 82.4523 74.2116C82.6565 74.0274 82.8597 73.8752 83.0559 73.7595L83.2955 73.6186L83.5296 73.5028C83.9335 73.333 84.3131 73.1869 84.6619 73.0669C85.0082 72.9481 85.3246 72.8478 85.6026 72.7691L86.4762 72.5573L87.1651 72.4545C87.5462 72.4195 87.8632 72.4346 88.1111 72.4977C88.3875 72.5681 88.5349 72.6845 88.5492 72.8435C88.5565 72.9214 88.5324 73.0082 88.4778 73.1011C88.4276 73.1871 88.3495 73.2778 88.2455 73.3704L88.0415 73.5239L87.2576 74.0192L87.0201 74.1412L85.2824 75.0457L85.4637 75.3927L87.1904 74.4939L87.5015 74.3495L88.0453 74.0006L88.3115 73.7961L88.5514 73.6278C88.6684 73.5034 88.7712 73.3954 88.8479 73.3138C88.9198 73.2373 88.9817 73.1544 89.032 73.0673C89.1208 72.9 89.1612 72.7564 89.151 72.6424C89.1286 72.3991 88.94 72.2343 88.5744 72.1389C88.1808 72.0111 87.6833 71.9748 87.091 72.0283C86.8918 72.0464 86.6585 72.0807 86.3977 72.1304C86.1315 72.1814 85.8851 72.2346 85.666 72.2887C85.1647 72.4209 84.6781 72.5844 84.2214 72.7743L83.7489 72.9754L83.3125 73.2107L83.0005 73.3963L82.6889 73.5954C82.4727 73.7601 82.2805 73.9145 82.1229 74.0505C81.9674 74.1841 81.8092 74.3367 81.6529 74.5041C81.5013 74.6666 81.389 74.8216 81.3187 74.9651C81.2511 75.1031 81.2233 75.2449 81.2363 75.3865L81.2433 75.4649L81.3513 75.794C81.4007 75.876 81.4765 75.9572 81.5694 76.0196C81.6843 76.1218 81.8048 76.1882 81.9366 76.2239L82.4352 76.3361L82.8942 76.3843L85.526 76.6708L85.8299 76.7356L86.4613 76.9049L86.8437 77.0601L87.1343 77.2249C87.3645 77.3618 87.4901 77.5332 87.5087 77.7352C87.5445 78.1281 87.3307 78.5442 86.8727 78.9716C86.4294 79.3854 85.9467 79.7408 85.438 80.0273L85.2396 80.1504L85.0581 80.2482C84.9356 80.3143 84.7838 80.3806 84.6067 80.4457C84.4291 80.511 84.2316 80.574 84.0195 80.6333C83.8055 80.6929 83.6273 80.734 83.4896 80.7552C83.3549 80.7766 83.1447 80.8002 82.8469 80.8273L82.4911 80.8597C81.9266 80.911 81.3354 80.9064 80.7339 80.8456C80.1606 80.7523 79.8728 80.5793 79.8488 80.3158C79.8531 80.1324 79.9546 79.9497 80.1587 79.7475C80.3927 79.5366 80.7576 79.2967 81.2463 79.0311C81.3266 78.9597 81.4416 78.9023 81.5882 78.8608C81.662 78.8075 81.7363 78.7771 81.8088 78.7706L81.9729 78.7178C82.2889 78.6011 82.5848 78.5151 82.8487 78.4644L83.2501 78.3753L84.0183 78.2808L83.9724 77.8813L83.9723 77.8819ZM81.8326 81.5456C81.255 81.5456 80.7066 81.4869 80.1941 81.3697C79.413 81.1911 78.9967 80.8773 78.9564 80.4373C78.9348 80.2015 79.0682 79.927 79.3642 79.5984C79.647 79.2847 80.1657 78.9293 80.906 78.5417L81.228 78.3917L81.5505 78.2556L82.0597 78.0882L82.6606 77.9269L83.1784 77.8388L84.1152 77.6955L84.1988 78.4232L83.2775 78.5364L82.8818 78.6245C82.6245 78.6743 82.3371 78.7576 82.0254 78.8727L81.8404 78.9302C81.7778 78.9378 81.7273 78.9604 81.6739 79.0009L81.6462 79.0145C81.5132 79.0507 81.4134 79.0991 81.3498 79.1581L81.3331 79.1701C80.8515 79.4315 80.4941 79.6655 80.2711 79.8663C80.1033 80.0326 80.0151 80.1831 80.0116 80.3114C80.0272 80.4757 80.2845 80.6084 80.7556 80.6852C81.3418 80.7439 81.9224 80.7486 82.4765 80.6981L82.8322 80.666C83.1264 80.6392 83.3332 80.616 83.4646 80.5953C83.5962 80.5747 83.768 80.5352 83.9759 80.4771C84.1835 80.4191 84.3771 80.3573 84.5504 80.2937C84.7202 80.2315 84.865 80.168 84.9806 80.1057L85.1579 80.0101L85.3547 79.8881C85.8552 79.606 86.3275 79.2587 86.7612 78.8535C87.1804 78.4623 87.3773 78.0912 87.3462 77.7507C87.3326 77.6016 87.2362 77.4758 87.0519 77.3661L86.7725 77.2066L86.4092 77.0597L85.7917 76.8943L85.5 76.8319L82.4074 76.497L81.8973 76.3826C81.7369 76.3393 81.594 76.2606 81.4691 76.1483C81.3646 76.0788 81.272 75.9794 81.2029 75.8601L81.0845 75.4976L81.0738 75.4017C81.0581 75.2301 81.0912 75.0591 81.1722 74.894C81.2494 74.7362 81.3708 74.568 81.5336 74.3935C81.6939 74.2218 81.8564 74.065 82.0163 73.9276C82.1764 73.7896 82.3712 73.6332 82.5956 73.4625L82.9149 73.2584L83.2321 73.0696L83.6781 72.8294L84.1581 72.6243C84.6226 72.4315 85.1161 72.2655 85.6257 72.1312C85.8492 72.0763 86.0982 72.0222 86.3673 71.9708C86.6336 71.9198 86.8721 71.8849 87.0763 71.8663C87.6908 71.8106 88.2105 71.8497 88.6206 71.9827C89.05 72.0945 89.2848 72.3119 89.3138 72.6275C89.3272 72.7754 89.2819 72.9449 89.1751 73.1462C89.1172 73.2464 89.0477 73.3394 88.9672 73.425C88.8902 73.5067 88.787 73.6152 88.6577 73.7505L88.4086 73.9271L88.1381 74.1345L87.9299 74.2629L87.581 74.4916L87.2629 74.6399L85.3948 75.6123L85.0628 74.9763L87.177 73.878L87.9489 73.3905L88.1425 73.2446C88.2286 73.1676 88.2958 73.0902 88.3373 73.019C88.3745 72.9555 88.3912 72.9015 88.3872 72.8581C88.3777 72.7547 88.2103 72.6905 88.0713 72.6553C87.8411 72.5967 87.543 72.5835 87.1848 72.6156L86.5079 72.7166L85.6444 72.9263C85.3724 73.0033 85.059 73.1026 84.7156 73.2206C84.37 73.3394 83.9939 73.4842 83.5977 73.6505L83.3737 73.7616L83.1392 73.8994C82.9528 74.0096 82.7584 74.155 82.5621 74.3321C82.3688 74.5063 82.2149 74.6898 82.1044 74.8771L81.9793 75.1347L81.952 75.3871L81.9638 75.5008L82.0655 75.6157L82.2137 75.725L82.4461 75.7908L82.7741 75.8366L82.9224 75.8347L85.5926 76.1217L86.0303 76.1883L86.5313 76.2776C86.9837 76.3718 87.3454 76.5088 87.6084 76.6851C87.9514 76.8675 88.1469 77.1581 88.1822 77.5444C88.2476 78.2609 87.9886 78.8775 87.4123 79.3769C86.8529 79.8615 86.2144 80.31 85.5142 80.7101L85.3719 80.7909C85.2615 80.8544 85.1033 80.926 84.9048 81.0018C84.7091 81.0768 84.4818 81.1535 84.229 81.23L83.5602 81.3846L82.6571 81.5074C82.3767 81.5328 82.1017 81.5454 81.8332 81.5454L81.8326 81.5456ZM91.5273 73.6224L91.7187 73.2469L92.1797 72.3297L92.71 71.2998L93.2131 71.5719L92.6682 72.5887L92.2202 73.5037L92.1171 73.6851L92.0286 73.8786L95.1153 73.2087L95.231 73.7505L91.7767 74.5159L91.4837 75.2797L91.1805 76.1616L90.8158 77.2804L90.5339 78.2857L90.3957 78.8147L90.2848 79.3548L90.2462 79.517L90.2077 79.6793L90.2437 79.6363L90.2915 79.5791L90.5716 79.3017L90.8506 79.0116L91.2339 78.6986L91.6399 78.3433L92.1093 77.9564L92.5559 77.6111L92.841 77.3865L93.1669 77.1712L93.4688 76.9848L93.8207 76.7674L94.1179 77.257L93.7275 77.4915L93.3875 77.6946L93.1501 77.8615L92.9131 78.0289L92.465 78.3611L91.9827 78.7497L91.5168 79.1759L91.1252 79.5429L90.9311 79.746L90.7481 79.9217L90.3888 80.3518L89.9672 80.8276L89.4702 80.621L89.5396 80.2172L89.6113 79.8396L89.6961 79.3153L89.7811 78.9366C89.8288 78.6849 89.8592 78.5343 89.8726 78.4844C89.8856 78.4348 89.9266 78.3007 89.9952 78.0823L90.1125 77.6211C90.1554 77.4143 90.2103 77.2369 90.2764 77.0895L90.6402 75.9832L90.869 75.2866L91.1035 74.6556L89.9312 74.908L89.8277 74.3601L91.3647 74.0218L91.5273 73.6224ZM89.5615 80.5708L89.9449 80.7299L90.3276 80.2978L90.6852 79.8695L90.8748 79.6874L91.0663 79.4869L91.9277 78.6896L92.4141 78.2975L93.3405 77.6279L94.0058 77.2292L93.7936 76.8795L93.2096 77.2401L92.8862 77.454L92.1595 78.0203L91.6919 78.4059L91.2879 78.7595L90.9026 79.0743L90.6308 79.3579L90.2706 79.7315L90.0488 79.9964L90.2056 79.336L90.3157 78.7986L90.4552 78.2653L90.7372 77.2587L91.1029 76.1365L91.4068 75.2534L91.7165 74.4459L95.1345 73.6887L95.0526 73.3058L91.8867 73.993L92.0431 73.6513L92.1492 73.4637L92.5951 72.5531L93.1033 71.6052L92.7449 71.4112L92.2527 72.3669L91.6019 73.6565L91.4243 74.0922L89.9231 74.4228L89.996 74.8109L91.2323 74.5447L90.9461 75.3149L90.3546 77.1149C90.2878 77.2642 90.2346 77.4375 90.1928 77.6375L90.0747 78.1019C90.0055 78.3228 89.965 78.4558 89.9521 78.5048C89.9394 78.5527 89.909 78.7027 89.8618 78.9513L89.7762 79.3326L89.6924 79.8522L89.562 80.5705L89.5615 80.5708ZM89.9897 80.9248L89.3788 80.671L89.6157 79.3022L89.7016 78.9188C89.7496 78.6654 89.78 78.5159 89.7939 78.4634C89.807 78.4136 89.8482 78.2782 89.9174 78.0579L90.0335 77.6009C90.0767 77.3929 90.1336 77.2083 90.2021 77.056L90.7914 75.2613L90.9754 74.7664L89.8665 75.0054L89.7333 74.2979L91.3053 73.9516L91.4548 73.5856L92.6758 71.1889L93.3236 71.5393L92.7404 72.6275L92.2935 73.5398L92.1701 73.7649L95.178 73.1121L95.3279 73.8129L91.8374 74.5861L91.5601 75.3092L91.2576 76.1883L90.8938 77.3057L90.4749 78.8354L90.3586 79.3989L90.5147 79.2441L90.7922 78.9553L91.1828 78.6356L91.5865 78.2823L92.0576 77.8937L92.7909 77.3227L93.1219 77.1036L93.8482 76.6551L94.2303 77.2849L93.4296 77.7646L92.9603 78.0956L92.514 78.4266L92.0342 78.8133L91.1812 79.6025L90.9905 79.8026L90.8047 79.9806L90.4515 80.4042L89.9899 80.9251L89.9897 80.9248ZM95.6625 79.4624L95.7616 79.3871L95.8344 79.314L96.0686 79.1205L96.3009 78.9008L96.7785 78.4596L97.2743 77.9242L97.9519 77.2001L98.528 76.525L98.9543 75.9563L99.3769 75.3482L99.7937 74.674L100.239 73.8783L100.74 74.1243L96.5332 84.7884L96.0182 84.5814L99.1925 76.5686L99.0405 76.7376L98.9106 76.9083L98.3364 77.5846L97.6865 78.3073L97.1648 78.8323L96.6908 79.3003L96.4339 79.5359L96.1891 79.7576L95.7569 80.1019L95.2745 80.4778L94.843 79.9605L96.8095 74.0049L97.333 74.1908L95.6622 79.4627L95.6625 79.4624ZM96.1238 84.5359L96.4876 84.6821L100.636 74.1642L100.273 73.9855L99.8651 74.7137L99.4465 75.3908L99.0215 76.0027L98.5934 76.5737L98.0143 77.2531L96.8386 78.515L96.1248 79.1798L95.7119 79.5273L95.507 79.6828L97.2319 74.2408L96.8609 74.1091L94.9348 79.9427L95.2867 80.3649L96.1383 79.6938L96.6357 79.2404L97.6288 78.2498L98.2755 77.5301L98.8483 76.8558L98.9757 76.6884L99.4356 76.176L96.1236 84.5362L96.1238 84.5359ZM96.5793 84.8945L95.9126 84.6264L98.929 77.0122L98.3988 77.6371L97.7475 78.3614L96.7483 79.358L96.2443 79.8178L95.2626 80.5901L94.7516 79.9776L96.7584 73.9L97.4351 74.1403L95.8265 79.2156L96.0167 79.058L96.7234 78.4001L97.8927 77.1447L98.466 76.4722L98.8894 75.9076L99.3102 75.3019L99.7244 74.6316L100.206 73.7715L100.844 74.0847L96.5796 84.8948L96.5793 84.8945ZM103.533 71.8175L103.168 72.898L103.082 73.1177L102.998 73.3509L102.703 74.2932L102.371 75.3555L102.038 76.499L101.771 77.4909L101.714 77.7346L101.641 77.9534L101.429 78.8206L101.197 79.765L100.658 79.6302L100.874 78.7506L101.063 77.9248L101.133 77.6369L101.22 77.3398L101.5 76.3339L101.837 75.2046L102.152 74.1547L102.454 73.2397L102.535 72.9674L102.642 72.6795L103.022 71.6114L103.482 70.4035L103.991 70.5962L103.533 71.8176L103.533 71.8175ZM100.757 79.571L101.137 79.6661L101.562 77.9342L101.636 77.709L101.692 77.4723L101.959 76.4779L102.293 75.3327L102.92 73.3265L103.092 72.8686L103.456 71.789L103.885 70.6433L103.529 70.5084L103.097 71.64L102.611 72.9955L102.532 73.2628L102.23 74.18L101.577 76.3574L101.141 77.9443L100.953 78.7687L100.756 79.5712L100.757 79.571ZM101.257 79.8637L100.56 79.6895L100.795 78.731L101.054 77.6174L101.141 77.3168L101.421 76.312L102.074 74.1311L102.457 72.944L102.565 72.6509L102.945 71.5836L103.435 70.2981L104.096 70.5482L103.61 71.8444L103.246 72.9237L103.075 73.3783L102.45 75.3794L102.117 76.5215L101.794 77.7529L101.719 77.9786L101.258 79.8634L101.257 79.8637ZM103.622 76.7374L103.709 76.6763C104.272 76.4395 104.795 76.1515 105.278 75.8116C105.76 75.4719 105.972 74.9777 105.913 74.3294C105.904 74.2332 105.875 74.1629 105.827 74.1188C105.778 74.0747 105.719 74.0554 105.648 74.0618C105.507 74.0747 105.326 74.1846 105.105 74.3912C104.883 74.5978 104.646 74.8682 104.392 75.202L104.131 75.5584L103.876 75.9816L103.445 76.8065L103.336 77.0831L103.24 77.3449L103.219 77.4002L103.14 77.7135L103.089 78.0247L103.048 78.3082L103.072 78.5723C103.087 78.731 103.127 78.8628 103.195 78.9673C103.262 79.0724 103.387 79.1522 103.569 79.2065L103.648 79.1995L103.727 79.1922L103.859 79.1802L103.986 79.1278C104.14 79.0596 104.277 78.9621 104.398 78.8339L104.772 78.4212L105.099 77.9318L105.238 77.7031L105.729 77.8443L105.582 78.1226C105.538 78.2148 105.481 78.3193 105.412 78.4361C105.344 78.5528 105.269 78.6589 105.19 78.7544C105.041 78.9626 104.836 79.1709 104.573 79.3802C104.352 79.577 104.076 79.6906 103.743 79.7206L103.691 79.7253L103.639 79.73L103.52 79.7408L103.455 79.7469C103.134 79.7139 102.891 79.5916 102.727 79.3804C102.562 79.1693 102.467 78.9318 102.443 78.6676L102.41 78.3114C102.405 78.2499 102.405 78.2012 102.41 78.1652C102.416 78.1293 102.439 78.0384 102.478 77.8928C102.52 77.6675 102.594 77.4122 102.701 77.1274L102.776 76.9346L102.852 76.7414C102.968 76.4645 103.066 76.2492 103.145 76.0961C103.223 75.9423 103.341 75.7521 103.498 75.525C103.613 75.3369 103.737 75.1481 103.871 74.9587C103.981 74.8065 104.104 74.6474 104.239 74.4797C104.374 74.3121 104.503 74.1693 104.625 74.0519C104.747 73.9344 104.891 73.8147 105.057 73.6933C105.33 73.4822 105.572 73.3669 105.783 73.3476C105.958 73.3316 106.103 73.3826 106.215 73.5005C106.328 73.6186 106.426 73.8415 106.509 74.1692L106.514 74.2218L106.521 74.3008C106.584 74.9931 106.39 75.5364 105.939 75.9304C105.529 76.286 105.024 76.6232 104.424 76.9425L104.08 77.1064L103.737 77.2704L103.518 76.7735L103.621 76.7377L103.622 76.7374ZM105.674 74.1421C105.668 74.1421 105.662 74.1424 105.656 74.143C105.572 74.1505 105.418 74.2101 105.161 74.4507C104.944 74.6533 104.707 74.9226 104.457 75.2511L104.197 75.6065L103.946 76.0236L103.626 76.635L103.663 76.6096C104.233 76.368 104.755 76.0798 105.231 75.7451C105.692 75.4203 105.888 74.9596 105.832 74.337C105.825 74.262 105.805 74.209 105.772 74.1789C105.744 74.154 105.713 74.1419 105.674 74.1419V74.1421ZM105.845 73.426C105.827 73.426 105.809 73.4269 105.79 73.4285C105.597 73.4462 105.367 73.5569 105.107 73.7575C104.945 73.8761 104.802 73.9944 104.682 74.1103C104.563 74.225 104.435 74.3664 104.303 74.5304C104.168 74.6977 104.044 74.858 103.937 75.0061C103.806 75.1924 103.682 75.3813 103.567 75.5673C103.412 75.7937 103.295 75.9826 103.217 76.1329C103.139 76.2846 103.042 76.4996 102.927 76.7726L102.777 77.1568C102.673 77.4356 102.599 77.6885 102.559 77.9074C102.509 78.092 102.495 78.1554 102.492 78.1772C102.487 78.2067 102.487 78.2493 102.492 78.3038L102.525 78.6603C102.547 78.9075 102.637 79.1331 102.792 79.3303C102.944 79.5252 103.164 79.6349 103.464 79.666L103.736 79.6396C104.049 79.6112 104.312 79.5036 104.519 79.3195C104.778 79.1127 104.981 78.9077 105.124 78.707C105.204 78.611 105.276 78.5075 105.343 78.3946C105.41 78.2799 105.466 78.1763 105.509 78.0873L105.611 77.8948L105.276 77.7988L105.17 77.9741L104.84 78.4666L104.459 78.8883C104.33 79.0247 104.183 79.1299 104.02 79.2022L103.866 79.2612L103.561 79.2889L103.546 79.2844C103.345 79.2244 103.204 79.1325 103.126 79.0111C103.052 78.8962 103.007 78.7509 102.991 78.5795L102.967 78.3155L103.061 77.7001L103.165 77.3151L103.369 76.7767L103.804 75.9438L104.061 75.5165L104.326 75.1539C104.583 74.8167 104.826 74.5406 105.049 74.3315C105.286 74.11 105.48 73.9953 105.641 73.9807C105.734 73.9717 105.817 73.9989 105.882 74.0584C105.946 74.1167 105.984 74.2055 105.995 74.3219C106.056 74.9982 105.831 75.5216 105.325 75.8778C104.84 76.2194 104.307 76.5135 103.742 76.751L103.629 76.821L103.778 77.1601L104.39 76.8687C104.978 76.555 105.483 76.218 105.887 75.8687C106.314 75.4945 106.501 74.9693 106.44 74.3076L106.428 74.1763C106.351 73.8765 106.259 73.6638 106.157 73.5562C106.073 73.4687 105.971 73.4256 105.845 73.4256L105.845 73.426ZM103.462 79.828C103.105 79.7925 102.841 79.659 102.663 79.4304C102.489 79.2081 102.387 78.9541 102.362 78.675L102.33 78.3185C102.323 78.2501 102.324 78.1956 102.33 78.1525C102.334 78.1281 102.345 78.0722 102.4 77.8712C102.44 77.6497 102.516 77.3876 102.625 77.0986L102.776 76.7114C102.893 76.433 102.992 76.2139 103.072 76.0584C103.153 75.902 103.273 75.7072 103.431 75.4787C103.544 75.2936 103.671 75.1014 103.805 74.9117C103.914 74.7604 104.039 74.5979 104.176 74.4281C104.312 74.259 104.444 74.1123 104.568 73.9932C104.694 73.8722 104.842 73.7491 105.009 73.6274C105.292 73.4091 105.55 73.2869 105.775 73.2665C105.977 73.2484 106.144 73.3083 106.274 73.4442C106.398 73.5741 106.501 73.8046 106.588 74.1493L106.602 74.2932C106.668 75.0093 106.463 75.5805 105.993 75.9913C105.58 76.349 105.065 76.6928 104.463 77.0139L103.696 77.3796L103.491 76.9115L103.295 77.4297L103.22 77.7328L103.129 78.3193L103.154 78.5644C103.167 78.7096 103.204 78.8302 103.263 78.923C103.318 79.0084 103.423 79.0756 103.577 79.1239L103.839 79.1001L103.956 79.0522C104.096 78.9897 104.226 78.8972 104.339 78.7777L104.712 78.3665L105.032 77.8866L105.2 77.6077L105.848 77.7933L105.655 78.1602C105.611 78.2507 105.553 78.3581 105.483 78.4769C105.412 78.5971 105.335 78.7077 105.253 78.806C105.105 79.014 104.892 79.2304 104.624 79.4435C104.394 79.6485 104.1 79.7696 103.751 79.8014L103.463 79.8275L103.462 79.828ZM113.165 46.2373C102.419 31.6655 86.2466 24.1705 69.9174 23.749V21.6818C69.9174 21.2579 70.146 20.8628 70.5209 20.663C71.1811 20.3113 71.6394 19.9218 71.9272 19.6414C72.1933 19.3824 72.4984 19.0801 72.7547 18.5887C73.1005 17.9258 73.1441 17.3287 73.1682 16.938C73.1967 16.4816 73.2491 15.4188 72.6195 14.319C72.5347 14.1708 72.1507 13.5208 71.3867 12.9547C70.7746 12.501 70.2142 12.3204 70.0863 12.281C69.3726 12.0597 68.7815 12.0905 68.4228 12.1124C68.1881 12.1267 67.7968 12.1531 67.3083 12.3061C67.1228 12.364 66.6372 12.5299 66.1007 12.9041C65.9698 12.9953 65.4554 13.3645 64.9777 14.0243C64.796 14.2753 64.5162 14.6683 64.3359 15.2536C64.2872 15.4114 64.1923 15.7577 64.1838 16.2053C64.1778 16.5272 64.1765 16.7778 64.3273 17.039C64.444 17.2411 64.5861 17.3826 64.6663 17.4482C64.7725 17.5346 64.895 17.6085 65.0619 17.6622C65.2912 17.736 65.4873 17.7112 65.6022 17.6902C65.7007 17.6721 65.9203 17.6181 66.1343 17.4517C66.2032 17.3981 66.3431 17.2762 66.4636 17.039C66.7186 16.5376 66.5352 16.2126 66.6578 15.7843C66.728 15.5389 66.8998 15.1836 67.4526 14.8577C67.6271 14.7476 68.0793 14.4536 68.718 14.4282C68.8954 14.4215 69.5027 14.4061 70.0692 14.8241C70.1587 14.89 70.5218 15.1695 70.7361 15.6747C70.8726 15.9962 70.8906 16.2713 70.905 16.4915C70.9215 16.7419 70.9057 16.9939 70.8783 17.1801C70.8554 17.3362 70.8006 17.4841 70.7178 17.6187C70.6958 17.6542 70.6711 17.6913 70.6435 17.7296C70.4425 18.0038 70.2168 18.1566 70.1114 18.2264C69.3621 18.7239 68.9086 18.9257 68.3637 19.3718C68.2068 19.5 67.9966 19.6859 67.8062 19.9781C67.7843 20.0115 67.7634 20.0443 67.7437 20.0759C67.627 20.2635 67.5707 20.4821 67.5751 20.7027C67.576 20.7531 67.5773 20.8035 67.5782 20.8537C67.5907 21.4679 67.5898 22.8428 67.5863 23.7405C51.0578 23.9952 34.6256 31.4904 23.7503 46.237C23.0443 47.1931 23.0933 48.4035 23.8256 48.8919C24.3304 49.2288 25.012 49.1634 25.6022 48.7991C25.8964 48.6608 26.1746 48.4356 26.3921 48.1371C27.5718 46.5165 28.8262 44.9929 30.1404 43.5568C30.6457 44.2846 31.1782 45.0546 31.2835 45.1619C32.526 43.9895 33.4099 42.9036 34.7871 41.6583C34.6812 41.5178 33.875 41.0299 33.1175 40.5661C35.2408 38.6182 37.4911 36.8773 39.8437 35.3466C39.9988 36.0179 40.2032 37.0624 40.3186 37.4307C41.9158 36.4379 43.8217 35.2927 45.5672 34.3869C45.279 34.0307 44.5749 33.2649 44.1883 32.812C46.6631 31.5262 49.2235 30.4531 51.8405 29.5883C51.8349 30.2348 51.8613 31.119 51.844 31.6797C54.1185 31.0093 55.9505 30.5839 58.4446 30.0183C58.1309 29.516 57.4765 28.7092 57.0974 28.1485C59.8976 27.5357 62.7396 27.1494 65.5927 26.9959C65.348 27.607 64.9969 28.4018 64.7903 28.9484C67.7054 28.8755 69.5621 28.8166 72.6463 29.1244C72.4705 28.5934 72.2949 27.6752 72.119 27.0485C74.7866 27.232 77.4424 27.6143 80.0601 28.2001C79.6766 28.7579 79.0508 29.532 78.7473 30.0183C81.2412 30.5839 83.0733 31.0095 85.3475 31.6797C85.3313 31.1449 85.3541 30.3177 85.3513 29.6808C87.9396 30.5524 90.4723 31.6252 92.9192 32.9093C92.5216 33.3682 91.8934 34.0544 91.6243 34.3869C93.3701 35.2927 95.2757 36.4379 96.8731 37.4307C96.9796 37.0902 97.162 36.1732 97.3115 35.506C99.6178 37.0251 101.826 38.7448 103.909 40.6669C103.203 41.0987 102.502 41.528 102.404 41.6581C103.782 42.9033 104.665 43.9893 105.908 45.1618C106.005 45.0629 106.465 44.4016 106.931 43.7293C108.188 45.115 109.391 46.581 110.523 48.137C110.741 48.4353 111.019 48.6607 111.313 48.799C111.903 49.1632 112.585 49.2286 113.09 48.8918C113.822 48.4034 113.871 47.1929 113.165 46.2368L113.165 46.2373Z" fill="white"/>
</svg>
