<svg width="138" height="100" viewBox="0 0 138 100" fill="none" xmlns="http://www.w3.org/2000/svg">
<path d="M49.2062 20.8941C49.1096 22.5351 50.3651 23.9437 52.0106 24.04C53.6562 24.1363 55.0683 22.8842 55.1649 21.2431C55.2616 19.6017 54.0058 18.1935 52.3604 18.0972C50.715 18.0007 49.3027 19.2532 49.2062 20.8942V20.8941ZM35.1156 27.0913C35.0215 28.6927 36.2466 30.0673 37.8525 30.1612C39.4582 30.2554 40.836 29.033 40.9305 27.4318C41.0248 25.8302 39.7995 24.4558 38.1936 24.3617C36.588 24.2678 35.2097 25.4898 35.1156 27.0913ZM25.2804 35.3021C25.198 36.7023 26.2692 37.904 27.6731 37.9863C29.077 38.0684 30.2819 36.9998 30.3643 35.5996C30.4466 34.1996 29.3754 32.9978 27.9717 32.9158C26.5677 32.8335 25.3629 33.9019 25.2804 35.3021ZM68.1393 30.5092C67.6446 31.8729 66.7759 34.3439 66.228 35.8646C66.1037 36.2095 65.9043 36.5251 65.6268 36.7656C65.6246 36.7674 65.6222 36.7694 65.6202 36.7712C65.4712 36.8995 65.201 37.126 64.7769 37.2362C64.6309 37.2739 64.3673 37.3238 64.0447 37.2803C63.8674 37.2566 63.5841 37.2185 63.3123 37.0147C63.133 36.8803 63.0441 36.7376 62.9131 36.528C62.6726 36.143 62.599 35.8039 62.58 35.7089C62.5799 35.7071 62.5794 35.7053 62.579 35.7033C62.5293 35.4492 62.5576 35.186 62.6453 34.9423C63.0745 33.752 63.8174 31.6195 64.1833 30.6195C65.5075 30.5606 66.6033 30.5092 68.1393 30.5092ZM59.2146 31.5276C60.1887 33.055 61.4306 34.8877 61.8535 35.532C61.9224 35.637 62.1322 35.946 62.2084 36.395C62.2478 36.6255 62.3189 37.0446 62.0975 37.4574C61.9602 37.7133 61.7665 37.8624 61.6316 37.9662C61.3665 38.1702 61.1125 38.2606 60.988 38.2982C60.7983 38.3557 60.4399 38.4642 60.0117 38.3426C59.6439 38.2378 59.4166 38.0149 59.3016 37.9C59.0992 37.6969 59.0883 37.5931 58.7912 37.1032C58.6668 36.898 58.516 36.6787 58.2144 36.2401C57.8301 35.6816 57.8062 35.6805 57.5708 35.3325C57.1955 34.7777 57.1514 34.6246 56.8164 34.0933C56.6295 33.7972 56.0791 32.8328 55.6853 32.3371C56.9427 32.1084 57.9573 31.7562 59.2148 31.5275L59.2146 31.5276ZM55.3771 32.42C55.1478 34.3305 54.8267 36.8525 54.5974 38.763C54.5311 39.1122 54.3957 39.3208 54.3079 39.4294C54.2293 39.5268 54.1247 39.6649 53.9117 39.8084C53.6258 40.0015 53.4364 40.0483 53.2661 40.0908C52.9395 40.1728 52.6539 40.083 52.4674 40.0243C52.2086 39.9432 52.0259 39.8245 51.9348 39.7588C51.7917 39.6559 51.4941 39.4417 51.3577 39.0506C51.3116 38.9176 51.2962 38.8003 51.2911 38.7187C51.454 37.0809 51.587 35.1889 51.7496 33.551C53.0619 33.1077 54.2084 32.678 55.3771 32.4198V32.42ZM46.6178 35.6922L50.3254 39.3393C50.5677 39.5777 50.7635 39.8586 50.9027 40.1684C50.9542 40.3363 51.0592 40.764 50.8694 41.2048C50.7623 41.4537 50.5985 41.6211 50.5144 41.7066C50.2934 41.9313 50.072 42.0468 49.9819 42.09C49.8147 42.1705 49.5962 42.2755 49.3013 42.2669C49.0075 42.2587 48.7979 42.1422 48.6504 42.0606C48.4368 41.942 47.8248 41.3217 47.6074 41.131C47.1231 40.7058 47.0026 40.5522 46.5535 40.1352C46.1214 39.7338 46.1001 39.7527 45.6548 39.3495C45.2864 39.0159 45.1822 38.8838 44.6449 38.3645C44.356 38.0853 44.1169 37.8606 43.9607 37.7155C43.898 37.675 43.8237 37.6767 43.7795 37.7155C43.7482 37.7427 43.7407 37.7807 43.7389 37.7964C43.7501 38.0004 43.7626 38.206 43.776 38.4126C43.8086 38.9151 43.8471 39.4095 43.8907 39.8954C44.0423 41.1447 44.194 42.3938 44.3456 43.643C44.3712 43.898 44.3421 44.1044 44.3122 44.2403C44.269 44.4382 44.2155 44.6833 44.0127 44.8933C43.884 45.0267 43.7441 45.0947 43.6356 45.1478C43.581 45.1745 43.4225 45.2478 43.1919 45.2915C42.9493 45.3374 42.6065 45.4025 42.2819 45.2362C42.1454 45.1663 42.0505 45.0915 41.8828 44.9169C41.797 44.8274 41.6525 44.6852 41.5298 44.4635C41.4444 44.3092 41.4138 44.1562 41.3832 44.0521C41.2316 42.7979 41.08 41.5439 40.9283 40.2898C40.873 39.8819 40.8174 39.4743 40.7621 39.0664C42.6142 37.8134 44.5697 36.6854 46.6177 35.6919L46.6178 35.6922ZM36.3323 42.4757C37.9191 43.3565 39.506 44.2372 41.0928 45.118C41.3225 45.2732 41.4862 45.4354 41.5956 45.5606C41.7515 45.7388 41.8819 45.8879 41.9507 46.1213C42.0244 46.3716 41.9863 46.5786 41.9507 46.7705C41.9097 46.9922 41.8433 47.3517 41.5366 47.6558C41.4761 47.7155 41.2623 47.9165 40.9152 48.0099C40.8132 48.0374 40.3346 48.1541 39.8796 47.8918C39.7581 47.8218 38.0049 46.7045 37.4832 46.4461C37.1179 46.2651 36.7715 46.1097 36.2405 45.7969C35.6762 45.4643 34.983 45.118 34.983 45.118C34.9179 45.1669 34.979 45.3522 35.0163 45.4611C35.1356 45.81 35.2875 46.1829 35.6597 47.1433C36.3439 48.9071 36.6858 49.7892 36.7915 49.987C36.8342 50.0666 36.9289 50.2387 36.9691 50.485C37.018 50.7835 36.9622 51.042 36.9248 51.2153C36.8871 51.3903 36.862 51.5062 36.7805 51.647C36.6673 51.8425 36.5195 51.9258 36.4229 51.9972C36.3116 52.0795 36.1148 52.1665 35.7683 52.2067C35.7011 52.2145 35.3851 52.2517 35.0341 52.0912C34.9665 52.0602 34.7694 51.9923 34.5028 51.619C34.1756 51.1607 34.0096 50.7056 33.9846 50.6177C33.8654 50.1988 33.513 49.0971 32.3688 46.4034C33.6047 45.013 34.9282 43.7021 36.3325 42.4757H36.3323ZM11.9883 57.652H14.9172V63.5844C14.9172 63.8242 14.9596 64.0486 15.045 64.2586C15.1299 64.4682 15.2501 64.6507 15.4055 64.8052C15.5607 64.9604 15.7408 65.0826 15.9463 65.1722C16.1513 65.2621 16.3692 65.3072 16.5997 65.3072C16.8299 65.3072 17.0451 65.2621 17.2454 65.1722C17.4457 65.0826 17.6209 64.9604 17.7711 64.8052C17.9214 64.6507 18.0391 64.4708 18.1243 64.2662C18.2091 64.0614 18.2518 63.8444 18.2518 63.6145V58.281C18.2518 58.0916 18.1917 57.8818 18.0715 57.652H21.0004V63.854C21.0004 64.4734 20.8879 65.0578 20.6625 65.6068C20.4372 66.1562 20.124 66.6357 19.7236 67.045C19.3232 67.4546 18.855 67.7767 18.3192 68.0113C17.7833 68.2457 17.2102 68.3632 16.5994 68.3632C16.1886 68.3632 15.7933 68.3083 15.4125 68.1984C15.0321 68.0887 14.6766 67.9364 14.3462 67.7417C14.0156 67.5468 13.7177 67.3125 13.4526 67.0375C13.187 66.7631 12.9591 66.4583 12.769 66.1237C12.5786 65.7893 12.4309 65.4297 12.3257 65.045C12.2206 64.6607 12.1681 64.2637 12.1681 63.854V58.281C12.1681 58.1911 12.1554 58.1012 12.1304 58.0116C12.1053 57.9218 12.0577 57.8019 11.9878 57.652H11.9883ZM25.5217 57.652L28.9915 63.7192V58.2962C28.9915 58.1065 28.9315 57.8914 28.8113 57.6519H31.7552V68.2135H28.9013L25.4165 62.146V68.2135H22.6678V58.2961C22.6678 58.1064 22.6025 57.8912 22.4725 57.6517H25.5216L25.5217 57.652ZM36.0812 57.652V68.2136H33.3324V58.2962C33.3324 58.1065 33.2674 57.8914 33.1372 57.6519H36.0812V57.652ZM45.6194 57.652V60.2585H43.081V68.2136H40.332V60.2585H37.8087V58.2962C37.8087 58.1065 37.7434 57.8914 37.6133 57.6519H45.6192L45.6194 57.652ZM54.046 57.652V60.2585H49.9604V61.7416H53.4001V64.3334H49.9604V65.6218H54.2713V68.2136H47.2114V58.2962C47.2114 58.1065 47.1463 57.8914 47.0163 57.6519H54.046V57.652ZM59.123 65.3971C59.4633 65.3971 59.7786 65.3323 60.0691 65.2025C60.3595 65.0726 60.6122 64.8952 60.8276 64.6704C61.043 64.4459 61.2156 64.1837 61.3459 63.884C61.4759 63.5844 61.5412 63.2602 61.5412 62.9102C61.5412 62.5805 61.4761 62.2662 61.3459 61.9663C61.2155 61.6666 61.0404 61.4046 60.8202 61.1799C60.6 60.9552 60.3444 60.7805 60.0541 60.6556C59.7635 60.5308 59.4532 60.4684 59.1228 60.4684H58.642V65.3971H59.1228H59.123ZM59.123 57.652C59.5936 57.652 60.0491 57.7144 60.4898 57.8393C60.9302 57.9643 61.3409 58.1439 61.7215 58.3784C62.102 58.6132 62.4499 58.8905 62.7654 59.2099C63.0809 59.5297 63.3512 59.884 63.5765 60.2735C63.8018 60.6632 63.977 61.0804 64.1022 61.5246C64.2274 61.9689 64.29 62.4308 64.29 62.9102C64.29 63.3996 64.2274 63.8689 64.1022 64.3184C63.977 64.7678 63.8041 65.1897 63.584 65.5844C63.3637 65.9789 63.0958 66.3384 62.7805 66.663C62.465 66.9875 62.1145 67.2647 61.7288 67.4943C61.3435 67.7242 60.9328 67.9013 60.4973 68.0262C60.0618 68.1508 59.6035 68.2135 59.123 68.2135H55.8935V58.2961C55.8935 58.1064 55.8282 57.8912 55.6984 57.6517H59.123V57.652ZM86.9296 20.8939C87.0262 22.535 85.7707 23.9436 84.1251 24.0399C82.4796 24.1362 81.0674 22.884 80.9709 21.243C80.8741 19.6016 82.1299 18.1933 83.7753 18.097C85.4207 18.0006 86.8331 19.253 86.9296 20.8941V20.8939ZM101.02 27.0912C101.114 28.6925 99.8892 30.0672 98.2833 30.1611C96.6777 30.2552 95.2997 29.0329 95.2053 27.4317C95.1112 25.83 96.3363 24.4557 97.9422 24.3615C99.5479 24.2676 100.926 25.4897 101.02 27.0912ZM111.558 35.1452C111.64 36.5453 110.569 37.7471 109.165 37.8293C107.761 37.9114 106.556 36.8429 106.474 35.4425C106.391 34.0425 107.462 32.841 108.866 32.7588C110.27 32.6765 111.475 33.745 111.558 35.1452ZM77.9783 31.5275C77.0043 33.0549 75.7624 34.8875 75.3396 35.5318C75.2707 35.6368 75.0609 35.9458 74.9847 36.3948C74.9453 36.6253 74.8742 37.0445 75.0956 37.4573C75.2329 37.7132 75.4266 37.8623 75.5614 37.966C75.8266 38.1701 76.0806 38.2605 76.2051 38.298C76.3948 38.3555 76.7532 38.464 77.1814 38.3425C77.5492 38.2376 77.7766 38.0147 77.8915 37.8999C78.0939 37.6967 78.1048 37.593 78.4019 37.1031C78.5262 36.8978 78.6771 36.6786 78.9787 36.2399C79.363 35.6814 79.3869 35.6803 79.6223 35.3324C79.9976 34.7775 80.0417 34.6244 80.3767 34.0931C80.5636 33.7971 81.114 32.8326 81.5078 32.3369C80.2504 32.1082 79.2358 31.756 77.9783 31.5273V31.5275ZM81.8158 32.4198C82.0451 34.3303 82.3662 36.8523 82.5955 38.7628C82.6619 39.112 82.7972 39.3206 82.8851 39.4292C82.9636 39.5266 83.0683 39.6648 83.2812 39.8082C83.5671 40.0013 83.7566 40.0482 83.9268 40.0906C84.2534 40.1726 84.539 40.0829 84.7256 40.0241C84.9843 39.943 85.167 39.8244 85.2581 39.7586C85.4014 39.6558 85.6988 39.4416 85.8352 39.0504C85.8813 38.9174 85.8967 38.8001 85.9019 38.7186C85.739 37.0807 85.6059 35.1888 85.4433 33.5509C84.1311 33.1075 82.9845 32.6779 81.8158 32.4197V32.4198ZM72.9364 30.7887C71.3685 30.6531 70.2362 30.5557 68.8825 30.5262C69.4266 31.8519 70.4071 34.4009 70.8795 35.8638C70.9261 36.0081 70.9718 36.152 71.017 36.2956C71.1259 36.6425 71.3282 36.9569 71.6168 37.1787C71.6191 37.1807 71.6217 37.1825 71.6241 37.1843C71.9146 37.406 72.114 37.4576 72.2996 37.5235C72.8897 37.7328 73.4639 37.4436 73.5644 37.3908C73.9034 37.2123 74.0922 36.9637 74.1856 36.8376C74.2262 36.7831 74.4066 36.5342 74.5186 36.1515C74.6188 35.8086 74.624 35.4956 74.6008 35.2542C74.5865 35.1063 74.55 34.9628 74.4988 34.8233C74.0896 33.7105 73.301 31.8094 72.9365 30.7888L72.9364 30.7887ZM90.5751 35.6921L86.8675 39.3392C86.6253 39.5776 86.4294 39.8585 86.2903 40.1682C86.2387 40.3362 86.1338 40.7639 86.3235 41.2046C86.4306 41.4536 86.5945 41.6209 86.6785 41.7064C86.8996 41.9312 87.1209 42.0466 87.2111 42.0898C87.3783 42.1703 87.5967 42.2753 87.8916 42.2668C88.1854 42.2586 88.3952 42.142 88.5425 42.0605C88.7561 41.9418 89.3683 41.3215 89.5855 41.1309C90.0697 40.7056 90.1904 40.5521 90.6395 40.1351C91.0715 39.7337 91.0928 39.7526 91.5381 39.3494C91.9065 39.0157 92.0107 38.8836 92.548 38.3644C92.837 38.0852 93.076 37.8605 93.2322 37.7153C93.2949 37.6748 93.3692 37.6765 93.4134 37.7153C93.4447 37.7425 93.4522 37.7806 93.454 37.7963C93.4429 38.0003 93.4305 38.2058 93.4169 38.4124C93.3843 38.915 93.3459 39.4093 93.3022 39.8953C93.1506 41.1446 92.999 42.3937 92.8473 43.6428C92.8217 43.8978 92.8508 44.1043 92.8807 44.2401C92.9239 44.4381 92.9775 44.6832 93.1802 44.8932C93.3089 45.0266 93.4488 45.0946 93.5573 45.1477C93.6119 45.1743 93.7704 45.2477 94.0011 45.2913C94.2436 45.3373 94.5864 45.4024 94.911 45.2361C95.0476 45.1661 95.1424 45.0914 95.3101 44.9167C95.396 44.8273 95.5405 44.685 95.6631 44.4633C95.7485 44.3091 95.7792 44.156 95.8097 44.0519C95.9613 42.7978 96.113 41.5438 96.2646 40.2896C96.32 39.8817 96.3755 39.4741 96.4309 39.0662C94.5788 37.8133 92.6232 36.6853 90.5753 35.6918L90.5751 35.6921ZM100.861 42.4755C99.2738 43.3563 97.687 44.2371 96.1002 45.1179C95.8704 45.2731 95.7067 45.4352 95.5974 45.5605C95.4414 45.7386 95.311 45.8877 95.2422 46.1211C95.1685 46.3714 95.2067 46.5785 95.2422 46.7703C95.2832 46.992 95.3496 47.3515 95.6564 47.6557C95.7166 47.7153 95.9307 47.9163 96.2776 48.0097C96.3796 48.0373 96.8582 48.154 97.3132 47.8917C97.4347 47.8217 99.1879 46.7043 99.7096 46.446C100.075 46.2649 100.421 46.1096 100.952 45.7968C101.517 45.4642 102.21 45.1179 102.21 45.1179C102.275 45.1667 102.214 45.352 102.177 45.461C102.057 45.8098 101.905 46.1827 101.533 47.1431C100.849 48.9069 100.507 49.7891 100.401 49.9869C100.359 50.0665 100.264 50.2385 100.224 50.4849C100.175 50.7834 100.231 51.0419 100.268 51.2152C100.306 51.3901 100.331 51.5061 100.412 51.6468C100.525 51.8423 100.673 51.9257 100.77 51.997C100.881 52.0794 101.078 52.1664 101.424 52.2066C101.492 52.2143 101.808 52.2516 102.159 52.0911C102.226 52.06 102.423 51.9922 102.69 51.6188C103.017 51.1605 103.183 50.7055 103.208 50.6175C103.327 50.1987 103.68 49.097 104.824 46.4032C103.588 45.0129 102.265 43.702 100.86 42.4755H100.861ZM71.9805 57.6519V62.5055H75.1348V58.2809C75.1348 58.101 75.0747 57.8914 74.9546 57.6519H77.9135V68.1983H75.1348V65.1124H71.9805V68.1983H69.2315V58.2809C69.2315 58.191 69.219 58.101 69.194 58.0114C69.1688 57.9216 69.1212 57.8018 69.0514 57.6519H71.9803H71.9805ZM82.1344 64.1685H83.7564L82.9453 59.4045L82.1342 64.1685H82.1344ZM80.6021 58.3408C80.6121 58.3011 80.6195 58.2611 80.6247 58.2211C80.6298 58.1814 80.6324 58.1412 80.6324 58.101C80.6324 57.9717 80.5973 57.8215 80.5271 57.6519H85.1686L87.2715 68.2132H84.4626L84.2074 66.76H81.6837L81.4433 68.2132H78.6344L80.6021 58.3407V58.3408ZM91.7924 57.6519L95.2622 63.7191V58.2961C95.2622 58.1064 95.2021 57.8912 95.082 57.6517H98.0258V68.2133H95.172L91.6872 62.1459V68.2133H88.9385V58.2959C88.9385 58.1062 88.8732 57.8911 88.7433 57.6516H91.7923L91.7924 57.6519ZM98.762 62.8352C98.762 62.3459 98.8244 61.8741 98.9498 61.4197C99.0749 60.9654 99.2503 60.5407 99.4752 60.146C99.7008 59.7518 99.9711 59.3923 100.287 59.0676C100.602 58.7431 100.955 58.4634 101.346 58.2287C101.736 57.9941 102.154 57.8142 102.6 57.6893C103.045 57.5647 103.508 57.502 103.989 57.502C104.58 57.502 105.151 57.5973 105.701 57.7868C106.252 57.9766 106.778 58.2661 107.279 58.6556L105.867 61.442C105.807 61.3623 105.774 61.3174 105.769 61.3072C105.764 61.2973 105.756 61.2873 105.747 61.2773C105.526 60.9978 105.258 60.7881 104.943 60.648C104.627 60.5085 104.304 60.4383 103.974 60.4383C103.644 60.4383 103.335 60.501 103.05 60.6256C102.765 60.7505 102.517 60.9203 102.307 61.1352C102.096 61.3498 101.931 61.6045 101.811 61.8989C101.691 62.1939 101.631 62.5057 101.631 62.8354C101.631 63.1748 101.691 63.4896 101.811 63.7792C101.931 64.0688 102.096 64.3211 102.307 64.5356C102.517 64.7505 102.765 64.9203 103.05 65.0449C103.335 65.1701 103.644 65.2322 103.974 65.2322C104.094 65.2322 104.217 65.2223 104.342 65.2022C104.467 65.1823 104.59 65.1524 104.71 65.1124L104.86 65.0523V63.9887C104.86 63.7991 104.8 63.5894 104.68 63.3595H107.624V68.1983H103.944C103.593 68.1983 103.25 68.161 102.915 68.0861C102.58 68.0113 102.247 67.8988 101.916 67.7491C101.275 67.4593 100.727 67.08 100.271 66.6106C99.8158 66.1409 99.4529 65.5769 99.1824 64.9175C98.9019 64.2385 98.7618 63.5445 98.7618 62.8352H98.762ZM116.126 57.6519V60.2583H112.04V61.7415H115.48V64.3333H112.04V65.6217H116.351V68.2135H109.291V58.2961C109.291 58.1064 109.226 57.8912 109.096 57.6517H116.126L116.126 57.6519ZM120.737 62.6105H121.879C122.039 62.6105 122.186 62.5807 122.322 62.5206C122.457 62.4607 122.579 62.3783 122.69 62.2735C122.8 62.1685 122.882 62.0439 122.938 61.8991C122.993 61.7544 123.02 61.6018 123.02 61.442C123.02 61.2824 122.993 61.13 122.938 60.9851C122.882 60.8404 122.802 60.7132 122.698 60.6031C122.592 60.4934 122.47 60.4083 122.33 60.3482C122.189 60.2884 122.039 60.2583 121.879 60.2583H120.737V62.6104L120.737 62.6105ZM117.778 57.6517H121.879C122.39 57.6517 122.87 57.7517 123.321 57.9515C123.772 58.1515 124.162 58.421 124.493 58.7604C124.823 59.1002 125.083 59.4999 125.274 59.9589C125.464 60.4187 125.559 60.9129 125.559 61.442C125.559 62.2712 125.319 63.0151 124.838 63.6742L124.718 63.839L124.853 63.9888C125.214 64.3684 125.489 64.8052 125.679 65.2997C125.869 65.7939 125.965 66.3107 125.965 66.8501V68.2135H123.411V66.8501C123.411 66.6304 123.371 66.4182 123.291 66.2134C123.211 66.0089 123.098 65.8339 122.953 65.6891C122.808 65.5444 122.638 65.4271 122.442 65.3371C122.247 65.2472 122.039 65.2023 121.819 65.2023H120.737V68.2135H117.974V58.2961C117.974 58.1065 117.908 57.8915 117.778 57.6517H117.778Z" fill="#1660A5"/>
<path d="M35.5535 84.7549L35.3426 84.3369L35.2394 84.0811L35.1339 83.7991L35.0393 83.4899L34.9711 83.1783L34.887 82.6955L34.8451 82.2356L35.3984 82.1854L35.4321 82.5533L35.4657 82.9213L35.633 83.5553L35.8275 84.0411L36.0936 84.5604C36.4209 84.2833 36.7303 83.9549 37.0221 83.5748C37.1466 83.3959 37.305 83.1473 37.4963 82.8296C37.6413 82.5868 37.7367 82.4233 37.7821 82.3397L38.1002 81.6217L38.3656 80.9087C38.425 80.6913 38.4637 80.5375 38.4822 80.4474C38.5003 80.3578 38.5234 80.2232 38.5511 80.0438C38.6088 79.7119 38.6262 79.4189 38.6032 79.1647C38.5742 78.8493 38.4796 78.5398 38.3193 78.2366C38.1589 77.9329 37.919 77.6767 37.5994 77.4673C37.4407 77.3757 37.2424 77.2876 37.0049 77.2036L36.6955 77.1521L36.3511 77.1569L36.1407 77.1763L35.8431 77.2561C35.6965 77.2958 35.539 77.3632 35.3711 77.458C35.1256 77.5776 34.8889 77.7226 34.6616 77.8933C34.4341 78.0645 34.2071 78.2661 33.981 78.4987C33.5286 78.9638 33.1493 79.4576 32.8435 79.9799C32.7144 80.2128 32.5597 80.5535 32.3802 81.0024C32.3228 81.1493 32.2682 81.3486 32.2162 81.6005C32.1639 81.8526 32.1314 82.0057 32.119 82.06L32.0559 82.675L32.0705 83.2701L32.164 83.8578C32.1791 83.927 32.2048 84.0108 32.2403 84.109C32.2758 84.2076 32.3152 84.2992 32.3582 84.3835C32.4453 84.5607 32.5388 84.7136 32.6391 84.8413C32.7393 84.9692 32.8635 85.0925 33.0117 85.2114C33.1599 85.3306 33.3437 85.4287 33.5634 85.5058C33.771 85.5486 33.9672 85.5617 34.1514 85.545L34.3755 85.5246L34.6617 85.4576L34.8925 85.3686L35.1584 85.2222L35.3975 85.0777L35.6475 84.9056L35.554 84.7549H35.5535ZM37.254 86.2079C37.5368 86.4919 37.9226 86.7894 38.4114 87.0994L38.6199 87.2001L38.8452 87.3389L38.5592 87.8436C37.9624 87.5168 37.4563 87.1638 37.0409 86.7851C36.8555 86.5978 36.6705 86.3906 36.4861 86.1639C36.3013 85.9369 36.112 85.6816 35.9177 85.3975L35.655 85.5754L35.3134 85.7604C35.2042 85.826 35.076 85.8798 34.9294 85.9212L34.646 86.0168L34.4089 86.0384L34.1848 86.0587C33.9478 86.0802 33.7025 86.0626 33.4494 86.0064C33.1963 85.9495 32.9474 85.8441 32.703 85.6893C32.3268 85.4496 32.0383 85.1264 31.8373 84.7202C31.6362 84.3136 31.5139 83.8689 31.4698 83.3866L31.4469 83.1363L31.4191 82.8338L31.4733 82.2583C31.5404 81.8277 31.6508 81.3818 31.8042 80.9214C31.9576 80.4607 32.1425 80.0527 32.3585 79.6966C32.7037 79.0992 33.1617 78.5179 33.7321 77.9531C34.3025 77.3882 34.9186 76.9829 35.5802 76.737L35.9564 76.6229L36.3529 76.5867C36.6523 76.5598 36.9211 76.5836 37.1591 76.6593C37.386 76.7095 37.6497 76.8268 37.9512 77.0113C38.358 77.2837 38.6436 77.5889 38.8079 77.9271C38.9999 78.2807 39.1151 78.6635 39.1528 79.0749L39.1563 79.5519L39.1217 80.0453C39.0658 80.5007 38.9597 80.9392 38.8033 81.3597C38.7404 81.5421 38.6611 81.7434 38.5664 81.9642C38.4714 82.1846 38.3751 82.3922 38.2778 82.5863L38.2444 82.6557L38.2108 82.7252C37.9763 83.1617 37.7126 83.5742 37.4207 83.9626C37.2705 84.1622 37.1106 84.351 36.9411 84.53C36.7716 84.709 36.5794 84.8874 36.3657 85.0658C36.6357 85.5023 36.9318 85.883 37.254 86.2085V86.2079ZM36.6818 77.2319L36.3521 77.2379L36.1477 77.2569L35.8641 77.3343C35.7251 77.3719 35.5729 77.4372 35.4109 77.5286C35.1665 77.6479 34.9322 77.7915 34.7102 77.9583C34.4866 78.1264 34.2608 78.3271 34.0393 78.555C33.5939 79.0128 33.2151 79.5059 32.9138 80.0206C32.7872 80.2496 32.6327 80.5906 32.4555 81.0324C32.4008 81.1725 32.3468 81.3694 32.2957 81.6167C32.2432 81.8697 32.2107 82.0235 32.1979 82.078L32.1367 82.6832L32.1515 83.2679L32.2441 83.8447C32.2572 83.905 32.2819 83.9859 32.3164 84.0811C32.3509 84.1771 32.3893 84.2662 32.4302 84.346C32.515 84.519 32.6066 84.6681 32.7028 84.7908C32.7982 84.9126 32.919 85.0328 33.0624 85.1479C33.2026 85.2606 33.38 85.3549 33.5901 85.4292C33.7786 85.4669 33.9687 85.4795 34.1438 85.4639L34.3678 85.4436L34.6425 85.3783L34.8626 85.2927L35.1185 85.1512L35.3546 85.0082L35.5367 84.8825L35.4805 84.7914L35.2695 84.3737L35.0574 83.8277L34.9612 83.5135L34.8912 83.1956L34.8063 82.7094L34.7562 82.1618L35.4719 82.0968L35.5465 82.9139L35.7116 83.5345L35.9032 84.0107L36.1186 84.4308C36.4115 84.173 36.6932 83.8686 36.957 83.5252C37.0767 83.3533 37.2352 83.1042 37.4259 82.7874C37.5702 82.5463 37.6648 82.3839 37.7101 82.3009L38.0253 81.5887L38.2887 80.8803C38.345 80.6727 38.3839 80.5192 38.4018 80.4313C38.4196 80.3426 38.4425 80.2092 38.4701 80.0311C38.5266 79.7062 38.5438 79.4172 38.5215 79.172C38.4938 78.869 38.4015 78.5669 38.2468 78.2743C38.0938 77.9846 37.8608 77.7358 37.5542 77.5352C37.4043 77.4484 37.2088 77.3622 36.9774 77.2802L36.6818 77.2319ZM33.9951 85.6332C33.8517 85.6332 33.7016 85.6172 33.5466 85.5854C33.3083 85.5023 33.1146 85.3987 32.9602 85.2746C32.8072 85.1515 32.6774 85.0226 32.5745 84.8909C32.4711 84.7594 32.3738 84.6007 32.2845 84.4189C32.2412 84.3342 32.2 84.2386 32.1631 84.1362C32.1256 84.0326 32.0998 83.947 32.0839 83.8745L31.9895 83.2822L31.9739 82.6767L32.0376 82.0515C32.0517 81.9874 32.0839 81.835 32.136 81.5838C32.1897 81.3238 32.2447 81.124 32.3041 80.9728C32.4835 80.5241 32.6409 80.1769 32.7721 79.9405C33.081 79.4128 33.4676 78.9092 33.9225 78.4418C34.1496 78.208 34.3818 78.0015 34.6123 77.8282C34.8425 77.6552 35.0858 77.5061 35.3352 77.3844C35.5044 77.2888 35.6695 77.2184 35.8217 77.1773L36.1195 77.0973L36.3436 77.0757L36.6941 77.0705L37.0183 77.1232C37.2731 77.212 37.4776 77.3031 37.6401 77.397C37.9739 77.6153 38.2254 77.8842 38.3913 78.1984C38.556 78.5103 38.6546 78.8328 38.6842 79.1574C38.708 79.4171 38.6903 79.72 38.6314 80.0579C38.6036 80.2374 38.5803 80.373 38.562 80.4637C38.5434 80.5553 38.5038 80.7122 38.4442 80.9303L38.1766 81.6501L37.8567 82.3727C37.8081 82.4626 37.7121 82.6271 37.5663 82.8713C37.3734 83.1912 37.2128 83.4435 37.0891 83.6215C36.7927 84.0075 36.4763 84.3433 36.1465 84.6225L36.0678 84.689L35.7549 84.0782L35.5572 83.5858L35.3866 82.9425L35.3246 82.2739L34.9337 82.3097L34.9683 82.6884L35.0515 83.1646L35.1191 83.4729L35.2121 83.7759L35.4184 84.3069L35.6249 84.7154L35.7575 84.9289L35.4437 85.1451L35.2005 85.2921L34.9319 85.4401L34.691 85.534L34.3938 85.6043L34.1586 85.6263C34.1054 85.6312 34.0508 85.6336 33.9952 85.6336L33.9951 85.6332ZM35.9392 85.2845L35.9851 85.3516C36.1761 85.6311 36.3659 85.887 36.5492 86.1122C36.7308 86.3355 36.9156 86.5426 37.099 86.7277C37.4886 87.0827 37.9698 87.4217 38.5281 87.7333L38.7356 87.3671L38.5771 87.2694L38.376 87.1726C37.8761 86.8563 37.4821 86.5525 37.196 86.2651V86.2648C36.8706 85.9364 36.5681 85.5471 36.2963 85.1078L36.2594 85.0479L36.3135 85.0025C36.5259 84.8256 36.717 84.6473 36.8819 84.4734C37.0488 84.2975 37.2082 84.109 37.3556 83.9133C37.6442 83.5293 37.9078 83.1164 38.1392 82.686L38.2047 82.5505C38.3008 82.3584 38.3971 82.1507 38.4918 81.9313C38.5864 81.7108 38.6655 81.5094 38.7266 81.3326C38.8805 80.9185 38.9862 80.4823 39.041 80.0348L39.0751 79.5456L39.0713 79.0751C39.0352 78.6836 38.9223 78.3082 38.7363 77.9656C38.5777 77.6389 38.2987 77.3416 37.9057 77.0784C37.6169 76.9016 37.3588 76.7866 37.1416 76.7382C36.9083 76.6644 36.6479 76.6415 36.3605 76.6672L35.964 76.7034L35.6043 76.8144C34.9612 77.0536 34.349 77.4565 33.7899 78.0103C33.2274 78.567 32.7698 79.1479 32.4296 79.7369C32.2163 80.0882 32.0324 80.4946 31.882 80.9465C31.7306 81.4009 31.6202 81.8464 31.5543 82.2704L31.5009 82.8408L31.5512 83.3788C31.5944 83.8494 31.7154 84.2885 31.9108 84.6836C32.1044 85.0748 32.3858 85.3899 32.7474 85.6203C32.9818 85.7686 33.2242 85.8718 33.4677 85.9264C33.7115 85.9807 33.9505 85.9973 34.1777 85.9771L34.6294 85.936L34.9038 85.8435C35.0465 85.803 35.1689 85.7519 35.2716 85.6901L35.6168 85.5033L35.9398 85.2842L35.9392 85.2845ZM38.5906 87.9536L38.5197 87.9149C37.9205 87.5866 37.4043 87.2266 36.9858 86.8452C36.7959 86.6532 36.6073 86.442 36.4225 86.215C36.251 86.0043 36.0742 85.7675 35.8962 85.5104L35.7006 85.6426L35.352 85.8319C35.2402 85.8995 35.1043 85.9564 34.9514 85.9996L34.653 86.098L34.1919 86.1397C33.9479 86.1621 33.6918 86.1436 33.4314 86.0857C33.1693 86.0269 32.9095 85.9166 32.659 85.7581C32.2717 85.5113 31.9706 85.1742 31.7639 84.7562C31.5593 84.343 31.433 83.8847 31.3882 83.3941L31.3377 82.8411L31.3918 82.2508C31.4599 81.8129 31.5724 81.3585 31.7267 80.8958C31.8809 80.4324 32.0702 80.0147 32.2885 79.6546C32.6351 79.0547 33.1017 78.4622 33.6744 77.8955C34.2501 77.3251 34.8817 76.9097 35.5515 76.6608L35.9323 76.545L36.3453 76.5059C36.6542 76.4777 36.9364 76.5036 37.1838 76.582C37.4117 76.6322 37.6865 76.754 37.9937 76.9421C38.4138 77.2234 38.7113 77.5423 38.8811 77.892C39.0764 78.2507 39.1954 78.6474 39.2338 79.0676L39.2378 79.5514L39.203 80.0508C39.1462 80.5153 39.0376 80.9635 38.88 81.388C38.8181 81.5666 38.7379 81.772 38.6414 81.996C38.5456 82.2181 38.4479 82.429 38.351 82.6227L38.2843 82.7602C38.0476 83.201 37.7797 83.6207 37.486 84.0113C37.3349 84.212 37.1716 84.4054 37.0003 84.5857C36.8455 84.7494 36.6679 84.9163 36.4723 85.0826C36.728 85.487 37.0102 85.8459 37.3118 86.1509C37.5892 86.4297 37.9739 86.7261 38.4553 87.0313L38.6556 87.1273L38.9548 87.3114L38.5906 87.954V87.9536ZM39.1691 84.4994L39.2111 84.4585L39.2674 84.4163L39.5128 84.1951L39.7442 83.9617L40.134 83.5684L40.5436 83.1072L41.1167 82.3923L41.6014 81.7384L42.1246 80.9221C42.2235 80.7452 42.3222 80.5638 42.4203 80.378C42.4354 80.3502 42.4909 80.2301 42.5867 80.0181L42.8071 79.521L43.0105 78.9854L43.5317 79.1668L41.5184 85.481L40.9866 85.3213L41.9873 82.1824L41.512 82.7952L40.9622 83.4681L40.5529 83.9293L40.1781 84.3343L39.8608 84.6412L39.5424 84.9351L39.1711 85.2341L38.7615 85.5494L38.31 85.2594L40.3622 79.2261L40.8888 79.4031L39.1693 84.4989L39.1691 84.4994ZM38.4074 85.2256L38.7571 85.4502L39.1211 85.1698L39.4908 84.872L39.8051 84.5819L40.121 84.2762L40.4925 83.8744L40.901 83.4144L41.4484 82.7442L42.2044 81.7691L41.0891 85.2673L41.4648 85.3803L43.4297 79.2181L43.0582 79.0889L42.8831 79.5504L42.661 80.0514C42.5307 80.3395 42.502 80.398 42.4916 80.4173C42.3934 80.6028 42.2946 80.7844 42.1955 80.9623L41.6699 81.7828L41.1819 82.4415L40.6069 83.1585L40.1947 83.6229L39.5708 84.2529L39.2259 84.558L38.9839 84.7927L40.7852 79.4551L40.4132 79.33L38.4073 85.226L38.4074 85.2256ZM38.7656 85.6492L38.2122 85.2938L40.3109 79.1234L40.9921 79.3524L39.3432 84.2388L39.4583 84.135L40.0759 83.5115L40.4824 83.0534L41.0528 82.3416L41.5359 81.69L42.056 80.8783C42.1518 80.7062 42.2502 80.5253 42.3481 80.3401C42.3583 80.3216 42.3945 80.2455 42.5122 79.9846L42.7324 79.4881L42.9621 78.8826L43.6336 79.116L41.5716 85.5819L40.8835 85.3753L41.7696 82.5956L41.5763 82.8452L41.0255 83.5197L40.6138 83.9835L40.238 84.3897L39.9175 84.6999L39.5976 84.9951L39.2224 85.2976L38.7656 85.6492ZM42.9786 84.7424C42.9577 84.7091 42.9382 84.6623 42.9192 84.6019C42.9006 84.5418 42.8868 84.4636 42.8778 84.3672C42.8626 84.2009 42.8685 84.046 42.8951 83.9021C42.9218 83.7584 42.9787 83.5809 43.0655 83.37C43.2243 82.9758 43.4481 82.5667 43.7372 82.1429C44.0582 81.681 44.4049 81.2608 44.7779 80.8822C44.8754 80.7853 44.9483 80.7125 44.9971 80.6636C45.1591 80.4987 45.2851 80.3768 45.3755 80.298L46.0293 79.7482L47.8008 78.3517L48.1461 78.7864L46.3754 80.1819C46.0677 80.4048 45.7693 80.6758 45.4796 80.9941L45.1059 81.4134L44.7228 81.8733C44.6437 81.978 44.5573 82.1011 44.4641 82.2428C44.3706 82.3841 44.3012 82.4967 44.2557 82.5804L43.8571 83.3078L43.6465 83.9115C43.6076 84.0655 43.5889 84.2045 43.5915 84.3279L43.6025 84.4468L43.6638 84.5341L43.7334 84.5679L43.8258 84.5593C44.0107 84.5424 44.2704 84.4194 44.6045 84.1905C44.9385 83.9611 45.3009 83.6524 45.6917 83.2635C45.8542 83.0986 45.9972 82.942 46.1216 82.7937C46.2456 82.6455 46.3869 82.467 46.5454 82.2583C46.6863 82.0514 46.8123 81.852 46.9234 81.6609C47.0347 81.4698 47.1334 81.2643 47.2199 81.0443L48.0687 78.9664L48.5814 79.1846L48.1769 80.1358L47.8559 80.9865L47.6907 81.5048L47.5258 82.0234L47.3868 82.5393L47.2504 83.082L47.1356 83.5695L47.0277 83.99L46.9989 84.1119L46.9849 84.2458L46.9298 84.5158L46.8662 84.8394L46.247 84.7501L46.3377 84.2913L46.4456 83.8704L46.5293 83.4785L46.6489 83.0438L46.0262 83.7893C45.987 83.8456 45.937 83.9034 45.876 83.9619C45.8148 84.0206 45.7638 84.0694 45.7231 84.1082L45.3686 84.4454C45.2777 84.5155 45.1675 84.5962 45.0388 84.6874C44.9097 84.7783 44.7735 84.8617 44.6298 84.9364C44.4031 85.0719 44.1712 85.1503 43.9339 85.1719C43.7932 85.1848 43.6844 85.1815 43.6076 85.1618C43.5304 85.1425 43.4692 85.1256 43.4237 85.1125C43.3781 85.099 43.3179 85.0692 43.243 85.0229C43.1215 84.9546 43.0332 84.8609 42.9781 84.7424H42.9786ZM43.7186 84.4702L43.7485 84.4848L43.8184 84.4785C43.9882 84.463 44.237 84.3437 44.5584 84.1236C44.8874 83.8977 45.2494 83.5889 45.634 83.2061C45.7933 83.0444 45.9365 82.888 46.059 82.7418C46.1805 82.5966 46.3225 82.4176 46.4804 82.2094C46.6163 82.01 46.7425 81.8105 46.8527 81.6203C46.9611 81.4347 47.059 81.231 47.144 81.0151L47.9485 79.046L46.4259 80.246C46.1222 80.466 45.825 80.7354 45.5401 81.049L45.1669 81.4677L44.7855 81.9255C44.7096 82.0266 44.6237 82.1493 44.5322 82.2878C44.4406 82.4265 44.3717 82.5381 44.3276 82.6193L43.9285 83.347L43.7236 83.9384C43.6884 84.0787 43.6706 84.2114 43.673 84.3269L43.6817 84.4183L43.7185 84.4706L43.7186 84.4702ZM47.7876 78.466L46.0801 79.8119L45.4281 80.3602C45.3414 80.4362 45.2156 80.5574 45.0554 80.7207L44.8356 80.9398C44.4688 81.3124 44.1215 81.7329 43.8046 82.1892C43.5204 82.6058 43.2973 83.0134 43.1417 83.4003C43.0568 83.6057 43.001 83.7793 42.9754 83.9168C42.9502 84.0528 42.9447 84.202 42.9592 84.3599C42.9675 84.4501 42.9804 84.5233 42.9974 84.5781C43.014 84.6319 43.0312 84.6727 43.048 84.6992L43.0527 84.7084C43.1011 84.8122 43.1766 84.8919 43.2837 84.9523C43.3713 85.0062 43.4211 85.0267 43.4478 85.0348C43.4921 85.0477 43.5523 85.0642 43.6281 85.0832C43.6957 85.1008 43.7963 85.1033 43.9273 85.0911C44.1509 85.0709 44.3735 84.9952 44.5886 84.8668C44.7312 84.7924 44.8658 84.7107 44.9924 84.6213C45.1199 84.5309 45.2292 84.4509 45.3196 84.3812L45.82 83.9036C45.876 83.8497 45.9231 83.7959 45.9602 83.7432L46.8282 82.7033L46.6088 83.5002L46.526 83.8876L46.4177 84.3112L46.3444 84.6817L46.8016 84.7477L46.9055 84.2295L46.9186 84.1034L46.949 83.9714L47.057 83.5492L47.3083 82.5197L47.4474 82.0024L47.7789 80.962L48.1009 80.1074L48.475 79.228L48.1134 79.074L47.2959 81.0752C47.208 81.2981 47.1066 81.5091 46.9943 81.7019C46.8817 81.8954 46.7534 82.0981 46.6132 82.3042C46.4509 82.5178 46.3077 82.6989 46.1843 82.8459C46.0593 82.9957 45.913 83.1553 45.7501 83.3206C45.3579 83.7111 44.9883 84.0259 44.6511 84.2575C44.3015 84.497 44.0341 84.6222 43.8335 84.6404L43.7183 84.6511L43.6094 84.5983L43.5233 84.4757L43.5107 84.3354C43.5076 84.2 43.5269 84.0525 43.5676 83.8913L43.7802 83.2809L44.1845 82.5413C44.2307 82.4562 44.302 82.3404 44.3961 82.1977C44.4893 82.0565 44.5773 81.931 44.6577 81.8243L45.0434 81.3614L45.4189 80.9399C45.7123 80.6175 46.0178 80.3405 46.3277 80.116L48.0317 78.7729L47.7877 78.466H47.7876ZM43.7815 85.2613C43.7047 85.2613 43.6407 85.2545 43.5877 85.241C43.5101 85.2215 43.4477 85.2043 43.4015 85.1909C43.3475 85.1748 43.2819 85.1425 43.2005 85.0925C43.0686 85.0182 42.9688 84.9131 42.9064 84.7812C42.8831 84.7425 42.8617 84.692 42.8413 84.6264C42.8205 84.56 42.8059 84.4776 42.7964 84.3745C42.7807 84.202 42.7868 84.0378 42.8149 83.8873C42.8424 83.7387 42.9016 83.5541 42.99 83.339C43.1502 82.9419 43.3787 82.5238 43.6698 82.097C43.9924 81.6325 44.3457 81.2048 44.7195 80.8253L44.9392 80.6063C45.1039 80.4384 45.2292 80.3175 45.3214 80.2368L45.9767 79.6861L47.814 78.2375L48.2606 78.7997L48.1285 78.9036L48.6884 79.142L48.2519 80.1676L47.9325 81.0154L47.6036 82.0483L47.3298 83.1022L47.0788 84.1309L47.0662 84.2546L46.9318 84.931L46.1506 84.8186L46.2583 84.2757L46.367 83.8508L46.4714 83.3849L46.0894 83.8418C46.0508 83.898 45.9966 83.9602 45.933 84.0209L45.4256 84.5046C45.3272 84.5806 45.2163 84.6622 45.0867 84.7542C44.954 84.848 44.8132 84.9333 44.6681 85.0088C44.4359 85.1478 44.1904 85.2306 43.9419 85.2533C43.8831 85.2586 43.8297 85.2615 43.7815 85.2615V85.2613ZM51.2674 76.5699L50.9026 77.6508L50.8168 77.8705L50.7322 78.1034L50.4371 79.0458L50.1056 80.1081L49.7727 81.2517L49.5054 82.2432L49.4482 82.4873L49.3755 82.7059L49.1628 83.573L48.9314 84.5177L48.3924 84.3829L48.608 83.5031L48.7967 82.6773L48.8673 82.3897L48.9537 82.0927L49.2336 81.0866L49.5709 79.9572L49.8864 78.9074L50.1878 77.9925L50.2689 77.7199L50.3756 77.432L50.7557 76.3641L51.216 75.156L51.7244 75.3488L51.2671 76.5701L51.2674 76.5699ZM48.491 84.3237L48.8716 84.4188L49.2961 82.6866L49.3707 82.4615L49.4258 82.2248L49.6937 81.2304L50.027 80.0852L50.6541 78.0789L50.8265 77.6211L51.1907 76.5413L51.6198 75.3958L51.2631 75.2606L50.8317 76.3925L50.3454 77.7479L50.2657 78.0153L49.9637 78.9325L49.3115 81.1096L48.8757 82.6964L48.6872 83.5211L48.4905 84.3235L48.491 84.3237ZM48.9913 84.6164L48.294 84.4422L48.529 83.4837L48.7881 82.3701L48.8753 82.0696L49.1552 81.0647L49.8084 78.8838L50.191 77.6966L50.299 77.4036L50.679 76.3365L51.1687 75.0508L51.8295 75.301L51.3441 76.5969L50.98 77.6765L50.8091 78.1311L50.1837 80.1322L49.8513 81.2743L49.528 82.5057L49.4531 82.7313L48.9915 84.6162L48.9913 84.6164ZM54.2717 76.6139L53.7364 76.4239L54.2499 75.0658L54.7864 75.2686L54.2717 76.6138V76.6139ZM53.1299 78.0569L53.6629 78.2195L51.5609 84.3065L51.0373 84.1207L53.1299 78.0569ZM53.842 76.3752L54.2238 76.5108L54.681 75.3161L54.2973 75.171L53.842 76.3754V76.3752ZM54.3195 76.7172L53.6307 76.4729L54.2026 74.9607L54.892 75.2216L54.3196 76.7174L54.3195 76.7172ZM51.1409 84.0709L51.5106 84.2023L53.5584 78.2726L53.1817 78.1576L51.1409 84.0709ZM51.6112 84.4107L50.9339 84.1704L53.0783 77.9557L53.7674 78.1661L51.6111 84.4107H51.6112ZM55.8623 76.8656L56.0538 76.4899L56.5148 75.5729L57.0449 74.543L57.548 74.8152L57.0033 75.8317L56.5549 76.747L56.4518 76.9283L56.3633 77.1218L59.45 76.4519L59.5658 76.9935L56.1115 77.7588L55.8184 78.5229L55.5151 79.4047L55.1504 80.5236L54.8688 81.5289L54.7304 82.0579L54.6195 82.598L54.5811 82.7604L54.5425 82.9225L54.5785 82.8796L54.6262 82.8224L54.9065 82.5451L55.1855 82.2546L55.5687 81.9417L55.9746 81.5867L56.4442 81.1998L56.891 80.8544L57.1758 80.6297L57.5016 80.4147L57.8034 80.2282L58.1553 80.0107L58.4528 80.5004L58.0621 80.7347L57.7222 80.9378L57.4849 81.105L57.2478 81.2724L56.8001 81.6046L56.3174 81.9932L55.8515 82.4194L55.4601 82.7864L55.266 82.9895L55.0828 83.1652L54.7236 83.5953L54.3021 84.0711L53.8049 83.8642L53.8745 83.4605L53.9462 83.0829L54.031 82.5586L54.116 82.1799C54.1637 81.9283 54.1941 81.7776 54.2075 81.7277C54.2206 81.6781 54.2613 81.5441 54.3301 81.3258L54.4474 80.8646C54.4903 80.6577 54.5452 80.4804 54.6116 80.333L54.975 79.2266L55.2038 78.5302L55.4383 77.8993L54.2659 78.1517L54.1628 77.6039L55.6994 77.2653L55.8622 76.866L55.8623 76.8656ZM53.8966 83.8138L54.2799 83.9733L54.6627 83.5412L55.0203 83.1127L55.2099 82.9308L55.4013 82.7299L56.2625 81.9328L56.7491 81.5409L57.6752 80.871L58.3408 80.4725L58.1286 80.1229L57.5448 80.4835L57.2213 80.6971L56.4944 81.2637L56.0269 81.6492L55.6227 82.0027L55.2375 82.3173L54.9657 82.6012L54.6055 82.9747L54.3837 83.2399L54.5405 82.5791L54.6506 82.0416L54.7901 81.5083L55.072 80.5017L55.4376 79.3795L55.7414 78.4961L56.0512 77.6887L59.4692 76.9318L59.3873 76.5488L56.2214 77.2359L56.3778 76.8945L56.484 76.7069L56.9299 75.7961L57.438 74.8484L57.0797 74.6544L56.5874 75.6101L55.9366 76.8993L55.7591 77.3351L54.2578 77.6657L54.331 78.054L55.567 77.7877L55.2807 78.5579L54.6892 80.3576C54.6223 80.5072 54.5689 80.6805 54.5275 80.8803L54.4093 81.3451C54.34 81.566 54.2996 81.6987 54.2867 81.748C54.274 81.7951 54.2435 81.9455 54.1962 82.1944L54.1108 82.5758L54.0267 83.0954L53.8964 83.8135L53.8966 83.8138ZM54.3248 84.1682L53.7138 83.9141L53.9506 82.5454L54.0363 82.1617C54.0847 81.9077 54.1149 81.7582 54.1288 81.7066C54.142 81.6567 54.1829 81.5214 54.2523 81.3008L54.3684 80.8441C54.4114 80.6361 54.4685 80.4515 54.537 80.2994L55.1263 78.5042L55.3101 78.0094L54.2012 78.2483L54.0679 77.5409L55.6399 77.1944L55.7894 76.8286L57.0104 74.4318L57.6582 74.7822L57.075 75.8701L56.6281 76.7825L56.5047 77.0077L59.5126 76.3547L59.6625 77.0553L56.172 77.8285L55.8947 78.5517L55.5922 79.4308L55.2279 80.5484L54.8093 82.0783L54.6929 82.6418L54.849 82.4868L55.1266 82.198L55.517 81.8785L55.9209 81.5251L56.392 81.1365L57.1252 80.5653L57.4563 80.3461L58.1825 79.8979L58.5648 80.5276L57.7639 81.0069L57.2949 81.3384L56.8486 81.6692L56.3685 82.0559L55.5158 82.8448L55.3251 83.045L55.1391 83.223L54.7863 83.6466L54.3246 84.1677L54.3248 84.1682ZM59.9974 82.7056L60.0965 82.6301L60.1694 82.5571L60.4035 82.3636L60.6358 82.1439L61.1134 81.7026L61.6092 81.1672L62.287 80.4432L62.8629 79.7681L63.2892 79.1993L63.7118 78.5912L64.1284 77.9171L64.5737 77.1212L65.0744 77.3672L60.868 88.0313L60.3528 87.8243L63.5271 79.8114L63.3751 79.9805L63.2451 80.1512L62.671 80.8275L62.0212 81.5502L61.4995 82.0752L61.0256 82.5429L60.7687 82.7788L60.5238 83.0004L60.0916 83.3446L59.6093 83.7206L59.1777 83.2033L61.1442 77.2476L61.6678 77.4335L59.9969 82.7054L59.9974 82.7056ZM60.4587 87.7791L60.8224 87.9251L64.9711 77.4074L64.6073 77.2287L64.1998 77.9568L63.7812 78.6338L63.3564 79.2458L62.9283 79.8169L62.3492 80.4963L61.1735 81.7582L60.4597 82.4232L60.0468 82.7707L59.8419 82.9259L61.5666 77.4842L61.1958 77.3524L59.2697 83.1861L59.6216 83.6081L60.4732 82.937L60.9706 82.4833L61.9637 81.493L62.6104 80.7733L63.1832 80.099L63.3106 79.9316L63.7707 79.4192L60.4587 87.7794V87.7791ZM60.914 88.1377L60.2475 87.8695L63.2639 80.2556L62.7335 80.8801L62.0826 81.6045L61.0834 82.6011L60.579 83.0608L59.5975 83.8333L59.0865 83.2204L61.0933 77.1429L61.7698 77.3832L60.1612 82.4585L60.3514 82.301L61.0582 81.6431L62.2276 80.3879L62.8009 79.7154L63.2239 79.1508L63.645 78.545L64.0593 77.8746L64.5406 77.0145L65.1784 77.3278L60.9143 88.1378L60.914 88.1377ZM71.5849 75.7211C71.6722 75.5974 71.7471 75.4567 71.8093 75.2997C71.8712 75.1423 71.9326 74.954 71.9936 74.7341L72.0252 74.4906L72.007 74.2917C71.994 74.1502 71.9298 74.0314 71.8137 73.9346C71.7847 73.9107 71.7285 73.8801 71.6449 73.843C71.5048 73.7756 71.4212 73.7388 71.3938 73.7323L71.3276 73.738L71.2876 73.7418C71.1372 73.7554 70.9805 73.8489 70.8183 74.0229C70.6749 74.2127 70.5517 74.4273 70.4487 74.666C70.4344 74.7029 70.4155 74.7442 70.3932 74.7903C70.3706 74.8367 70.3433 74.9274 70.3106 75.0629L70.3049 75.4345C70.3169 75.5659 70.3543 75.7303 70.4173 75.9277L70.5323 76.1557L70.6926 76.4326L70.7715 76.5579L70.8165 76.6068L70.9259 76.4767C71.1341 76.2971 71.3539 76.0453 71.5849 75.7211ZM70.552 77.5584C70.3555 77.7349 70.1883 77.8918 70.0504 78.028C69.9119 78.1641 69.7509 78.3379 69.5665 78.5488C69.4219 78.7125 69.2974 78.9002 69.1928 79.1128C69.0881 79.3258 68.9844 79.5952 68.8816 79.9228L68.7786 80.5414L68.7897 81.0971C68.8233 81.4651 68.9328 81.7621 69.1186 81.9882C69.3041 82.2143 69.5827 82.3102 69.9541 82.2764C70.1133 82.2621 70.2194 82.2522 70.2727 82.2475L70.6356 82.1204L71.1986 81.8409L71.6424 81.5725C71.811 81.4676 71.9899 81.3261 72.1788 81.1474L72.5908 80.6805L72.6918 80.4966L72.8161 80.3109L70.7267 77.4361L70.552 77.5583V77.5584ZM72.4335 81.6652C72.2033 81.8628 71.7919 82.1169 71.1999 82.4276L71.0343 82.5092L70.8568 82.605L70.6514 82.6901L70.3676 82.7823L69.9358 82.8614C69.3729 82.9125 68.9552 82.7581 68.6831 82.3987C68.4106 82.039 68.2528 81.6185 68.2087 81.1366L68.1905 80.9396C68.1827 80.852 68.1856 80.7897 68.2001 80.7532L68.194 80.5419L68.2348 80.2598L68.3508 79.7856C68.5336 79.1682 68.7755 78.6671 69.0768 78.2821C69.3781 77.897 69.6925 77.5568 70.0199 77.2621L70.1433 77.158L70.2664 77.0539L70.3168 77.0229L70.354 76.9934L70.3491 76.9406L70.3001 76.8391L69.9201 76.1713C69.8281 75.9414 69.7715 75.708 69.75 75.4714C69.7307 75.2613 69.7346 75.0868 69.7618 74.9471C69.7889 74.8076 69.8503 74.6321 69.9461 74.4203L70.0373 74.2529L70.127 74.0726C70.2315 73.8602 70.3708 73.6664 70.5456 73.4914C70.7198 73.3167 70.9431 73.2166 71.2156 73.192L71.3472 73.18C71.4264 73.1727 71.4798 73.1768 71.5079 73.192C71.7937 73.2191 72.0395 73.3385 72.2447 73.5494L72.4747 73.8871C72.5394 74.0145 72.5789 74.1564 72.5936 74.3145C72.6056 74.4464 72.6138 74.5383 72.6187 74.591C72.626 74.6701 72.6071 74.7603 72.5624 74.8616C72.437 75.3598 72.2534 75.7616 72.0113 76.0666C71.7886 76.3878 71.5279 76.6859 71.2293 76.9608L71.1925 77.004L71.1427 77.0484L71.3091 77.2721L71.5846 77.6719L72.2204 78.5302L72.8309 79.404L73.1313 79.7879L73.1659 79.7309L73.1876 79.6754L74.4048 77.6866L74.8827 77.9727L73.6689 79.9777L73.5752 80.1329L73.4938 80.2738L73.8469 80.7561L74.6303 81.8472L75.3944 82.8682L75.7369 83.3584L75.2958 83.7117L74.9764 83.2375L74.2521 82.2266L73.5241 81.2326L73.203 80.7716C72.9759 81.1018 72.7194 81.3997 72.4334 81.6649L72.4335 81.6652ZM71.3851 73.8146L71.2951 73.8228C71.1654 73.8345 71.025 73.9205 70.8778 74.0782C70.7444 74.2561 70.6231 74.4665 70.5235 74.6981C70.5094 74.7343 70.4899 74.7775 70.4663 74.8257C70.4527 74.8537 70.4284 74.9211 70.39 75.0815L70.3863 75.4355C70.3973 75.5522 70.4341 75.7123 70.4948 75.9028L70.6052 76.1187L70.8176 76.4785L70.8632 76.4242C71.0754 76.2399 71.2926 75.9906 71.5181 75.6738C71.6012 75.5562 71.6735 75.4202 71.733 75.2697C71.794 75.115 71.8551 74.9275 71.9146 74.7125L71.944 74.4801L71.9257 74.299C71.9147 74.1788 71.861 74.0802 71.7612 73.997C71.7483 73.9865 71.7118 73.9618 71.6116 73.9174C71.4626 73.8459 71.406 73.8223 71.3849 73.8146H71.3851ZM70.8193 76.73L70.7114 76.6129L70.6232 76.4758L70.4615 76.1963L70.3442 75.9643C70.2747 75.7506 70.2359 75.5789 70.2232 75.4416L70.2292 75.0616C70.2652 74.9018 70.2939 74.8072 70.3195 74.755C70.341 74.7107 70.3587 74.6716 70.3726 74.6363C70.4783 74.3906 70.6058 74.1686 70.753 73.9742C70.9338 73.7794 71.1092 73.6764 71.28 73.6609L71.3996 73.6499L71.4128 73.6531C71.4374 73.6591 71.4882 73.6773 71.6802 73.7698C71.7707 73.81 71.8305 73.8429 71.8661 73.8722C71.9986 73.9828 72.0735 74.1216 72.0883 74.2844L72.1065 74.4833L72.0744 74.7448C72.0111 74.9765 71.9481 75.1693 71.8851 75.3295C71.8207 75.4923 71.7422 75.6397 71.6516 75.7681H71.6513C71.4182 76.0957 71.1919 76.3547 70.9791 76.5383L70.8193 76.7302V76.73ZM70.6028 77.6224C70.4126 77.7934 70.246 77.9492 70.1075 78.0858C69.9715 78.2198 69.8103 78.3934 69.6278 78.6023C69.4883 78.7604 69.3665 78.944 69.266 79.1484C69.1636 79.357 69.0605 79.6255 68.9592 79.947L68.8591 80.555L68.871 81.0956C68.9026 81.4396 69.0071 81.7245 69.1813 81.9366C69.3502 82.1423 69.6004 82.2269 69.9464 82.1954L70.2609 82.1667L70.6083 82.0436L71.162 81.7682L71.6 81.5029C71.7625 81.4018 71.9385 81.2625 72.1223 81.0887L72.5295 80.6269L72.6199 80.4579L72.7167 80.3131L70.7077 77.5489L70.6026 77.6224H70.6028ZM69.8144 82.3643C69.4873 82.3643 69.2324 82.2555 69.0553 82.0398C68.8602 81.8021 68.7435 81.4875 68.7083 81.1045L68.697 80.5433L68.801 79.9096C68.9072 79.5691 69.0134 79.2926 69.1194 79.0769C69.2265 78.8595 69.3563 78.6636 69.505 78.4951C69.6899 78.2834 69.8539 78.1066 69.9929 77.9702C70.1338 77.8306 70.3036 77.672 70.4972 77.4977L70.5053 77.4917L70.7459 77.3238L72.9156 80.3091L72.7597 80.542L72.6625 80.7196L72.2401 81.2015C72.043 81.388 71.8581 81.5344 71.6857 81.6416L71.2412 81.9105L70.6719 82.1935L70.2801 82.3284L69.9616 82.3573C69.911 82.362 69.862 82.3642 69.8144 82.3642V82.3643ZM73.2024 80.6288L73.5911 81.1864L74.3181 82.179L75.0431 83.1903L75.3143 83.5931L75.6267 83.3429L75.3277 82.9149L74.565 81.8962L73.3966 80.279L73.5993 79.9359L74.7709 78.0006L74.4326 77.7981L73.1401 79.931L72.7672 79.4542L72.1539 78.5769L71.5195 77.7203L71.2423 77.3182L71.0333 77.0369L71.1672 76.9083C71.4671 76.6317 71.7262 76.3353 71.9446 76.0205C72.1812 75.7219 72.3615 75.3268 72.4837 74.842C72.5271 74.7408 72.5438 74.6634 72.5379 74.5983L72.5124 74.3218C72.499 74.1753 72.4621 74.0414 72.4023 73.9241L72.1774 73.5952C71.9956 73.4102 71.7646 73.2979 71.5002 73.2731L71.4688 73.2633C71.4684 73.2632 71.4446 73.2528 71.3549 73.2611L71.2229 73.2731C70.9718 73.2959 70.7631 73.3886 70.6032 73.5486C70.4359 73.7163 70.3006 73.9045 70.2002 74.1082L70.0178 74.4591C69.9277 74.6585 69.8678 74.83 69.8419 74.9627C69.8164 75.0941 69.8129 75.2627 69.8312 75.4641C69.8519 75.6924 69.9075 75.9201 69.9959 76.1413L70.4302 76.9333L70.4389 77.0296L70.0724 77.3243C69.7526 77.6122 69.4385 77.9516 69.1411 78.3321C68.8474 78.7072 68.608 79.2038 68.4288 79.8085L68.3136 80.2791L68.2746 80.5533L68.2819 80.7674L68.2758 80.7832C68.2715 80.794 68.2624 80.8304 68.2715 80.932L68.2897 81.1292C68.3321 81.5934 68.4863 82.0039 68.7479 82.3494C69.0045 82.6881 69.3905 82.8288 69.9282 82.7798L70.3528 82.7019L70.6263 82.6125L70.8252 82.5294L71.1634 82.3544C71.7452 82.0492 72.1547 81.7965 72.3788 81.6042C72.6582 81.3452 72.913 81.0496 73.1357 80.7258L73.2024 80.6286V80.6288ZM75.2777 83.8309L74.9088 83.283L74.1859 82.2741L73.4584 81.2809L73.2027 80.9141C72.9894 81.2109 72.7498 81.4831 72.4888 81.7247L72.4865 81.7268C72.25 81.9301 71.8416 82.1831 71.2378 82.4999L70.8955 82.6765L70.683 82.7652L70.393 82.8596L69.9506 82.9413C69.3534 82.9965 68.9073 82.8297 68.6181 82.4477C68.3379 82.0778 68.1728 81.6392 68.1277 81.1442L68.1095 80.9471C68.1013 80.8558 68.1039 80.7894 68.1184 80.7411L68.1124 80.5443L68.1541 80.2486L68.2715 79.7664C68.4575 79.138 68.7063 78.6232 69.0126 78.232C69.3157 77.8443 69.6365 77.4977 69.9651 77.202L70.267 76.9584L70.2266 76.8745L69.8493 76.2116C69.75 75.9661 69.6908 75.7231 69.6686 75.4791C69.6487 75.2624 69.6533 75.0783 69.6818 74.9318C69.7101 74.7866 69.7738 74.6033 69.8719 74.3871L70.0539 74.0365C70.1619 73.8172 70.3079 73.6143 70.4878 73.4339C70.6754 73.2458 70.9179 73.1371 71.2083 73.111L71.3401 73.099C71.4264 73.0911 71.4864 73.0951 71.5294 73.1121C71.8279 73.1436 72.088 73.2716 72.3033 73.4928L72.5425 73.8416C72.6169 73.9862 72.6598 74.1399 72.6749 74.3071L72.7003 74.5834C72.7089 74.6762 72.6877 74.7807 72.6375 74.8945C72.5141 75.3888 72.3237 75.8045 72.0755 76.1172C71.8534 76.4377 71.5866 76.7429 71.285 77.0208L71.2526 77.0591L71.3751 77.2239L71.6523 77.6258L72.2866 78.482L72.8985 79.3574L73.1174 79.6374L74.3779 77.5752L74.9953 77.9452L73.5914 80.269L73.9134 80.7084L74.6969 81.8001L75.4604 82.8197L75.8479 83.3747L75.2781 83.831L75.2777 83.8309ZM86.9821 74.07L87.2138 73.9515L87.6031 73.7059L87.6534 73.6749L87.7036 73.6439L87.9926 73.4599L88.1912 73.3107C88.2894 73.223 88.3614 73.1396 88.4073 73.061C88.4533 72.9823 88.4734 72.9128 88.4681 72.8516C88.4571 72.7302 88.3311 72.6385 88.091 72.5772C87.8507 72.5158 87.546 72.502 87.177 72.5353L86.4956 72.6371L85.6247 72.848C85.3483 72.9263 85.0363 73.0251 84.6886 73.1445C84.3408 73.2639 83.9666 73.4079 83.5656 73.5763L83.3367 73.6894L83.0974 73.8299C82.9038 73.944 82.7073 74.0919 82.507 74.2728C82.3064 74.4537 82.1487 74.6418 82.0335 74.8368L81.8996 75.1127L81.8706 75.3792L81.8849 75.5361L82.0041 75.6705L82.1766 75.8001L82.4236 75.8699L82.7622 75.9179L82.9227 75.9166L85.5835 76.2034L86.0176 76.2696L86.5168 76.3583C86.9589 76.4507 87.3078 76.5826 87.5625 76.7533C87.8884 76.927 88.0675 77.1933 88.1004 77.5524C88.1637 78.2448 87.9163 78.8327 87.3584 79.3162C86.8002 79.7996 86.1719 80.2411 85.4734 80.6402L85.3977 80.6867L85.3344 80.7191C85.225 80.7818 85.072 80.8512 84.875 80.9262C84.6781 81.0018 84.4548 81.0771 84.2049 81.1528L83.5413 81.3058L82.9258 81.4014L82.781 81.4148L82.649 81.4268C81.7707 81.5067 80.9583 81.4613 80.2121 81.2906C79.4659 81.1199 79.0745 80.8333 79.0376 80.4302C79.0185 80.2198 79.1476 79.961 79.4249 79.6531C79.7025 79.3451 80.2085 78.9988 80.9441 78.614L81.2627 78.4655L81.5824 78.3306L82.0855 78.1655L82.6818 78.0056L83.192 77.9192L84.0438 77.7888L84.1085 78.3527L83.2675 78.4558L82.864 78.5453C82.603 78.5955 82.3137 78.6796 81.9969 78.7968L81.8161 78.8528C81.7546 78.8584 81.6907 78.8862 81.6245 78.9363C81.4773 78.9765 81.3675 79.0306 81.2939 79.0989C80.8044 79.3643 80.445 79.6001 80.2162 79.8061C80.0291 79.9911 79.934 80.1588 79.93 80.3093C79.95 80.5285 80.2208 80.6805 80.7422 80.7655C81.3409 80.8258 81.9217 80.8307 82.484 80.7794L82.6551 80.7639L82.8396 80.747C83.1294 80.7207 83.3418 80.6972 83.4772 80.6756C83.6125 80.6548 83.7862 80.6148 83.9977 80.5556C84.2092 80.4964 84.4029 80.4346 84.5785 80.3701C84.7541 80.3058 84.901 80.2413 85.0192 80.1774L85.1965 80.0818L85.3978 79.957C85.9031 79.6725 86.376 79.3246 86.8169 78.9132C87.2576 78.5018 87.4609 78.1118 87.4274 77.7436C87.4113 77.5682 87.3003 77.4194 87.0937 77.2964L86.813 77.1364L86.4399 76.9846L85.8128 76.816L85.517 76.7528L82.8861 76.4663L82.6716 76.4461L82.4169 76.4166L81.9151 76.3035C81.7696 76.2641 81.6392 76.1923 81.5235 76.0879C81.4196 76.0181 81.3363 75.9288 81.2732 75.8197L81.1618 75.4731L81.1545 75.3945C81.1402 75.2373 81.1702 75.0824 81.245 74.93C81.3196 74.7781 81.4357 74.6176 81.5929 74.4493C81.7502 74.2807 81.9089 74.1272 82.0689 73.9895C82.2291 73.8515 82.4208 73.6974 82.6445 73.5275L82.9583 73.3272L83.2733 73.1396L83.7163 72.9012L84.1895 72.6995C84.65 72.5082 85.1354 72.3447 85.6459 72.2102C85.871 72.1546 86.1162 72.102 86.3818 72.051C86.6474 72.0004 86.8809 71.966 87.0831 71.9477C87.6891 71.8925 88.1929 71.9301 88.5945 72.0606C88.9936 72.1647 89.2062 72.3564 89.2316 72.6354C89.2436 72.766 89.2001 72.9237 89.1021 73.1086C89.0487 73.2011 88.9834 73.2884 88.9069 73.37C88.8299 73.4517 88.7271 73.5599 88.5979 73.6948L88.3605 73.8613L88.0874 74.0708L87.9869 74.1325L87.8861 74.1943L87.5352 74.4242L87.2275 74.5668L85.4285 75.5034L85.1719 75.0117L86.9816 74.0699L86.9821 74.07ZM83.9723 77.8824L82.6954 78.0859L82.1064 78.2442L81.6077 78.408L81.2944 78.5407L80.9785 78.688C80.2586 79.0647 79.7552 79.4084 79.4855 79.7075C79.2252 79.9966 79.1019 80.2374 79.1189 80.4229C79.1518 80.785 79.526 81.0501 80.2307 81.2113C80.9644 81.3793 81.7757 81.4243 82.6419 81.3458L82.9183 81.3204L83.5291 81.2253L84.1867 81.0733C84.4302 80.9994 84.6539 80.9238 84.8458 80.8503C85.0364 80.7774 85.1872 80.7094 85.2938 80.6482L85.4305 80.5708C86.1235 80.1745 86.7534 79.732 87.3047 79.2544C87.8391 78.7911 88.0795 78.221 88.0193 77.5597C87.9886 77.2266 87.8266 76.9862 87.5239 76.8248C87.2715 76.6562 86.9294 76.5272 86.5 76.4377L86.0033 76.3495L85.5711 76.2836L82.914 75.9976L82.7628 75.9992L82.4121 75.9503L82.1275 75.8647L81.9549 75.7351L81.806 75.57L81.7894 75.3865L81.8262 75.0771L81.9601 74.8009C82.082 74.5936 82.2466 74.3973 82.4523 74.2121C82.6565 74.0279 82.8597 73.8757 83.0559 73.7599L83.2955 73.6191L83.5296 73.5033C83.9335 73.3335 84.3131 73.1874 84.6619 73.0674C85.0082 72.9485 85.3246 72.8483 85.6026 72.7696L86.4762 72.5578L87.1651 72.455C87.5462 72.42 87.8632 72.435 88.1111 72.4982C88.3875 72.5686 88.5349 72.685 88.5492 72.844C88.5565 72.9219 88.5324 73.0086 88.4778 73.1016C88.4276 73.1876 88.3495 73.2782 88.2455 73.3709L88.0415 73.5244L87.2576 74.0197L87.0201 74.1417L85.2824 75.0462L85.4637 75.3932L87.1904 74.4944L87.5015 74.35L88.0453 74.0011L88.3115 73.7966L88.5514 73.6283C88.6684 73.5039 88.7712 73.3959 88.8479 73.3143C88.9198 73.2378 88.9817 73.1549 89.032 73.0678C89.1208 72.9005 89.1612 72.7568 89.151 72.6429C89.1286 72.3996 88.94 72.2348 88.5744 72.1394C88.1808 72.0116 87.6833 71.9753 87.091 72.0288C86.8918 72.0469 86.6585 72.0812 86.3977 72.1309C86.1315 72.1819 85.8851 72.2351 85.666 72.2891C85.1647 72.4214 84.6781 72.5849 84.2214 72.7748L83.7489 72.9759L83.3125 73.2111L83.0005 73.3968L82.6889 73.5959C82.4727 73.7606 82.2805 73.915 82.1229 74.051C81.9674 74.1846 81.8092 74.3372 81.6529 74.5046C81.5013 74.667 81.389 74.8221 81.3187 74.9656C81.2511 75.1036 81.2233 75.2454 81.2363 75.387L81.2433 75.4654L81.3513 75.7945C81.4007 75.8765 81.4765 75.9577 81.5694 76.0201C81.6843 76.1223 81.8048 76.1887 81.9366 76.2244L82.4352 76.3365L82.8942 76.3848L85.526 76.6713L85.8299 76.7361L86.4613 76.9054L86.8437 77.0606L87.1343 77.2254C87.3645 77.3623 87.4901 77.5337 87.5087 77.7357C87.5445 78.1285 87.3307 78.5447 86.8727 78.972C86.4294 79.3859 85.9467 79.7413 85.438 80.0278L85.2396 80.1509L85.0581 80.2487C84.9356 80.3147 84.7838 80.3811 84.6067 80.4462C84.4291 80.5115 84.2316 80.5745 84.0195 80.6338C83.8055 80.6934 83.6273 80.7345 83.4896 80.7557C83.3549 80.7771 83.1447 80.8007 82.8469 80.8278L82.4911 80.8602C81.9266 80.9115 81.3354 80.9069 80.7339 80.846C80.1606 80.7528 79.8728 80.5798 79.8488 80.3163C79.8531 80.1329 79.9546 79.9502 80.1587 79.748C80.3927 79.5371 80.7576 79.2972 81.2463 79.0315C81.3266 78.9602 81.4416 78.9028 81.5882 78.8613C81.662 78.808 81.7363 78.7776 81.8088 78.7711L81.9729 78.7183C82.2889 78.6016 82.5848 78.5156 82.8487 78.4649L83.2501 78.3758L84.0183 78.2813L83.9724 77.8818L83.9723 77.8824ZM81.8326 81.5461C81.255 81.5461 80.7066 81.4873 80.1941 81.3702C79.413 81.1916 78.9967 80.8778 78.9564 80.4378C78.9348 80.202 79.0682 79.9275 79.3642 79.5989C79.647 79.2852 80.1657 78.9297 80.906 78.5422L81.228 78.3922L81.5505 78.256L82.0597 78.0887L82.6606 77.9274L83.1784 77.8393L84.1152 77.696L84.1988 78.4237L83.2775 78.5369L82.8818 78.625C82.6245 78.6748 82.3371 78.7581 82.0254 78.8731L81.8404 78.9307C81.7778 78.9383 81.7273 78.9609 81.6739 79.0014L81.6462 79.0149C81.5132 79.0512 81.4134 79.0995 81.3498 79.1586L81.3331 79.1706C80.8515 79.432 80.4941 79.666 80.2711 79.8668C80.1033 80.0331 80.0151 80.1836 80.0116 80.3119C80.0272 80.4762 80.2845 80.6088 80.7556 80.6857C81.3418 80.7444 81.9224 80.7491 82.4765 80.6986L82.8322 80.6665C83.1264 80.6397 83.3332 80.6165 83.4646 80.5958C83.5962 80.5752 83.768 80.5357 83.9759 80.4775C84.1835 80.4196 84.3771 80.3578 84.5504 80.2942C84.7202 80.232 84.865 80.1685 84.9806 80.1061L85.1579 80.0106L85.3547 79.8886C85.8552 79.6065 86.3275 79.2591 86.7612 78.854C87.1804 78.4628 87.3773 78.0917 87.3462 77.7512C87.3326 77.6021 87.2362 77.4763 87.0519 77.3666L86.7725 77.2071L86.4092 77.0602L85.7917 76.8948L85.5 76.8324L82.4074 76.4975L81.8973 76.3831C81.7369 76.3397 81.594 76.2611 81.4691 76.1488C81.3646 76.0793 81.272 75.9799 81.2029 75.8606L81.0845 75.4981L81.0738 75.4022C81.0581 75.2306 81.0912 75.0596 81.1722 74.8945C81.2494 74.7367 81.3708 74.5685 81.5336 74.3939C81.6939 74.2223 81.8564 74.0655 82.0163 73.9281C82.1764 73.7901 82.3712 73.6337 82.5956 73.463L82.9149 73.2589L83.2321 73.0701L83.6781 72.8299L84.1581 72.6248C84.6226 72.432 85.1161 72.266 85.6257 72.1317C85.8492 72.0767 86.0982 72.0227 86.3673 71.9713C86.6336 71.9203 86.8721 71.8853 87.0763 71.8668C87.6908 71.8111 88.2105 71.8502 88.6206 71.9832C89.05 72.095 89.2848 72.3124 89.3138 72.628C89.3272 72.7759 89.2819 72.9454 89.1751 73.1466C89.1172 73.2469 89.0477 73.3399 88.9672 73.4255C88.8902 73.5072 88.787 73.6157 88.6577 73.751L88.4086 73.9276L88.1381 74.135L87.9299 74.2634L87.581 74.4921L87.2629 74.6404L85.3948 75.6128L85.0628 74.9768L87.177 73.8785L87.9489 73.391L88.1425 73.2451C88.2286 73.1681 88.2958 73.0907 88.3373 73.0194C88.3745 72.956 88.3912 72.902 88.3872 72.8586C88.3777 72.7552 88.2103 72.691 88.0713 72.6558C87.8411 72.5972 87.543 72.584 87.1848 72.6161L86.5079 72.7171L85.6444 72.9268C85.3724 73.0038 85.059 73.1031 84.7156 73.221C84.37 73.3399 83.9939 73.4847 83.5977 73.651L83.3737 73.7621L83.1392 73.8999C82.9528 74.0101 82.7584 74.1555 82.5621 74.3326C82.3688 74.5068 82.2149 74.6903 82.1044 74.8776L81.9793 75.1352L81.952 75.3876L81.9638 75.5013L82.0655 75.6161L82.2137 75.7255L82.4461 75.7913L82.7741 75.8371L82.9224 75.8352L85.5926 76.1222L86.0303 76.1888L86.5313 76.2781C86.9837 76.3723 87.3454 76.5092 87.6084 76.6856C87.9514 76.868 88.1469 77.1586 88.1822 77.5449C88.2476 78.2614 87.9886 78.878 87.4123 79.3774C86.8529 79.862 86.2144 80.3105 85.5142 80.7106L85.3719 80.7914C85.2615 80.8549 85.1033 80.9265 84.9048 81.0023C84.7091 81.0773 84.4818 81.154 84.229 81.2305L83.5602 81.3851L82.6571 81.5079C82.3767 81.5333 82.1017 81.5459 81.8332 81.5459L81.8326 81.5461ZM91.5273 73.6229L91.7187 73.2474L92.1797 72.3302L92.71 71.3003L93.2131 71.5724L92.6682 72.5892L92.2202 73.5042L92.1171 73.6855L92.0286 73.8791L95.1153 73.2092L95.231 73.751L91.7767 74.5164L91.4837 75.2802L91.1805 76.162L90.8158 77.2809L90.5339 78.2862L90.3957 78.8152L90.2848 79.3553L90.2462 79.5175L90.2077 79.6798L90.2437 79.6368L90.2915 79.5796L90.5716 79.3022L90.8506 79.0121L91.2339 78.6991L91.6399 78.3438L92.1093 77.9569L92.5559 77.6115L92.841 77.387L93.1669 77.1717L93.4688 76.9853L93.8207 76.7679L94.1179 77.2575L93.7275 77.492L93.3875 77.6951L93.1501 77.862L92.9131 78.0293L92.465 78.3616L91.9827 78.7502L91.5168 79.1764L91.1252 79.5434L90.9311 79.7465L90.7481 79.9222L90.3888 80.3523L89.9672 80.8281L89.4702 80.6215L89.5396 80.2177L89.6113 79.84L89.6961 79.3157L89.7811 78.937C89.8288 78.6854 89.8592 78.5348 89.8726 78.4849C89.8856 78.4353 89.9266 78.3012 89.9952 78.0827L90.1125 77.6216C90.1554 77.4148 90.2103 77.2374 90.2764 77.09L90.6402 75.9837L90.869 75.287L91.1035 74.6561L89.9312 74.9085L89.8277 74.3606L91.3647 74.0222L91.5273 73.6229ZM89.5615 80.5713L89.9449 80.7304L90.3276 80.2983L90.6852 79.87L90.8748 79.6879L91.0663 79.4874L91.9277 78.6901L92.4141 78.298L93.3405 77.6284L94.0058 77.2297L93.7936 76.88L93.2096 77.2406L92.8862 77.4545L92.1595 78.0208L91.6919 78.4064L91.2879 78.7599L90.9026 79.0747L90.6308 79.3583L90.2706 79.732L90.0488 79.9969L90.2056 79.3364L90.3157 78.799L90.4552 78.2658L90.7372 77.2592L91.1029 76.1369L91.4068 75.2539L91.7165 74.4464L95.1345 73.6892L95.0526 73.3062L91.8867 73.9935L92.0431 73.6518L92.1492 73.4642L92.5951 72.5536L93.1033 71.6057L92.7449 71.4117L92.2527 72.3673L91.6019 73.6569L91.4243 74.0927L89.9231 74.4233L89.996 74.8114L91.2323 74.5452L90.9461 75.3153L90.3546 77.1154C90.2878 77.2647 90.2346 77.4379 90.1928 77.638L90.0747 78.1024C90.0055 78.3233 89.965 78.4563 89.9521 78.5053C89.9394 78.5532 89.909 78.7032 89.8618 78.9518L89.7762 79.3331L89.6924 79.8527L89.562 80.571L89.5615 80.5713ZM89.9897 80.9253L89.3788 80.6715L89.6157 79.3027L89.7016 78.9192C89.7496 78.6659 89.78 78.5164 89.7939 78.4639C89.807 78.4141 89.8482 78.2787 89.9174 78.0584L90.0335 77.6014C90.0767 77.3934 90.1336 77.2088 90.2021 77.0565L90.7914 75.2618L90.9754 74.7668L89.8665 75.0059L89.7333 74.2984L91.3053 73.9521L91.4548 73.586L92.6758 71.1894L93.3236 71.5398L92.7404 72.628L92.2935 73.5402L92.1701 73.7654L95.178 73.1126L95.3279 73.8133L91.8374 74.5866L91.5601 75.3097L91.2576 76.1888L90.8938 77.3062L90.4749 78.8359L90.3586 79.3994L90.5147 79.2445L90.7922 78.9558L91.1828 78.6361L91.5865 78.2828L92.0576 77.8942L92.7909 77.3232L93.1219 77.1041L93.8482 76.6556L94.2303 77.2853L93.4296 77.7651L92.9603 78.0961L92.514 78.4271L92.0342 78.8138L91.1812 79.603L90.9905 79.8031L90.8047 79.9811L90.4515 80.4047L89.9899 80.9256L89.9897 80.9253ZM95.6625 79.4629L95.7616 79.3876L95.8344 79.3145L96.0686 79.121L96.3009 78.9013L96.7785 78.4601L97.2743 77.9247L97.9519 77.2006L98.528 76.5255L98.9543 75.9568L99.3769 75.3487L99.7937 74.6745L100.239 73.8788L100.74 74.1248L96.5332 84.7889L96.0182 84.5819L99.1925 76.569L99.0405 76.7381L98.9106 76.9088L98.3364 77.5851L97.6865 78.3078L97.1648 78.8328L96.6908 79.3008L96.4339 79.5364L96.1891 79.758L95.7569 80.1023L95.2745 80.4783L94.843 79.961L96.8095 74.0054L97.333 74.1913L95.6622 79.4632L95.6625 79.4629ZM96.1238 84.5364L96.4876 84.6826L100.636 74.1646L100.273 73.986L99.8651 74.7142L99.4465 75.3913L99.0215 76.0032L98.5934 76.5742L98.0143 77.2535L96.8386 78.5155L96.1248 79.1803L95.7119 79.5278L95.507 79.6833L97.2319 74.2413L96.8609 74.1096L94.9348 79.9432L95.2867 80.3654L96.1383 79.6943L96.6357 79.2409L97.6288 78.2503L98.2755 77.5306L98.8483 76.8563L98.9757 76.6889L99.4356 76.1765L96.1236 84.5367L96.1238 84.5364ZM96.5793 84.895L95.9126 84.6269L98.929 77.0127L98.3988 77.6376L97.7475 78.3619L96.7483 79.3585L96.2443 79.8183L95.2626 80.5906L94.7516 79.978L96.7584 73.9005L97.4351 74.1408L95.8265 79.2161L96.0167 79.0585L96.7234 78.4006L97.8927 77.1452L98.466 76.4727L98.8894 75.9081L99.3102 75.3024L99.7244 74.632L100.206 73.772L100.844 74.0852L96.5796 84.8953L96.5793 84.895ZM103.533 71.8179L103.168 72.8985L103.082 73.1182L102.998 73.3514L102.703 74.2937L102.371 75.356L102.038 76.4995L101.771 77.4914L101.714 77.7351L101.641 77.9539L101.429 78.8211L101.197 79.7655L100.658 79.6307L100.874 78.7511L101.063 77.9253L101.133 77.6374L101.22 77.3403L101.5 76.3344L101.837 75.205L102.152 74.1552L102.454 73.2402L102.535 72.9679L102.642 72.68L103.022 71.6119L103.482 70.404L103.991 70.5967L103.533 71.8181L103.533 71.8179ZM100.757 79.5715L101.137 79.6666L101.562 77.9347L101.636 77.7095L101.692 77.4728L101.959 76.4784L102.293 75.3331L102.92 73.3269L103.092 72.8691L103.456 71.7895L103.885 70.6438L103.529 70.5089L103.097 71.6405L102.611 72.996L102.532 73.2633L102.23 74.1805L101.577 76.3579L101.141 77.9447L100.953 78.7692L100.756 79.5717L100.757 79.5715ZM101.257 79.8642L100.56 79.69L100.795 78.7315L101.054 77.6179L101.141 77.3173L101.421 76.3125L102.074 74.1316L102.457 72.9444L102.565 72.6514L102.945 71.5841L103.435 70.2986L104.096 70.5487L103.61 71.8449L103.246 72.9242L103.075 73.3788L102.45 75.3799L102.117 76.522L101.794 77.7533L101.719 77.9791L101.258 79.8639L101.257 79.8642ZM103.622 76.7379L103.709 76.6768C104.272 76.44 104.795 76.152 105.278 75.8121C105.76 75.4724 105.972 74.9782 105.913 74.3299C105.904 74.2337 105.875 74.1634 105.827 74.1193C105.778 74.0752 105.719 74.0559 105.648 74.0623C105.507 74.0752 105.326 74.185 105.105 74.3917C104.883 74.5983 104.646 74.8686 104.392 75.2025L104.131 75.5589L103.876 75.9821L103.445 76.807L103.336 77.0836L103.24 77.3454L103.219 77.4007L103.14 77.7139L103.089 78.0252L103.048 78.3087L103.072 78.5728C103.087 78.7315 103.127 78.8633 103.195 78.9678C103.262 79.0729 103.387 79.1526 103.569 79.207L103.648 79.2L103.727 79.1927L103.859 79.1806L103.986 79.1283C104.14 79.0601 104.277 78.9626 104.398 78.8344L104.772 78.4217L105.099 77.9323L105.238 77.7036L105.729 77.8448L105.582 78.1231C105.538 78.2153 105.481 78.3198 105.412 78.4366C105.344 78.5533 105.269 78.6594 105.19 78.7549C105.041 78.9631 104.836 79.1714 104.573 79.3807C104.352 79.5774 104.076 79.6911 103.743 79.7211L103.691 79.7258L103.639 79.7305L103.52 79.7413L103.455 79.7474C103.134 79.7144 102.891 79.592 102.727 79.3809C102.562 79.1698 102.467 78.9323 102.443 78.6681L102.41 78.3119C102.405 78.2504 102.405 78.2017 102.41 78.1657C102.416 78.1298 102.439 78.0389 102.478 77.8933C102.52 77.668 102.594 77.4127 102.701 77.1279L102.776 76.9351L102.852 76.7419C102.968 76.465 103.066 76.2497 103.145 76.0966C103.223 75.9428 103.341 75.7526 103.498 75.5255C103.613 75.3374 103.737 75.1486 103.871 74.9592C103.981 74.807 104.104 74.6479 104.239 74.4802C104.374 74.3125 104.503 74.1698 104.625 74.0524C104.747 73.9349 104.891 73.8152 105.057 73.6938C105.33 73.4827 105.572 73.3674 105.783 73.3481C105.958 73.3321 106.103 73.3831 106.215 73.501C106.328 73.6191 106.426 73.8419 106.509 74.1697L106.514 74.2223L106.521 74.3013C106.584 74.9936 106.39 75.5369 105.939 75.9309C105.529 76.2865 105.024 76.6237 104.424 76.943L104.08 77.1069L103.737 77.2709L103.518 76.774L103.621 76.7382L103.622 76.7379ZM105.674 74.1426C105.668 74.1426 105.662 74.1429 105.656 74.1435C105.572 74.151 105.418 74.2106 105.161 74.4511C104.944 74.6538 104.707 74.9231 104.457 75.2516L104.197 75.607L103.946 76.024L103.626 76.6355L103.663 76.6101C104.233 76.3685 104.755 76.0803 105.231 75.7456C105.692 75.4208 105.888 74.9601 105.832 74.3375C105.825 74.2625 105.805 74.2095 105.772 74.1794C105.744 74.1545 105.713 74.1424 105.674 74.1424V74.1426ZM105.845 73.4264C105.827 73.4264 105.809 73.4274 105.79 73.429C105.597 73.4467 105.367 73.5574 105.107 73.758C104.945 73.8766 104.802 73.9949 104.682 74.1108C104.563 74.2255 104.435 74.3669 104.303 74.5309C104.168 74.6982 104.044 74.8584 103.937 75.0066C103.806 75.1929 103.682 75.3818 103.567 75.5678C103.412 75.7942 103.295 75.9831 103.217 76.1334C103.139 76.2851 103.042 76.5001 102.927 76.7731L102.777 77.1572C102.673 77.4361 102.599 77.689 102.559 77.9079C102.509 78.0925 102.495 78.1559 102.492 78.1777C102.487 78.2072 102.487 78.2498 102.492 78.3043L102.525 78.6608C102.547 78.908 102.637 79.1336 102.792 79.3308C102.944 79.5257 103.164 79.6354 103.464 79.6664L103.736 79.6401C104.049 79.6117 104.312 79.5041 104.519 79.32C104.778 79.1132 104.981 78.9081 105.124 78.7075C105.204 78.6115 105.276 78.508 105.343 78.3951C105.41 78.2804 105.466 78.1768 105.509 78.0878L105.611 77.8953L105.276 77.7993L105.17 77.9746L104.84 78.4671L104.459 78.8888C104.33 79.0251 104.183 79.1304 104.02 79.2027L103.866 79.2617L103.561 79.2894L103.546 79.2849C103.345 79.2249 103.204 79.133 103.126 79.0116C103.052 78.8967 103.007 78.7514 102.991 78.58L102.967 78.316L103.061 77.7006L103.165 77.3156L103.369 76.7772L103.804 75.9443L104.061 75.5169L104.326 75.1544C104.583 74.8172 104.826 74.5411 105.049 74.332C105.286 74.1105 105.48 73.9958 105.641 73.9812C105.734 73.9722 105.817 73.9994 105.882 74.0589C105.946 74.1172 105.984 74.206 105.995 74.3224C106.056 74.9987 105.831 75.5221 105.325 75.8783C104.84 76.2199 104.307 76.514 103.742 76.7515L103.629 76.8214L103.778 77.1606L104.39 76.8692C104.978 76.5555 105.483 76.2185 105.887 75.8692C106.314 75.495 106.501 74.9698 106.44 74.3081L106.428 74.1768C106.351 73.8769 106.259 73.6642 106.157 73.5567C106.073 73.4692 105.971 73.4261 105.845 73.4261L105.845 73.4264ZM103.462 79.8285C103.105 79.793 102.841 79.6594 102.663 79.4309C102.489 79.2086 102.387 78.9546 102.362 78.6755L102.33 78.319C102.323 78.2506 102.324 78.1961 102.33 78.153C102.334 78.1285 102.345 78.0727 102.4 77.8717C102.44 77.6502 102.516 77.388 102.625 77.0991L102.776 76.7119C102.893 76.4335 102.992 76.2144 103.072 76.0589C103.153 75.9025 103.273 75.7077 103.431 75.4792C103.544 75.294 103.671 75.1019 103.805 74.9122C103.914 74.7609 104.039 74.5984 104.176 74.4286C104.312 74.2594 104.444 74.1128 104.568 73.9936C104.694 73.8727 104.842 73.7496 105.009 73.6279C105.292 73.4095 105.55 73.2874 105.775 73.267C105.977 73.2489 106.144 73.3088 106.274 73.4447C106.398 73.5746 106.501 73.8051 106.588 74.1497L106.602 74.2937C106.668 75.0098 106.463 75.581 105.993 75.9918C105.58 76.3495 105.065 76.6933 104.463 77.0144L103.696 77.3801L103.491 76.912L103.295 77.4302L103.22 77.7333L103.129 78.3198L103.154 78.5649C103.167 78.7101 103.204 78.8307 103.263 78.9235C103.318 79.0089 103.423 79.0761 103.577 79.1243L103.839 79.1006L103.956 79.0527C104.096 78.9902 104.226 78.8977 104.339 78.7782L104.712 78.367L105.032 77.8871L105.2 77.6082L105.848 77.7938L105.655 78.1606C105.611 78.2512 105.553 78.3586 105.483 78.4774C105.412 78.5976 105.335 78.7082 105.253 78.8065C105.105 79.0145 104.892 79.2309 104.624 79.444C104.394 79.6489 104.1 79.7701 103.751 79.8019L103.463 79.828L103.462 79.8285ZM113.165 46.2378C102.419 31.666 86.2466 24.171 69.9174 23.7495V21.6823C69.9174 21.2584 70.146 20.8633 70.5209 20.6635C71.1811 20.3118 71.6394 19.9223 71.9272 19.6419C72.1933 19.3829 72.4984 19.0806 72.7547 18.5892C73.1005 17.9262 73.1441 17.3292 73.1682 16.9385C73.1967 16.4821 73.2491 15.4193 72.6195 14.3195C72.5347 14.1713 72.1507 13.5213 71.3867 12.9551C70.7746 12.5014 70.2142 12.3208 70.0863 12.2814C69.3726 12.0602 68.7815 12.091 68.4228 12.1129C68.1881 12.1272 67.7968 12.1536 67.3083 12.3065C67.1228 12.3645 66.6372 12.5304 66.1007 12.9046C65.9698 12.9958 65.4554 13.365 64.9777 14.0247C64.796 14.2758 64.5162 14.6688 64.3359 15.2541C64.2872 15.4119 64.1923 15.7582 64.1838 16.2058C64.1778 16.5277 64.1765 16.7783 64.3273 17.0395C64.444 17.2416 64.5861 17.3831 64.6663 17.4487C64.7725 17.5351 64.895 17.609 65.0619 17.6627C65.2912 17.7365 65.4873 17.7117 65.6022 17.6907C65.7007 17.6726 65.9203 17.6186 66.1343 17.4522C66.2032 17.3986 66.3431 17.2767 66.4636 17.0395C66.7186 16.5381 66.5352 16.2131 66.6578 15.7848C66.728 15.5394 66.8998 15.1841 67.4526 14.8582C67.6271 14.748 68.0793 14.4541 68.718 14.4287C68.8954 14.422 69.5027 14.4066 70.0692 14.8246C70.1587 14.8905 70.5218 15.17 70.7361 15.6752C70.8726 15.9967 70.8906 16.2718 70.905 16.492C70.9215 16.7424 70.9057 16.9943 70.8783 17.1806C70.8554 17.3367 70.8006 17.4846 70.7178 17.6192C70.6958 17.6547 70.6711 17.6918 70.6435 17.7301C70.4425 18.0043 70.2168 18.1571 70.1114 18.2269C69.3621 18.7244 68.9086 18.9262 68.3637 19.3723C68.2068 19.5005 67.9966 19.6864 67.8062 19.9786C67.7843 20.012 67.7634 20.0447 67.7437 20.0764C67.627 20.264 67.5707 20.4826 67.5751 20.7032C67.576 20.7536 67.5773 20.804 67.5782 20.8542C67.5907 21.4684 67.5898 22.8433 67.5863 23.741C51.0578 23.9957 34.6256 31.4909 23.7503 46.2375C23.0443 47.1936 23.0933 48.404 23.8256 48.8924C24.3304 49.2293 25.012 49.1639 25.6022 48.7996C25.8964 48.6613 26.1746 48.4361 26.3921 48.1376C27.5718 46.517 28.8262 44.9934 30.1404 43.5572C30.6457 44.2851 31.1782 45.0551 31.2835 45.1624C32.526 43.9899 33.4099 42.9041 34.7871 41.6587C34.6812 41.5183 33.875 41.0304 33.1175 40.5666C35.2408 38.6187 37.4911 36.8778 39.8437 35.3471C39.9988 36.0184 40.2032 37.0628 40.3186 37.4312C41.9158 36.4384 43.8217 35.2932 45.5672 34.3873C45.279 34.0312 44.5749 33.2654 44.1883 32.8125C46.6631 31.5267 49.2235 30.4536 51.8405 29.5888C51.8349 30.2352 51.8613 31.1195 51.844 31.6802C54.1185 31.0098 55.9505 30.5844 58.4446 30.0187C58.1309 29.5165 57.4765 28.7097 57.0974 28.149C59.8976 27.5362 62.7396 27.1499 65.5927 26.9963C65.348 27.6075 64.9969 28.4023 64.7903 28.9488C67.7054 28.876 69.5621 28.8171 72.6463 29.1249C72.4705 28.5939 72.2949 27.6757 72.119 27.049C74.7866 27.2325 77.4424 27.6148 80.0601 28.2006C79.6766 28.7584 79.0508 29.5325 78.7473 30.0187C81.2412 30.5844 83.0733 31.01 85.3475 31.6802C85.3313 31.1454 85.3541 30.3182 85.3513 29.6813C87.9396 30.5529 90.4723 31.6257 92.9192 32.9098C92.5216 33.3687 91.8934 34.0549 91.6243 34.3873C93.3701 35.2932 95.2757 36.4384 96.8731 37.4312C96.9796 37.0907 97.162 36.1737 97.3115 35.5065C99.6178 37.0256 101.826 38.7453 103.909 40.6674C103.203 41.0992 102.502 41.5285 102.404 41.6586C103.782 42.9038 104.665 43.9898 105.908 45.1622C106.005 45.0633 106.465 44.4021 106.931 43.7298C108.188 45.1155 109.391 46.5815 110.523 48.1375C110.741 48.4358 111.019 48.6612 111.313 48.7995C111.903 49.1637 112.585 49.2291 113.09 48.8923C113.822 48.4039 113.871 47.1934 113.165 46.2373L113.165 46.2378Z" fill="#1A954E"/>
</svg>
