<svg width="24" height="24" viewBox="0 0 24 24" fill="none" xmlns="http://www.w3.org/2000/svg">
<g clip-path="url(#clip0_52_196)">
<path fill-rule="evenodd" clip-rule="evenodd" d="M1.07143 0C0.787268 0 0.514746 0.112882 0.313814 0.313814C0.112882 0.514746 0 0.787268 0 1.07143C0 1.35559 0.112882 1.62811 0.313814 1.82904C0.514746 2.02997 0.787268 2.14286 1.07143 2.14286H4.188L4.53943 5.46857L5.64343 15.9343C5.7159 16.6196 6.03965 17.2537 6.5522 17.7144C7.06474 18.175 7.72974 18.4294 8.41886 18.4286H19.0611C20.34 18.4286 21.456 17.5611 21.768 16.32L23.916 7.74857C24.0187 7.33744 24.0263 6.90832 23.9382 6.49382C23.8501 6.07931 23.6687 5.69035 23.4077 5.35649C23.1468 5.02263 22.8131 4.75266 22.4321 4.56712C22.0512 4.38158 21.6329 4.28533 21.2091 4.28571H6.56914L6.21771 0.96C6.19019 0.696748 6.06619 0.453002 5.86962 0.275743C5.67305 0.0984836 5.41783 0.000258692 5.15314 0L1.07143 0ZM7.77429 15.7097L6.79543 6.42857H21.2091C21.6326 6.42857 21.9377 6.82286 21.8366 7.22743L19.6886 15.7989C19.6523 15.9378 19.5711 16.0609 19.4576 16.149C19.3442 16.237 19.2048 16.2851 19.0611 16.2857H8.41886C8.25915 16.2866 8.10479 16.2282 7.9857 16.1218C7.86661 16.0154 7.79127 15.8685 7.77429 15.7097ZM13.8943 7.5C14.2353 7.5 14.5623 7.63546 14.8034 7.87658C15.0445 8.11769 15.18 8.44472 15.18 8.78571V10.0714H16.4657C16.8067 10.0714 17.1337 10.2069 17.3749 10.448C17.616 10.6891 17.7514 11.0162 17.7514 11.3571C17.7514 11.6981 17.616 12.0252 17.3749 12.2663C17.1337 12.5074 16.8067 12.6429 16.4657 12.6429H15.18V13.9286C15.18 14.2696 15.0445 14.5966 14.8034 14.8377C14.5623 15.0788 14.2353 15.2143 13.8943 15.2143C13.5533 15.2143 13.2263 15.0788 12.9851 14.8377C12.744 14.5966 12.6086 14.2696 12.6086 13.9286V12.6429H11.3229C10.9819 12.6429 10.6548 12.5074 10.4137 12.2663C10.1726 12.0252 10.0371 11.6981 10.0371 11.3571C10.0371 11.0162 10.1726 10.6891 10.4137 10.448C10.6548 10.2069 10.9819 10.0714 11.3229 10.0714H12.6086V8.78571C12.6086 8.44472 12.744 8.11769 12.9851 7.87658C13.2263 7.63546 13.5533 7.5 13.8943 7.5ZM20.6931 22.0714C20.6931 21.5599 20.49 21.0694 20.1283 20.7077C19.7666 20.346 19.2761 20.1429 18.7646 20.1429C18.2531 20.1429 17.7625 20.346 17.4009 20.7077C17.0392 21.0694 16.836 21.5599 16.836 22.0714C16.836 22.5829 17.0392 23.0735 17.4009 23.4351C17.7625 23.7968 18.2531 24 18.7646 24C19.2761 24 19.7666 23.7968 20.1283 23.4351C20.49 23.0735 20.6931 22.5829 20.6931 22.0714ZM7.62171 20.1429C7.87498 20.1429 8.12576 20.1927 8.35975 20.2897C8.59373 20.3866 8.80634 20.5286 8.98542 20.7077C9.16451 20.8868 9.30656 21.0994 9.40348 21.3334C9.5004 21.5674 9.55029 21.8182 9.55029 22.0714C9.55029 22.3247 9.5004 22.5755 9.40348 22.8095C9.30656 23.0434 9.16451 23.2561 8.98542 23.4351C8.80634 23.6142 8.59373 23.7563 8.35975 23.8532C8.12576 23.9501 7.87498 24 7.62171 24C7.11023 24 6.61969 23.7968 6.25801 23.4351C5.89633 23.0735 5.69314 22.5829 5.69314 22.0714C5.69314 21.5599 5.89633 21.0694 6.25801 20.7077C6.61969 20.346 7.11023 20.1429 7.62171 20.1429Z" fill="#0673B7"/>
</g>
<defs>
<clipPath id="clip0_52_196">
<rect width="24" height="24" fill="white"/>
</clipPath>
</defs>
</svg>
