<svg width="198" height="40" viewBox="0 0 198 40" fill="none" xmlns="http://www.w3.org/2000/svg">
<g clip-path="url(#clip0_868_1185)">
<path d="M161.5 0H36.5C33.7386 0 31.5 2.23858 31.5 5V35C31.5 37.7614 33.7386 40 36.5 40H161.5C164.261 40 166.5 37.7614 166.5 35V5C166.5 2.23858 164.261 0 161.5 0Z" fill="#0C0D0D"/>
<path d="M161.5 0.8C162.614 0.8 163.682 1.2425 164.47 2.03015C165.258 2.8178 165.7 3.88609 165.7 5V35C165.7 36.1139 165.258 37.1822 164.47 37.9698C163.682 38.7575 162.614 39.2 161.5 39.2H36.5C35.3861 39.2 34.3178 38.7575 33.5302 37.9698C32.7425 37.1822 32.3 36.1139 32.3 35V5C32.3 3.88609 32.7425 2.8178 33.5302 2.03015C34.3178 1.2425 35.3861 0.8 36.5 0.8H161.5ZM161.5 0H36.5C35.1739 0 33.9021 0.526784 32.9645 1.46447C32.0268 2.40215 31.5 3.67392 31.5 5V35C31.5 36.3261 32.0268 37.5979 32.9645 38.5355C33.9021 39.4732 35.1739 40 36.5 40H161.5C162.826 40 164.098 39.4732 165.036 38.5355C165.973 37.5979 166.5 36.3261 166.5 35V5C166.5 3.67392 165.973 2.40215 165.036 1.46447C164.098 0.526784 162.826 0 161.5 0Z" fill="#A6A6A6"/>
<path d="M78.92 10.2402C78.9364 10.6069 78.8785 10.9732 78.7496 11.3169C78.6207 11.6606 78.4235 11.9747 78.17 12.2402C77.8859 12.5335 77.5431 12.7635 77.164 12.9152C76.7849 13.0668 76.378 13.1367 75.97 13.1202C75.5597 13.1294 75.1518 13.0542 74.7717 12.8994C74.3916 12.7446 74.0472 12.5134 73.76 12.2202C73.1773 11.6242 72.8511 10.8237 72.8511 9.99021C72.8511 9.15667 73.1773 8.35624 73.76 7.76021C74.2055 7.32489 74.7697 7.03095 75.3818 6.9153C75.9938 6.79965 76.6264 6.86746 77.2 7.11021C77.5606 7.25844 77.8823 7.48769 78.14 7.78021L77.61 8.31021C77.4114 8.07098 77.1598 7.88135 76.8751 7.75636C76.5904 7.63138 76.2805 7.57449 75.97 7.59021C75.578 7.59292 75.1927 7.6916 74.8477 7.87762C74.5026 8.06365 74.2084 8.33135 73.9907 8.65734C73.773 8.98332 73.6385 9.35767 73.5989 9.74765C73.5593 10.1376 73.6158 10.5314 73.7635 10.8945C73.9112 11.2576 74.1456 11.579 74.4462 11.8306C74.7468 12.0821 75.1044 12.2563 75.4878 12.3378C75.8713 12.4192 76.2688 12.4055 76.6457 12.2979C77.0226 12.1902 77.3675 11.9919 77.65 11.7202C77.9555 11.3853 78.1326 10.9531 78.15 10.5002H75.97V9.78021H78.88C78.9028 9.93258 78.9161 10.0862 78.92 10.2402Z" fill="white" stroke="white" stroke-width="0.2" stroke-miterlimit="10"/>
<path d="M83.5 7.74H80.8V9.64H83.26V10.36H80.8V12.26H83.5V13H80.02V7H83.5V7.74Z" fill="white" stroke="white" stroke-width="0.2" stroke-miterlimit="10"/>
<path d="M86.7801 13H86.0101V7.74H84.3301V7H88.5001V7.74H86.7801V13Z" fill="white" stroke="white" stroke-width="0.2" stroke-miterlimit="10"/>
<path d="M91.4399 13V7H92.2099V13H91.4399Z" fill="white" stroke="white" stroke-width="0.2" stroke-miterlimit="10"/>
<path d="M95.6302 13H94.8602V7.74H93.1802V7H97.3002V7.74H95.6302V13Z" fill="white" stroke="white" stroke-width="0.2" stroke-miterlimit="10"/>
<path d="M105.11 12.2201C104.821 12.5092 104.478 12.7385 104.101 12.895C103.723 13.0514 103.319 13.1319 102.91 13.1319C102.502 13.1319 102.097 13.0514 101.719 12.895C101.342 12.7385 100.999 12.5092 100.71 12.2201C100.145 11.6192 99.8301 10.8252 99.8301 10.0001C99.8301 9.17508 100.145 8.38109 100.71 7.78014C100.993 7.48294 101.335 7.24838 101.714 7.09162C102.093 6.93487 102.5 6.85941 102.91 6.87014C103.32 6.86367 103.726 6.94106 104.104 7.09756C104.483 7.25407 104.825 7.48636 105.11 7.78014C105.398 8.07263 105.624 8.41978 105.775 8.80107C105.926 9.18237 105.999 9.59008 105.99 10.0001C106.003 10.4107 105.932 10.8196 105.781 11.2015C105.629 11.5833 105.401 11.9301 105.11 12.2201ZM101.28 11.7201C101.493 11.936 101.747 12.1074 102.027 12.2244C102.307 12.3414 102.607 12.4017 102.91 12.4017C103.213 12.4017 103.514 12.3414 103.794 12.2244C104.073 12.1074 104.327 11.936 104.54 11.7201C104.972 11.2513 105.211 10.6373 105.211 10.0001C105.211 9.36294 104.972 8.74902 104.54 8.28014C104.327 8.06427 104.073 7.89285 103.794 7.77586C103.514 7.65887 103.213 7.59862 102.91 7.59862C102.607 7.59862 102.307 7.65887 102.027 7.77586C101.747 7.89285 101.493 8.06427 101.28 8.28014C100.849 8.74902 100.609 9.36294 100.609 10.0001C100.609 10.6373 100.849 11.2513 101.28 11.7201Z" fill="white" stroke="white" stroke-width="0.2" stroke-miterlimit="10"/>
<path d="M107.08 13V7H108.01L110.93 11.67V10.51V7H111.7V13H110.9L107.85 8.11V9.26V13H107.08Z" fill="white" stroke="white" stroke-width="0.2" stroke-miterlimit="10"/>
<path d="M99.6401 21.7499C98.7976 21.7519 97.9745 22.0037 97.2751 22.4734C96.5756 22.9432 96.0312 23.6098 95.7106 24.3889C95.39 25.1681 95.3076 26.0248 95.4739 26.8508C95.6402 27.6768 96.0477 28.4349 96.6449 29.0293C97.2421 29.6236 98.0021 30.0276 98.8288 30.19C99.6556 30.3524 100.512 30.2661 101.29 29.9418C102.067 29.6175 102.731 29.07 103.198 28.3683C103.664 27.6667 103.912 26.8425 103.91 25.9999C103.918 25.4379 103.813 24.8799 103.601 24.3593C103.389 23.8386 103.075 23.366 102.676 22.9694C102.278 22.5729 101.804 22.2606 101.282 22.051C100.761 21.8415 100.202 21.7391 99.6401 21.7499ZM99.6401 28.5799C99.1237 28.616 98.6083 28.496 98.1611 28.2353C97.7138 27.9747 97.3553 27.5855 97.1321 27.1184C96.909 26.6512 96.8315 26.1278 96.9098 25.6161C96.9881 25.1043 97.2185 24.628 97.5711 24.249C97.9237 23.8699 98.3821 23.6057 98.8869 23.4907C99.3916 23.3757 99.9193 23.4152 100.401 23.604C100.883 23.7929 101.297 24.1223 101.59 24.5496C101.882 24.9769 102.039 25.4822 102.04 25.9999C102.056 26.3279 102.006 26.6559 101.894 26.9643C101.781 27.2728 101.608 27.5556 101.384 27.7961C101.161 28.0366 100.891 28.2298 100.591 28.3644C100.292 28.499 99.9684 28.5723 99.6401 28.5799ZM90.3201 21.7499C89.4776 21.7519 88.6545 22.0037 87.9551 22.4734C87.2556 22.9432 86.7112 23.6098 86.3906 24.3889C86.07 25.1681 85.9876 26.0248 86.1539 26.8508C86.3202 27.6768 86.7277 28.4349 87.3249 29.0293C87.9221 29.6236 88.6821 30.0276 89.5088 30.19C90.3356 30.3524 91.1919 30.2661 91.9696 29.9418C92.7472 29.6175 93.4113 29.07 93.8777 28.3683C94.3442 27.6667 94.5921 26.8425 94.5901 25.9999C94.5982 25.4379 94.4932 24.8799 94.2813 24.3593C94.0693 23.8386 93.7548 23.366 93.3564 22.9694C92.9579 22.5729 92.4838 22.2606 91.9622 22.051C91.4406 21.8415 90.8821 21.7391 90.3201 21.7499ZM90.3201 28.5799C89.8037 28.616 89.2883 28.496 88.8411 28.2353C88.3938 27.9747 88.0353 27.5855 87.8121 27.1184C87.589 26.6512 87.5115 26.1278 87.5898 25.6161C87.6681 25.1043 87.8985 24.628 88.2511 24.249C88.6037 23.8699 89.0621 23.6057 89.5669 23.4907C90.0716 23.3757 90.5993 23.4152 91.0813 23.604C91.5633 23.7929 91.9773 24.1223 92.2696 24.5496C92.5619 24.9769 92.7188 25.4822 92.7201 25.9999C92.7362 26.3279 92.6865 26.6559 92.5738 26.9643C92.4612 27.2728 92.2879 27.5556 92.0642 27.7961C91.8406 28.0366 91.571 28.2298 91.2714 28.3644C90.9719 28.499 90.6484 28.5723 90.3201 28.5799ZM79.2401 23.0599V24.8599H83.5601C83.4924 25.7077 83.1399 26.5077 82.5601 27.1299C82.1268 27.5714 81.6056 27.9171 81.0302 28.1444C80.4549 28.3718 79.8382 28.4759 79.2201 28.4499C77.9471 28.4499 76.7262 27.9442 75.826 27.044C74.9258 26.1439 74.4201 24.923 74.4201 23.6499C74.4201 22.3769 74.9258 21.156 75.826 20.2558C76.7262 19.3556 77.9471 18.8499 79.2201 18.8499C80.4405 18.8318 81.619 19.2952 82.5001 20.1399L83.7701 18.8699C83.1741 18.2804 82.4664 17.8158 81.6886 17.5033C80.9107 17.1908 80.0783 17.0366 79.2401 17.0499C78.3511 17.0153 77.4643 17.1605 76.6327 17.4769C75.8012 17.7932 75.0421 18.2742 74.4009 18.8909C73.7596 19.5077 73.2495 20.2475 72.9011 21.0661C72.5527 21.8847 72.373 22.7652 72.373 23.6549C72.373 24.5446 72.5527 25.4251 72.9011 26.2437C73.2495 27.0623 73.7596 27.8022 74.4009 28.4189C75.0421 29.0357 75.8012 29.5166 76.6327 29.833C77.4643 30.1493 78.3511 30.2945 79.2401 30.2599C80.0955 30.2941 80.9485 30.1469 81.743 29.8281C82.5375 29.5092 83.2556 29.0259 83.8501 28.4099C84.9002 27.2563 85.4598 25.7391 85.4101 24.1799C85.4137 23.8046 85.3836 23.4298 85.3201 23.0599H79.2401ZM124.55 24.4599C124.289 23.6927 123.802 23.0227 123.152 22.5388C122.502 22.0548 121.72 21.7797 120.91 21.7499C120.363 21.7489 119.822 21.86 119.319 22.0765C118.817 22.2929 118.364 22.6101 117.989 23.0085C117.615 23.4068 117.325 23.8778 117.14 24.3923C116.954 24.9068 116.876 25.454 116.91 25.9999C116.902 26.9128 117.189 27.8039 117.728 28.5402C118.268 29.2765 119.031 29.8184 119.904 30.0851C120.777 30.3517 121.713 30.3288 122.572 30.0196C123.431 29.7105 124.167 29.1318 124.67 28.3699L123.22 27.3699C123.004 27.7302 122.697 28.0277 122.331 28.2329C121.964 28.4382 121.55 28.544 121.13 28.5399C120.697 28.5578 120.268 28.4442 119.9 28.214C119.533 27.9837 119.243 27.6477 119.07 27.2499L124.76 24.8999L124.55 24.4599ZM118.75 25.8799C118.73 25.5693 118.772 25.2578 118.873 24.9635C118.975 24.6693 119.134 24.3983 119.342 24.1664C119.55 23.9346 119.802 23.7464 120.083 23.6131C120.364 23.4798 120.669 23.4039 120.98 23.3899C121.302 23.3703 121.623 23.4461 121.902 23.608C122.182 23.7699 122.407 24.0106 122.55 24.2999L118.75 25.8799ZM114.13 29.9999H116V17.4999H114.13V29.9999ZM111.07 22.6999H111C110.721 22.3818 110.376 22.1277 109.989 21.9551C109.603 21.7825 109.183 21.6955 108.76 21.6999C107.667 21.7529 106.637 22.2243 105.882 23.0165C105.127 23.8087 104.706 24.8608 104.706 25.9549C104.706 27.049 105.127 28.1012 105.882 28.8933C106.637 29.6855 107.667 30.1569 108.76 30.2099C109.184 30.2184 109.605 30.1332 109.992 29.9603C110.379 29.7875 110.723 29.5312 111 29.2099H111.07V29.8199C111.07 31.4499 110.2 32.3199 108.8 32.3199C108.332 32.3096 107.878 32.1606 107.496 31.8918C107.113 31.6229 106.818 31.2464 106.65 30.8099L105.03 31.4799C105.33 32.2322 105.85 32.8758 106.523 33.3258C107.197 33.7757 107.99 34.0108 108.8 33.9999C110.99 33.9999 112.8 32.7099 112.8 29.5699V21.9999H111.07V22.6999ZM108.92 28.5799C108.265 28.5391 107.65 28.25 107.2 27.7716C106.751 27.2932 106.501 26.6614 106.501 26.0049C106.501 25.3485 106.751 24.7167 107.2 24.2383C107.65 23.7598 108.265 23.4708 108.92 23.4299C109.24 23.4437 109.555 23.5218 109.844 23.6596C110.133 23.7973 110.392 23.9918 110.605 24.2316C110.818 24.4714 110.98 24.7515 111.082 25.0553C111.184 25.3591 111.225 25.6803 111.2 25.9999C111.227 26.3206 111.189 26.6435 111.088 26.9491C110.987 27.2546 110.825 27.5365 110.612 27.7777C110.399 28.0189 110.139 28.2143 109.848 28.3522C109.557 28.4901 109.242 28.5676 108.92 28.5799ZM133.31 17.4999H128.83V29.9999H130.7V25.2599H133.31C133.843 25.2982 134.378 25.2263 134.882 25.0487C135.386 24.871 135.848 24.5915 136.239 24.2274C136.63 23.8634 136.942 23.4227 137.155 22.9328C137.369 22.4428 137.479 21.9142 137.479 21.3799C137.479 20.8456 137.369 20.317 137.155 19.8271C136.942 19.3372 136.63 18.8965 136.239 18.5324C135.848 18.1684 135.386 17.8888 134.882 17.7112C134.378 17.5336 133.843 17.4616 133.31 17.4999ZM133.31 23.4999H130.7V19.2399H133.35C133.631 19.2399 133.909 19.2953 134.169 19.4028C134.429 19.5104 134.665 19.668 134.863 19.8667C135.062 20.0654 135.22 20.3013 135.327 20.561C135.435 20.8206 135.49 21.0989 135.49 21.3799C135.49 21.661 135.435 21.9392 135.327 22.1989C135.22 22.4585 135.062 22.6944 134.863 22.8931C134.665 23.0918 134.429 23.2495 134.169 23.357C133.909 23.4646 133.631 23.5199 133.35 23.5199L133.31 23.4999ZM144.85 21.7099C144.169 21.6679 143.491 21.8265 142.899 22.1659C142.307 22.5054 141.828 23.0109 141.52 23.6199L143.17 24.3099C143.337 24.0093 143.587 23.7634 143.89 23.602C144.194 23.4405 144.538 23.3703 144.88 23.3999C145.117 23.3722 145.358 23.392 145.588 23.4582C145.817 23.5245 146.031 23.6358 146.218 23.7856C146.404 23.9355 146.558 24.1209 146.672 24.3311C146.786 24.5413 146.856 24.7721 146.88 25.0099V25.1299C146.279 24.8138 145.609 24.6491 144.93 24.6499C143.15 24.6499 141.33 25.6499 141.33 27.4699C141.348 27.8568 141.443 28.2361 141.61 28.5855C141.777 28.9348 142.013 29.247 142.303 29.5035C142.593 29.7601 142.932 29.9557 143.299 30.0787C143.666 30.2018 144.054 30.2498 144.44 30.2199C144.909 30.2459 145.377 30.1466 145.795 29.9322C146.214 29.7178 146.567 29.3961 146.82 28.9999H146.88V29.9999H148.68V25.1899C148.68 22.9999 147.02 21.7299 144.89 21.7299L144.85 21.7099ZM144.62 28.5599C144.01 28.5599 143.16 28.2499 143.16 27.4999C143.16 26.4999 144.22 26.1599 145.16 26.1599C145.754 26.1453 146.341 26.2903 146.86 26.5799C146.797 27.123 146.54 27.6249 146.135 27.9926C145.731 28.3604 145.207 28.569 144.66 28.5799L144.62 28.5599ZM155.24 21.9999L153.1 27.4199H153.04L150.82 21.9999H148.82L152.15 29.5799L150.25 33.7899H152.2L157.32 21.9999H155.24ZM138.44 29.9999H140.3V17.4999H138.44V29.9999Z" fill="white"/>
<path d="M52.2198 19.4199L41.5698 30.7199C41.6862 31.1473 41.8992 31.5423 42.1925 31.8742C42.4857 32.2062 42.8514 32.4663 43.2612 32.6345C43.6709 32.8026 44.1139 32.8744 44.5558 32.8441C44.9977 32.8138 45.4268 32.6824 45.8098 32.4599L57.8098 25.5399L52.2198 19.4199Z" fill="#EA4335"/>
<path d="M62.9902 17.5L57.8102 14.5L51.9902 19.69L57.8302 25.54L62.9802 22.54C63.438 22.2948 63.8207 21.93 64.0875 21.4845C64.3543 21.0389 64.4952 20.5293 64.4952 20.01C64.4952 19.4907 64.3543 18.9811 64.0875 18.5355C63.8207 18.09 63.438 17.7252 62.9802 17.48L62.9902 17.5Z" fill="#FBBC04"/>
<path d="M41.57 9.28027C41.5172 9.51648 41.4937 9.75831 41.5 10.0003V30.0003C41.5018 30.2502 41.5354 30.4989 41.6 30.7403L52.6 19.7403L41.57 9.28027Z" fill="#4285F4"/>
<path d="M52.3 19.9996L57.81 14.4896L45.81 7.54965C45.3592 7.28165 44.8445 7.14002 44.32 7.13965C43.6874 7.14146 43.0728 7.35082 42.5706 7.73558C42.0685 8.12035 41.7064 8.65927 41.54 9.26965L52.3 19.9996Z" fill="#34A853"/>
</g>
<defs>
<clipPath id="clip0_868_1185">
<rect width="135" height="40" fill="white" transform="translate(31.5)"/>
</clipPath>
</defs>
</svg>
