<svg version="1.2" xmlns="http://www.w3.org/2000/svg" viewBox="0 0 636 492" width="636" height="492">
	<title>Vector Smart Object-ai (1)-svg</title>
	<style>
		.s0 { fill: #109246 } 
		.s1 { fill: #1171b5 } 
	</style>
	<g id="Layer 1">
		<g id="&lt;Group&gt;">
			<g id="&lt;Group&gt;">
				<g id="&lt;Group&gt;">
					<path id="&lt;Path&gt;" class="s0" d="m91.3 262.6c-3.5 4.7-9.3 6.6-13.2 4-3.8-2.6-4.1-9-0.4-14 116.4-158.2 353.8-158.2 470.1 0 3.7 5 3.5 11.4-0.4 14-3.8 2.6-9.6 0.7-13.1-4-109.7-149.1-333.4-149.1-443 0z"/>
				</g>
				<g id="&lt;Group&gt;">
					<path id="&lt;Path&gt;" class="s0" d="m91.6 262.6c-2.8 3.9-7.7 5.5-10.9 3.4-3.2-2.2-3.4-7.4-0.4-11.6 114.5-157.7 350.4-157.7 464.9 0 3 4.2 2.8 9.4-0.4 11.6-3.2 2.1-8 0.5-10.9-3.4-108.9-150-333.3-150-442.3 0z"/>
				</g>
				<g id="&lt;Group&gt;">
					<g id="&lt;Group&gt;">
						<path id="&lt;Path&gt;" class="s1" d="m409.9 119c0.5 8.6-6.1 16.1-14.8 16.6-8.6 0.5-16-6.1-16.5-14.8-0.5-8.6 6.1-16 14.7-16.6 8.7-0.5 16.1 6.1 16.6 14.8z"/>
					</g>
					<g id="&lt;Group&gt;">
						<path id="&lt;Path&gt;" class="s1" d="m484 151.7c0.5 8.4-6 15.6-14.4 16.1-8.5 0.5-15.7-5.9-16.2-14.3-0.5-8.5 5.9-15.7 14.4-16.2 8.4-0.5 15.7 5.9 16.2 14.4z"/>
					</g>
					<g id="&lt;Group&gt;">
						<path id="&lt;Path&gt;" class="s1" d="m539.4 194.1c0.4 7.4-5.2 13.7-12.6 14.2-7.4 0.4-13.7-5.2-14.2-12.6-0.4-7.4 5.2-13.7 12.6-14.2 7.4-0.4 13.7 5.2 14.2 12.6z"/>
					</g>
					<g id="&lt;Group&gt;">
						<path id="&lt;Path&gt;" class="s1" d="m211.6 119c-0.6 8.6 6.1 16.1 14.7 16.6 8.7 0.5 16.1-6.1 16.6-14.8 0.5-8.6-6.1-16-14.8-16.6-8.6-0.5-16 6.1-16.5 14.8z"/>
					</g>
					<g id="&lt;Group&gt;">
						<path id="&lt;Path&gt;" class="s1" d="m137.5 151.7c-0.5 8.4 5.9 15.6 14.4 16.1 8.4 0.5 15.7-5.9 16.1-14.3 0.5-8.5-5.9-15.7-14.3-16.2-8.5-0.5-15.7 5.9-16.2 14.4z"/>
					</g>
					<g id="&lt;Group&gt;">
						<path id="&lt;Path&gt;" class="s1" d="m85.8 194.9c-0.5 7.4 5.2 13.8 12.5 14.2 7.4 0.4 13.8-5.2 14.2-12.6 0.4-7.4-5.2-13.7-12.6-14.1-7.4-0.5-13.7 5.2-14.1 12.5z"/>
					</g>
					<path id="&lt;Path&gt;" class="s0" d="m374.5 156.3c-1.8 3-5.8 7.9-7.6 10.8 13.1 3 22.7 5.2 34.7 8.8-0.1-3.5 0.1-9.1 0-12.5q-13.5-3.5-27.1-7.1z"/>
					<path id="&lt;Path&gt;" class="s0" d="m465.3 192.7c-0.8 2.5-2.3 11-3.1 13.5-8.4-5.3-18.4-11.3-27.6-16.1 1.7-2.1 6.2-7 7.9-9.1 7.1 3.6 15.8 8.1 22.8 11.7z"/>
					<path id="&lt;Path&gt;" class="s0" d="m507.3 217.9c-1.1 1.4-15 9.2-16 10.6 7.2 6.5 11.8 12.2 18.4 18.4 1-1 10-14.5 11-15.5-6.3-4.9-7.1-8.7-13.4-13.5z"/>
					<path id="&lt;Path&gt;" class="s0" d="m293.5 161.5c15.3-0.4 25.1-0.7 41.3 0.9-1.1-3.2-2.1-9.1-3.2-12.3q-16.7-0.1-33.3-0.3c-1.3 3.3-3.6 8.3-4.8 11.7z"/>
					<path id="&lt;Path&gt;" class="s1" d="m362.8 175c-5.1 8.1-11.6 17.8-13.8 21.2-0.4 0.5-1.5 2.1-1.9 4.5-0.2 1.2-0.6 3.4 0.6 5.6 0.7 1.4 1.7 2.1 2.4 2.7 1.4 1.1 2.7 1.5 3.4 1.7 1 0.3 2.9 0.9 5.1 0.3 2-0.6 3.2-1.8 3.8-2.4 1-1 1.1-1.6 2.7-4.2 0.6-1 1.4-2.2 3-4.5 2-3 2.1-3 3.4-4.8 1.9-2.9 2.2-3.7 3.9-6.5 1-1.6 3.9-6.7 6-9.3-6.6-1.2-12-3-18.6-4.3z"/>
					<path id="&lt;Path&gt;" class="s1" d="m383 179.7c1.2 10.1 2.9 23.4 4.1 33.5 0.4 1.8 1.1 2.9 1.5 3.5 0.4 0.5 1 1.2 2.1 2 1.5 1 2.5 1.3 3.4 1.5 1.7 0.4 3.2-0.1 4.2-0.4 1.4-0.4 2.3-1 2.8-1.4 0.8-0.5 2.3-1.6 3-3.7 0.3-0.7 0.4-1.3 0.4-1.7-0.9-8.7-1.6-18.7-2.4-27.3-6.9-2.3-13-4.6-19.1-6z"/>
					<path id="&lt;Path&gt;" class="s1" d="m336.3 171.2c-8.2-0.8-14.2-1.3-21.3-1.4 2.9 7 8 20.4 10.5 28.1q0.4 1.1 0.7 2.3c0.6 1.8 1.7 3.5 3.2 4.6q0 0.1 0 0.1c1.5 1.1 2.6 1.4 3.6 1.8 3.1 1.1 6.1-0.5 6.6-0.7 1.8-1 2.8-2.3 3.3-3 0.2-0.2 1.1-1.6 1.7-3.6 0.6-1.8 0.6-3.4 0.5-4.7q-0.2-1.2-0.6-2.3c-2.1-5.8-6.3-15.9-8.2-21.2z"/>
					<path id="&lt;Path&gt;" class="s1" d="m311.1 169.7c-2.6 7.2-7.2 20.2-10 28.2-0.7 1.8-1.8 3.5-3.2 4.8-0.8 0.7-2.2 1.9-4.5 2.4-0.7 0.2-2.1 0.5-3.8 0.3-1-0.2-2.4-0.4-3.9-1.4-0.9-0.7-1.4-1.5-2.1-2.6-1.2-2-1.6-3.8-1.7-4.3-0.3-1.4-0.1-2.8 0.3-4.1 2.3-6.2 6.2-17.5 8.1-22.7 7-0.4 12.7-0.6 20.8-0.6z"/>
					<path id="&lt;Path&gt;" class="s1" d=""/>
					<path id="&lt;Path&gt;" class="s0" d="m307.5 87.2c-2.9 1.7-3.8 3.6-4.2 4.9-0.6 2.2 0.3 3.9-1 6.6-0.6 1.2-1.4 1.9-1.7 2.1-1.2 0.9-2.3 1.2-2.8 1.3-0.6 0.1-1.7 0.2-2.9-0.1-0.9-0.3-1.5-0.7-2.1-1.2-0.4-0.3-1.1-1.1-1.7-2.1-0.8-1.4-0.8-2.7-0.8-4.4 0.1-2.4 0.5-4.2 0.8-5 1-3.1 2.4-5.2 3.4-6.5 2.5-3.5 5.2-5.4 5.9-5.9 2.8-2 5.4-2.9 6.3-3.2 2.6-0.8 4.7-0.9 5.9-1 1.9-0.1 5-0.3 8.7 0.9 0.7 0.2 3.7 1.2 6.9 3.5 4 3 6 6.5 6.5 7.2 3.3 5.8 3 11.4 2.8 13.8-0.1 2.1-0.3 5.2-2.1 8.7-1.4 2.6-3 4.2-4.4 5.6-1.5 1.5-3.9 3.5-7.4 5.4-1.9 1-3.1 3.1-3.1 5.3v13.7c0 3.4-2.8 6.1-6.2 6.1-3.4 0-6.1-2.7-6.1-6.1 0-4 0-14 0-18q-0.1-0.4-0.1-0.8 0-1.8 0.9-3.3 0.2-0.3 0.4-0.5c1-1.6 2.1-2.6 2.9-3.2 2.8-2.4 5.2-3.4 9.2-6.1 0.5-0.3 1.7-1.1 2.8-2.6q0.2-0.3 0.4-0.6 0.6-1 0.8-2.3c0.1-1 0.2-2.3 0.1-3.6 0-1.2-0.1-2.6-0.8-4.3-1.2-2.7-3.1-4.2-3.6-4.5-2.9-2.2-6.1-2.1-7.1-2.1-3.3 0.1-5.7 1.7-6.6 2.3z"/>
					<path id="&lt;Path&gt;" class="s1" d="m429.1 197q-9.8 9.6-19.5 19.2c-1.3 1.3-2.3 2.8-3.1 4.4-0.2 0.9-0.8 3.1 0.2 5.5 0.6 1.3 1.4 2.2 1.9 2.6 1.1 1.2 2.3 1.8 2.8 2 0.8 0.4 2 1 3.5 1 1.6-0.1 2.7-0.7 3.5-1.1 1.1-0.7 4.3-3.9 5.5-4.9 2.5-2.3 3.1-3.1 5.5-5.3 2.3-2.1 2.4-2 4.7-4.1 2-1.8 2.5-2.5 5.3-5.2 1.5-1.5 2.8-2.7 3.6-3.4 0.4-0.2 0.7-0.2 1 0 0.1 0.1 0.2 0.3 0.2 0.4q-0.1 1.6-0.2 3.2-0.3 4-0.6 7.9-1.2 9.8-2.4 19.7c-0.1 1.4 0 2.4 0.2 3.2 0.2 1 0.5 2.3 1.6 3.4 0.6 0.7 1.4 1.1 1.9 1.3 0.3 0.2 1.2 0.6 2.4 0.8 1.2 0.2 3 0.6 4.8-0.3 0.7-0.4 1.2-0.8 2.1-1.7 0.4-0.4 1.2-1.2 1.8-2.4 0.5-0.8 0.6-1.6 0.8-2.1q1.2-9.9 2.4-19.9 0.4-3.2 0.8-6.4c-9.7-6.6-20-12.6-30.7-17.8z"/>
					<path id="&lt;Path&gt;" class="s1" d="m483.1 232.8q-12.5 6.9-25 13.9c-1.2 0.8-2.1 1.7-2.6 2.3-0.9 1-1.5 1.7-1.9 3-0.4 1.3-0.2 2.4 0 3.4 0.2 1.2 0.6 3.1 2.2 4.7 0.3 0.3 1.4 1.3 3.2 1.8 0.6 0.2 3.1 0.8 5.5-0.6 0.6-0.4 9.8-6.3 12.6-7.6 1.9-1 3.7-1.8 6.5-3.4 3-1.8 6.6-3.6 6.6-3.6 0.4 0.2 0 1.2-0.1 1.8-0.7 1.8-1.5 3.8-3.4 8.9-3.6 9.3-5.4 13.9-6 15-0.2 0.4-0.7 1.3-0.9 2.6-0.3 1.6 0 2.9 0.2 3.8 0.2 1 0.4 1.6 0.8 2.3 0.6 1 1.4 1.5 1.9 1.8 0.5 0.5 1.6 0.9 3.4 1.2 0.4 0 2 0.2 3.9-0.7 0.3-0.1 1.4-0.5 2.8-2.4 1.7-2.5 2.5-4.9 2.7-5.3 0.6-2.2 2.5-8 8.5-22.2q-9.8-11-20.9-20.7z"/>
					<path id="&lt;Path&gt;" class="s0" d="m252.5 156.3c1.8 3 5.8 7.9 7.6 10.8-13.1 3-22.7 5.2-34.7 8.8 0.1-3.5-0.1-9.1 0-12.5q13.5-3.5 27.1-7.1z"/>
					<path id="&lt;Path&gt;" class="s0" d="m161.7 192.7c0.8 2.5 2.4 11 3.1 13.5 8.4-5.3 18.5-11.3 27.6-16.1-1.7-2.1-6.2-7-7.9-9.1-7.1 3.6-15.8 8.1-22.8 11.7z"/>
					<path id="&lt;Path&gt;" class="s0" d="m119.7 217.9c1.1 1.4 15 9.2 16.1 10.6-7.3 6.5-11.9 12.2-18.5 18.4-1-1-10-14.5-11-15.5 6.3-4.9 7.1-8.7 13.4-13.5z"/>
					<path id="&lt;Path&gt;" class="s1" d="m264.2 175c5.1 8.1 11.6 17.8 13.9 21.2 0.3 0.5 1.4 2.1 1.8 4.5 0.2 1.2 0.6 3.4-0.6 5.6-0.7 1.4-1.7 2.1-2.4 2.7-1.4 1.1-2.7 1.5-3.4 1.7-1 0.3-2.9 0.9-5.1 0.3-2-0.6-3.2-1.8-3.8-2.4-1-1-1.1-1.6-2.6-4.2-0.7-1-1.5-2.2-3.1-4.5-2-3-2.1-3-3.4-4.8-1.9-2.9-2.2-3.7-3.9-6.5-1-1.6-3.9-6.7-6-9.3 6.6-1.2 12-3 18.6-4.3z"/>
					<path id="&lt;Path&gt;" class="s1" d="m244 179.7c-1.2 10.1-2.9 23.4-4.1 33.5-0.3 1.8-1.1 2.9-1.5 3.5-0.4 0.5-1 1.2-2.1 2-1.5 1-2.5 1.3-3.4 1.5-1.7 0.4-3.2-0.1-4.2-0.4-1.4-0.4-2.3-1-2.8-1.4-0.8-0.5-2.3-1.6-3-3.7-0.3-0.7-0.4-1.3-0.4-1.7 0.9-8.7 1.6-18.7 2.4-27.3 6.9-2.3 13-4.6 19.1-6z"/>
					<path id="&lt;Path&gt;" class="s1" d="m197.9 197q9.8 9.6 19.5 19.2c1.3 1.3 2.3 2.8 3.1 4.4 0.2 0.9 0.8 3.1-0.2 5.5-0.6 1.3-1.4 2.2-1.9 2.6-1.1 1.2-2.3 1.8-2.8 2-0.8 0.4-2 1-3.5 1-1.6-0.1-2.7-0.7-3.5-1.1-1.1-0.7-4.3-3.9-5.4-4.9-2.6-2.3-3.2-3.1-5.6-5.3-2.3-2.1-2.4-2-4.7-4.1-2-1.8-2.5-2.5-5.3-5.2-1.5-1.5-2.8-2.7-3.6-3.4-0.3-0.2-0.7-0.2-1 0-0.1 0.1-0.2 0.3-0.2 0.4q0.1 1.6 0.2 3.2 0.3 4 0.6 7.9 1.2 9.8 2.4 19.7c0.1 1.4 0 2.4-0.2 3.2-0.2 1-0.5 2.3-1.5 3.4-0.7 0.7-1.5 1.1-2 1.3-0.3 0.2-1.2 0.6-2.4 0.8-1.2 0.2-3 0.6-4.7-0.3-0.8-0.4-1.3-0.8-2.1-1.7-0.5-0.4-1.3-1.2-1.9-2.4-0.5-0.8-0.6-1.6-0.8-2.1q-1.2-9.9-2.4-19.9-0.4-3.2-0.8-6.4c9.7-6.6 20-12.6 30.7-17.8z"/>
					<path id="&lt;Path&gt;" class="s1" d="m143.9 232.8q12.5 6.9 25 13.9c1.2 0.8 2.1 1.7 2.6 2.3 0.9 1 1.5 1.7 1.9 3 0.4 1.3 0.2 2.4 0 3.4-0.2 1.2-0.6 3.1-2.2 4.7-0.3 0.3-1.4 1.3-3.2 1.8-0.6 0.2-3.1 0.8-5.5-0.6-0.6-0.4-9.8-6.3-12.6-7.6-1.9-1-3.7-1.8-6.5-3.4-3-1.8-6.6-3.6-6.6-3.6-0.4 0.2 0 1.2 0.2 1.8 0.6 1.8 1.4 3.8 3.3 8.9 3.6 9.3 5.4 13.9 6 15 0.2 0.4 0.7 1.3 0.9 2.6 0.3 1.6 0 2.9-0.2 3.8-0.2 1-0.3 1.6-0.8 2.3-0.6 1-1.3 1.5-1.9 1.8-0.5 0.5-1.6 0.9-3.4 1.2-0.3 0-2 0.2-3.9-0.7-0.3-0.1-1.3-0.5-2.7-2.4-1.8-2.5-2.6-4.9-2.8-5.3-0.6-2.2-2.5-8-8.5-22.2q9.8-11 20.9-20.7z"/>
				</g>
			</g>
			<g id="&lt;Group&gt;">
				<g id="&lt;Group&gt;">
					<path id="&lt;Compound Path&gt;" class="s1" d="m15.9 312.8h15.4v31.2q0 1.9 0.7 3.6 0.6 1.6 1.8 2.9 1.3 1.2 2.9 1.9 1.6 0.7 3.4 0.7 1.8 0 3.4-0.7 1.6-0.7 2.8-1.9 1.2-1.3 1.8-2.9 0.7-1.6 0.7-3.4v-28.1q0-1.5-0.9-3.3h15.4v32.7q0 4.9-1.8 9.2-1.8 4.3-4.9 7.6-3.2 3.2-7.4 5.1-4.3 1.8-9.1 1.8-3.2 0-6.2-0.8-3-0.9-5.6-2.5-2.6-1.5-4.7-3.7-2.1-2.1-3.6-4.8-1.5-2.6-2.3-5.7-0.9-3-0.9-6.2v-29.4q0-0.7-0.2-1.4-0.2-0.8-0.7-1.9z"/>
					<path id="&lt;Compound Path&gt;" class="s1" d="m87 312.8l18.3 31.9v-28.5q0-1.5-1-3.4h15.5v55.6h-15l-18.3-31.9v31.9h-14.5v-52.2q0-1.5-1-3.4z"/>
					<path id="&lt;Compound Path&gt;" class="s1" d="m142.6 312.8v55.6h-14.5v-52.2q0-1.5-1-3.4z"/>
					<path id="&lt;Compound Path&gt;" class="s1" d="m192.7 312.8v13.7h-13.3v41.9h-14.5v-41.9h-13.3v-10.3q0-1.5-1-3.4z"/>
					<path id="&lt;Compound Path&gt;" class="s1" d="m237 312.8v13.7h-21.5v7.8h18.1v13.7h-18.1v6.8h22.7v13.6h-37.1v-52.2q0-1.5-1.1-3.4z"/>
					<path id="&lt;Compound Path&gt;" fill-rule="evenodd" class="s1" d="m263.7 312.8q3.7 0 7.2 0.9 3.5 1 6.5 2.9 3 1.8 5.4 4.4 2.5 2.5 4.3 5.6 1.8 3.1 2.8 6.6 1 3.5 1 7.3 0 3.8-1 7.4-1 3.6-2.8 6.7-1.7 3.1-4.2 5.7-2.5 2.5-5.5 4.3-3 1.9-6.5 2.8-3.4 1-7.2 1h-17v-52.2q0-1.5-1-3.4zm0 40.8q2.7 0 5-1 2.3-1.1 4-2.8 1.6-1.8 2.7-4.2 1-2.4 1-5.1 0-2.6-1-5-1.1-2.4-2.8-4.1-1.7-1.8-4-2.8-2.3-1-4.9-1h-2.5v26z"/>
					<path id="&lt;Compound Path&gt;" class="s1" d="m331.3 312.8v25.5h16.6v-22.2q0-1.4-1-3.3h15.6v55.6h-14.6v-16.3h-16.6v16.3h-14.5v-52.3q0-0.7-0.2-1.4-0.2-0.8-0.7-1.9z"/>
					<path id="&lt;Compound Path&gt;" fill-rule="evenodd" class="s1" d="m376.6 316.4q0.1-0.3 0.1-0.6 0.1-0.4 0.1-0.7 0-1-0.6-2.3h24.4l11.1 55.6h-14.8l-1.3-7.6h-13.3l-1.3 7.6h-14.7zm8 30.8h8.6l-4.3-25.2z"/>
					<path id="&lt;Compound Path&gt;" class="s1" d="m435.5 312.8l18.2 31.9v-28.5q0-1.5-0.9-3.4h15.4v55.6h-15l-18.3-31.9v31.9h-14.4v-52.2q0-1.5-1.1-3.4z"/>
					<path id="&lt;Compound Path&gt;" class="s1" d="m472.1 340.1q0-3.9 1-7.5 1-3.6 2.8-6.7 1.7-3.1 4.2-5.7 2.5-2.5 5.6-4.4 3.1-1.9 6.6-2.8 3.5-1 7.3-1 4.6 0 9 1.5 4.3 1.5 8.3 4.6l-7.4 14.6q-0.5-0.6-0.6-0.7 0 0-0.1-0.1-1.7-2.2-4.2-3.3-2.5-1.2-5.1-1.2-2.6 0-4.9 1-2.2 1-3.9 2.7-1.6 1.7-2.6 4-0.9 2.4-0.9 5 0 2.7 0.9 5 1 2.2 2.6 3.9 1.7 1.7 3.9 2.7 2.3 1 4.9 1 1 0 1.9-0.1 1-0.2 2-0.5l0.8-0.3v-5.6q0-1.5-1-3.4h15.5v25.6h-19.4q-2.7 0-5.4-0.6-2.6-0.6-5.2-1.8-5.1-2.3-8.7-6-3.6-3.7-5.7-8.9-2.2-5.4-2.2-11z"/>
					<path id="&lt;Compound Path&gt;" class="s1" d="m563.4 312.8v13.7h-21.5v7.8h18.1v13.7h-18.1v6.8h22.7v13.6h-37.1v-52.2q0-1.5-1.1-3.4z"/>
					<path id="&lt;Compound Path&gt;" fill-rule="evenodd" class="s1" d="m572.1 312.8h21.5q4.1 0 7.6 1.5 3.6 1.6 6.2 4.3 2.6 2.7 4.1 6.3 1.5 3.7 1.5 7.8 0 6.6-3.8 11.8l-0.6 0.9 0.7 0.8q2.8 3 4.3 6.9 1.5 3.9 1.5 8.1v7.2h-13.4v-7.2q0-1.7-0.6-3.3-0.7-1.6-1.8-2.8-1.2-1.1-2.7-1.8-1.5-0.7-3.3-0.7h-5.7v15.8h-14.5v-52.2q0-1.5-1-3.4zm15.5 26.1h6q1.3 0 2.4-0.5 1-0.4 1.9-1.3 0.9-0.8 1.3-2 0.4-1.1 0.4-2.4 0-1.2-0.4-2.4-0.4-1.1-1.3-2-0.8-0.9-1.9-1.3-1.1-0.5-2.4-0.5h-6z"/>
				</g>
			</g>
			<g id="&lt;Group&gt;">
				<g id="&lt;Group&gt;">
					<g id="&lt;Group&gt;">
						<path id="&lt;Compound Path&gt;" fill-rule="evenodd" class="s0" d="m148.7 463.3q2.2 2.2 6.1 4.7l1.1 0.5 1.2 0.8-1.5 2.6q-4.7-2.6-8-5.6-1.5-1.4-2.9-3.2-1.5-1.8-3-4.1l-1.4 1-1.8 0.9q-0.8 0.6-2 0.9l-1.5 0.5-2.4 0.2q-1.9 0.2-3.9-0.3-2-0.4-3.9-1.6-3-1.9-4.6-5.2-1.5-3.2-1.9-7l-0.1-1.3-0.2-1.6 0.3-3q0.6-3.4 1.8-7.1 1.2-3.6 2.9-6.4 2.7-4.8 7.2-9.2 4.5-4.5 9.7-6.4l2-0.6 2.1-0.2q2.3-0.2 4.2 0.4 1.8 0.4 4.2 1.8 3.2 2.2 4.5 4.8 1.5 2.8 1.8 6.1v2.5l-0.2 2.6q-0.4 3.6-1.6 6.9-0.5 1.5-1.3 3.2-0.7 1.8-1.5 3.3l-0.2 0.4-0.2 0.3q-1.8 3.5-4.1 6.6-1.2 1.5-2.5 2.9-1.4 1.5-3.1 2.9 2.2 3.4 4.7 6zm-8.9-7.7l-1.1-2.2-0.6-1.3-0.5-1.5-0.5-1.6-0.4-1.7-0.4-2.5-0.2-2.4 2.9-0.3 0.1 1.9 0.2 2 0.9 3.3 1 2.6 1.4 2.7q2.6-2.2 4.9-5.2 1-1.4 2.5-3.9 1.1-1.9 1.5-2.6l1.7-3.8 1.4-3.7q0.4-1.8 0.6-2.5 0.1-0.7 0.3-2.1 0.5-2.6 0.3-4.6-0.2-2.5-1.5-4.9-1.2-2.4-3.8-4.1-1.2-0.7-3.1-1.4l-1.6-0.2h-1.8l-1.1 0.1-1.6 0.4q-1.2 0.3-2.5 1.1-1.9 0.9-3.7 2.3-1.8 1.3-3.6 3.2-3.6 3.6-6 7.8-1 1.8-2.4 5.4-0.5 1.1-0.9 3.1-0.4 2-0.5 2.4l-0.3 3.3 0.1 3.1 0.5 3.1q0.1 0.6 0.4 1.3 0.2 0.8 0.6 1.5 0.7 1.4 1.5 2.4 0.7 1 1.9 1.9 1.2 1 2.9 1.6 1.6 0.3 3.1 0.2l1.2-0.1 1.5-0.4 1.2-0.4 1.4-0.8 1.3-0.8 1.3-0.9z"/>
						<path id="&lt;Compound Path&gt;" fill-rule="evenodd" class="s0" d="m155.7 472.5l-0.3-0.2c-3.2-1.7-5.9-3.6-8.1-5.6q-1.5-1.6-3-3.4-1.3-1.6-2.7-3.7l-1 0.7-1.9 1q-0.9 0.5-2.1 0.9l-1.6 0.5-2.4 0.2q-1.9 0.2-4-0.3-2.1-0.4-4-1.7c-2.1-1.3-3.7-3.1-4.7-5.3-1.1-2.1-1.8-4.6-2-7.1l-0.3-3 0.3-3.1q0.5-3.4 1.8-7.1c0.8-2.5 1.8-4.7 2.9-6.6 1.8-3.1 4.3-6.2 7.3-9.2 3-3 6.3-5.2 9.9-6.5l2-0.6 2.1-0.3q2.5-0.2 4.4 0.4c1.2 0.3 2.7 1 4.3 1.9q3.3 2.3 4.7 5.1c1 1.8 1.6 3.9 1.8 6.2v2.5l-0.1 2.6q-0.5 3.7-1.7 7.1-0.5 1.4-1.3 3.2-0.7 1.8-1.5 3.3l-0.4 0.7q-1.8 3.5-4.2 6.6-1.2 1.6-2.5 3-1.2 1.3-2.8 2.7 2 3.2 4.4 5.6c1.5 1.5 3.5 3 6 4.6l1.1 0.5 1.6 1zm-14-14.1l0.3 0.4q1.5 2.2 2.9 4 1.5 1.8 2.9 3.2c2.1 1.9 4.6 3.7 7.5 5.3l1.1-1.9-0.8-0.5-1.1-0.5q-3.9-2.5-6.2-4.8c-1.7-1.7-3.3-3.8-4.7-6.1l-0.2-0.3 0.3-0.2q1.7-1.5 3-2.8 1.3-1.4 2.5-3c1.5-2 2.9-4.2 4.1-6.5l0.3-0.7q0.8-1.5 1.5-3.2 0.8-1.8 1.3-3.2 1.2-3.3 1.6-6.8l0.2-2.6v-2.5c-0.2-2.1-0.8-4-1.8-5.8q-1.2-2.6-4.3-4.7-2.3-1.4-4.1-1.8-1.8-0.6-4.1-0.4l-2.1 0.2-1.8 0.6c-3.4 1.2-6.6 3.4-9.6 6.3-2.9 2.9-5.3 6-7.1 9.1q-1.7 2.8-2.9 6.4c-0.8 2.4-1.4 4.7-1.7 7l-0.3 3 0.2 2.8c0.3 2.5 0.9 4.8 1.9 6.9q1.6 3.1 4.4 4.9 1.9 1.2 3.8 1.6 2 0.5 3.8 0.3l2.3-0.2 1.5-0.5q1.1-0.3 1.9-0.8l1.8-1zm-10.2 1.8q-1.1 0-2.4-0.2-1.8-0.7-3-1.7-1.3-0.9-2.1-2-0.8-1-1.5-2.5-0.3-0.6-0.6-1.5-0.3-0.8-0.4-1.3l-0.5-3.2-0.1-3.2 0.3-3.3q0.1-0.4 0.5-2.4 0.4-2.1 0.9-3.2 1.4-3.6 2.5-5.5c1.6-2.8 3.6-5.4 6-7.9q1.8-1.8 3.6-3.2 1.9-1.4 3.8-2.4 1.4-0.7 2.6-1l1.6-0.5 1.1-0.1h1.9l1.7 0.3q2 0.7 3.3 1.4 2.6 1.7 3.9 4.2 1.3 2.5 1.6 5.1 0.1 2.1-0.3 4.7-0.2 1.5-0.4 2.2-0.1 0.7-0.6 2.4l-1.4 3.8-1.7 3.8q-0.4 0.7-1.5 2.7-1.6 2.5-2.5 3.9-2.4 3.1-5 5.3l-0.4 0.4-1.6-3.3-1.1-2.6-0.9-3.4-0.3-3.5-2.1 0.2 0.2 2 0.5 2.5 0.3 1.6 0.5 1.6 1.1 2.8 1.1 2.2 0.7 1.1-1.7 1.2-1.3 0.7-1.4 0.8-1.2 0.5-1.6 0.4-1.2 0.1q-0.5 0-0.9 0zm14.1-44.3l-1.7 0.1-1.1 0.1-1.5 0.4q-1.1 0.3-2.4 1-1.9 1-3.6 2.3-1.8 1.3-3.6 3.1c-2.3 2.4-4.3 5-5.9 7.7-0.7 1.3-1.5 3-2.4 5.4q-0.4 1.1-0.8 3.1-0.4 2-0.5 2.4l-0.4 3.2 0.1 3.1 0.5 3q0.1 0.5 0.4 1.3 0.2 0.7 0.6 1.3 0.6 1.4 1.4 2.4 0.8 1 1.9 1.9 1.1 0.9 2.8 1.5c1 0.2 2 0.2 2.9 0.1l1.2-0.1 1.4-0.3 1.2-0.5 1.3-0.7 1.2-0.8 1-0.6-0.3-0.5-1.1-2.2-1.1-2.9-0.5-1.6-0.4-1.7-0.4-2.6-0.3-2.9 3.8-0.3 0.4 4.3 0.8 3.3 1 2.5 1.2 2.2q2.3-2.1 4.4-4.8 0.9-1.4 2.4-3.9 1.2-1.9 1.5-2.5l1.7-3.8 1.4-3.7q0.4-1.7 0.6-2.4 0.1-0.7 0.3-2.1 0.5-2.6 0.3-4.5-0.2-2.4-1.4-4.8-1.3-2.3-3.7-3.9-1.2-0.6-3-1.3z"/>
					</g>
					<g id="&lt;Group&gt;">
						<path id="&lt;Compound Path&gt;" class="s0" d="m158.8 454.3l0.2-0.2 0.3-0.3 1.3-1.1 1.2-1.2 2.1-2.1 2.1-2.5 3-3.7 2.6-3.5 2.7-4.3q0.8-1.4 1.6-2.8 0.1-0.3 0.9-1.9l1.1-2.7 1.1-2.8 2.7 1-10.6 33.3-2.8-0.9 5.3-16.5-2.5 3.2-2.9 3.6-2.1 2.4-2 2.1-1.7 1.6-1.7 1.6-1.9 1.6-2.2 1.6-2.3-1.5 10.8-31.8 2.7 0.9z"/>
						<path id="&lt;Compound Path&gt;" fill-rule="evenodd" class="s0" d="m156.7 460.3l-2.9-1.8 11-32.6 3.6 1.3-8.7 25.7 0.6-0.5 3.3-3.3 2.1-2.4 3-3.8 2.5-3.4 2.8-4.3q0.7-1.4 1.5-2.8c0.1-0.1 0.2-0.5 0.9-1.9l1.1-2.6 1.2-3.2 3.6 1.2-10.9 34.1-3.6-1.1 4.7-14.6-1.1 1.3-2.9 3.5-2.1 2.5-2 2.1-3.4 3.2-1.9 1.6zm-1.9-2.2l1.8 1.1 1.9-1.4 2-1.6 1.6-1.5 1.7-1.6 1.9-2.2 2.2-2.4 2.9-3.5 3.9-5.2-5.8 18.5 2 0.6 10.3-32.5-2-0.7-0.9 2.4-1.2 2.7c-0.6 1.5-0.8 1.8-0.8 1.9q-0.8 1.5-1.6 2.9l-2.8 4.3-2.5 3.5-3.1 3.8-2.1 2.4-3.3 3.3-1.8 1.6-1.3 1.3 9.5-28.2-2-0.6z"/>
					</g>
					<g id="&lt;Group&gt;">
						<path id="&lt;Compound Path&gt;" class="s0" d="m178.8 455.6q-0.1-0.3-0.3-0.8-0.1-0.4-0.2-1.2-0.1-1.3 0.1-2.5 0.2-1.1 0.9-2.8 1.2-3.1 3.5-6.4 2.5-3.7 5.5-6.7 0.7-0.7 1.1-1.1 1.3-1.3 2-2l3.5-2.9 9.3-7.3 1.8 2.3-9.3 7.3q-2.5 1.8-4.7 4.3l-2 2.2-2 2.4q-0.6 0.9-1.4 2-0.7 1.1-1.1 1.8l-2.1 3.8-1.1 3.2q-0.3 1.2-0.3 2.2l0.1 0.6 0.3 0.5 0.4 0.1h0.5q1.4-0.1 4.1-1.9 2.6-1.9 5.7-4.9 1.3-1.3 2.2-2.5 1-1.2 2.3-2.8 1.1-1.7 2-3.2 0.8-1.5 1.5-3.2l4.5-11 2.7 1.2-2.2 5-1.6 4.5-0.9 2.7-0.9 2.7-0.7 2.8-0.7 2.8-0.6 2.6-0.6 2.2-0.1 0.6-0.1 0.8-0.3 1.4-0.3 1.7-3.3-0.5 0.5-2.4 0.5-2.2 0.5-2.1 0.6-2.3-3.3 3.9q-0.3 0.5-0.7 1-0.5 0.4-0.9 0.7l-1.8 1.8q-0.7 0.6-1.8 1.3-1 0.7-2.1 1.3-1.8 1.1-3.7 1.2-1.1 0.1-1.7 0-0.6-0.2-0.9-0.3-0.4-0.1-1-0.5-1-0.5-1.4-1.4z"/>
						<path id="&lt;Compound Path&gt;" fill-rule="evenodd" class="s0" d="m183 458.3q-0.6 0-1-0.1-0.6-0.2-1-0.3-0.4-0.1-1-0.5-1.1-0.6-1.6-1.6-0.1-0.3-0.3-0.8-0.2-0.6-0.2-1.4-0.2-1.3 0.1-2.5 0.2-1.2 0.9-2.9c0.8-2.1 2-4.3 3.5-6.6 1.7-2.4 3.6-4.7 5.6-6.7l1.1-1.1q1.3-1.4 2-2l3.5-2.9 9.6-7.6 2.4 2.9-0.7 0.6 2.9 1.2-2.3 5.5-1.6 4.4-1.8 5.5-1.4 5.5-1.3 5.4-0.1 0.7-0.7 3.6-4.1-0.6 0.6-2.9 0.5-2.2 0.6-2.5-2 2.4q-0.3 0.5-0.9 1l-2.6 2.5q-0.8 0.6-1.8 1.3-1.1 0.8-2.2 1.4-1.8 1.1-3.8 1.3-0.5 0-0.9 0zm21.1-35.8l-9 7.1-3.4 2.9q-0.7 0.6-2 1.9l-1.1 1.1q-3 3-5.4 6.6c-1.5 2.2-2.7 4.4-3.5 6.4q-0.7 1.6-0.9 2.7-0.2 1.1-0.1 2.4 0.1 0.7 0.2 1.1 0.1 0.4 0.3 0.6v0.1q0.4 0.8 1.2 1.3c0.5 0.3 0.7 0.4 0.9 0.4q0.3 0.1 0.9 0.3 0.6 0.1 1.6 0 1.8-0.2 3.5-1.2 1.1-0.6 2.1-1.3 1-0.7 1.7-1.2l2.7-2.6q0.4-0.4 0.7-0.8l4.6-5.5-1.2 4.2-0.4 2.1-0.6 2.2-0.4 1.9 2.4 0.4 0.6-2.7v-0.7l0.2-0.7 0.6-2.2 1.3-5.4 0.7-2.8 1.8-5.5 1.6-4.5 2-4.6-1.9-0.8-4.3 10.5q-0.7 1.8-1.6 3.3-0.9 1.6-2 3.2-1.3 1.7-2.2 2.9-1 1.2-2.3 2.5c-2.1 2-4 3.7-5.8 4.9-1.8 1.3-3.2 1.9-4.3 2l-0.6 0.1-0.6-0.3-0.4-0.6-0.1-0.8q0-1 0.3-2.3l1.1-3.2 2.2-3.9q0.3-0.7 1.1-1.8 0.7-1.2 1.3-2l2.1-2.5 1.9-2.2q2.4-2.5 4.8-4.3l9-7.1zm-21.4 31.7h0.5q1.4-0.1 3.9-1.9 2.5-1.8 5.7-4.8 1.2-1.3 2.2-2.5 1-1.1 2.2-2.8 1.1-1.6 2-3.1 0.8-1.4 1.5-3.2l4.2-10.3-8 6.3q-2.4 1.7-4.6 4.2l-2 2.2-2 2.4q-0.6 0.8-1.3 1.9-0.8 1.1-1.1 1.8l-2.1 3.8-1.1 3.1q-0.3 1.2-0.3 2.1l0.1 0.5z"/>
					</g>
					<g id="&lt;Group&gt;">
						<path id="&lt;Compound Path&gt;" class="s0" d="m222.4 412.5l-1.9 5.7-0.5 1.1-0.4 1.3-1.6 4.9-1.7 5.6-1.8 6.1-1.4 5.2-0.3 1.3-0.4 1.1-1.1 4.6-1.2 5-2.8-0.7 1.1-4.7 1-4.3 0.4-1.5 0.4-1.6 1.5-5.3 1.8-6 1.6-5.5 1.6-4.8 0.4-1.5 0.6-1.5 2-5.6 2.4-6.4 2.7 1z"/>
						<path id="&lt;Compound Path&gt;" fill-rule="evenodd" class="s0" d="m210.4 454.9l-3.6-0.9 1.2-5.1 1.4-5.8 0.4-1.6 1.5-5.3 3.4-11.5 2-6.3 0.6-1.5 2-5.6 2.6-6.8 3.5 1.3-2.6 6.8-1.9 5.7-0.9 2.4-3.3 10.6-1.8 6-1.7 6.5-0.3 1.2zm-2.7-1.6l2 0.5 2.3-9.1 0.4-1.2 0.2-1.2 1.4-5.3 1.8-6 3.3-10.6 0.9-2.4 1.9-5.7 2.3-6-1.9-0.8-2.3 6-2.5 7.2-0.4 1.4-1.6 4.8-3.5 11.5-2.3 8.3-0.9 4.4z"/>
					</g>
					<g id="&lt;Group&gt;">
						<path id="&lt;Compound Path&gt;" class="s0" d="m232.2 420.3l2.8 0.9-11.1 32.1-2.7-1zm6-7.6l-2.8-1 2.7-7.2 2.8 1.1z"/>
						<path id="&lt;Compound Path&gt;" fill-rule="evenodd" class="s0" d="m224.2 453.8l-3.6-1.2 11.3-32.8 3.6 1.1zm-2.4-1.8l1.9 0.7 10.8-31.3-2-0.6zm16.7-38.7l-3.6-1.3 3-8 3.6 1.4zm-2.5-1.8l2 0.7 2.4-6.3-2-0.8z"/>
					</g>
					<g id="&lt;Group&gt;">
						<path id="&lt;Compound Path&gt;" class="s0" d="m246.6 414l1-1.9 2.4-4.9 2.8-5.4 2.6 1.4-2.9 5.4-2.3 4.8-0.5 1-0.5 1 16.2-3.5 0.6 2.8-18.1 4.1-1.6 4-1.6 4.6-1.9 5.9-1.5 5.3-0.7 2.8-0.6 2.9-0.2 0.8-0.2 0.9 0.2-0.3 0.3-0.3 1.4-1.4 1.5-1.5 2-1.7 2.1-1.9 2.5-2 2.4-1.8 1.5-1.2 1.7-1.1 1.6-1 1.8-1.2 1.6 2.6-2.1 1.2-1.8 1.1-1.2 0.9-1.3 0.9-2.3 1.7-2.6 2.1-2.4 2.2-2.1 2-1 1-0.9 1-1.9 2.2-2.3 2.5-2.6-1.1 0.4-2.1 0.4-2 0.4-2.7 0.5-2q0.3-2 0.5-2.4 0.1-0.4 0.6-2.1l0.6-2.5q0.4-1.6 0.9-2.8l1.9-5.8 1.2-3.7 1.2-3.3-6.1 1.3-0.6-2.9 8.1-1.7z"/>
						<path id="&lt;Compound Path&gt;" fill-rule="evenodd" class="s0" d="m238.5 452.5l-3.2-1.3 1.2-7.2 0.5-2q0.3-2 0.4-2.4 0.1-0.4 0.7-2.2l0.6-2.4q0.3-1.6 0.9-2.9l3.1-9.4 1-2.6-5.9 1.2-0.7-3.7 8.3-1.8 0.8-1.9 6.4-12.7 3.4 1.9-3.1 5.7-2.3 4.8-0.7 1.2 15.8-3.4 0.8 3.6-18.3 4.1-1.5 3.8-1.6 4.7-1.9 5.9-2.2 8-0.6 3 2.3-2.3 2-1.7 2.2-1.9 2.4-2 3.9-3 1.7-1.2 3.9-2.4 2 3.4-4.2 2.5-2.5 1.7-2.4 1.8-2.5 2-4.5 4.2-1 1-0.9 1-1.9 2.2zm-2.3-1.9l2.1 0.9 2-2.3 1.9-2.3 2-2 4.5-4.2 2.5-2.1 4.9-3.5 3.5-2.1-1.1-1.8-3.1 1.9-1.7 1.1-3.8 3-2.5 2-2.1 1.9-2 1.6-1.4 1.5-1.9 2-1.2 1.4 0.8-3.5 0.6-2.8 0.7-2.8 1.5-5.3 1.9-5.9 1.6-4.7 1.7-4.3 17.9-4-0.4-2-16.6 3.7 0.8-1.8 2.9-5.8 2.7-5-1.9-1.1-2.6 5.1-3.4 6.8-1 2.3-7.9 1.7 0.4 2.1 6.5-1.4-1.5 4-3.1 9.5q-0.5 1.2-0.8 2.8l-0.7 2.4q-0.5 1.8-0.6 2.1-0.1 0.4-0.5 2.4l-0.4 2-0.5 2.7z"/>
					</g>
					<g id="&lt;Group&gt;">
						<path id="&lt;Compound Path&gt;" class="s0" d="m268.3 444.8l0.5-0.4 0.4-0.4 1.2-1 1.2-1.1 2.6-2.4 2.6-2.8 3.5-3.8 3.1-3.6 2.2-3 2.2-3.2 2.2-3.5 2.4-4.2 2.6 1.3-22.1 56.2-2.7-1.1 16.7-42.2-0.8 0.9-0.7 0.9-3 3.5-3.5 3.8-2.7 2.8-2.5 2.5-1.3 1.2-1.3 1.2-2.3 1.8-2.5 2-2.3-2.7 10.3-31.4 2.8 0.9z"/>
						<path id="&lt;Compound Path&gt;" fill-rule="evenodd" class="s0" d="m273.1 473.5l-3.5-1.4 15.9-40.2-2.8 3.3-3.4 3.8-5.3 5.3-2.6 2.4-5.2 4.1-2.7-3.3 10.6-32 3.5 1.3-8.4 26.7 1-0.8 3.7-3.5 6.1-6.6 3-3.5 2.3-3 2.2-3.2 2.1-3.5 2.6-4.6 3.3 1.7zm-2.4-1.9l1.9 0.8 21.9-55.5-2-0.9-2.1 3.8-2.2 3.6-2.2 3.2-2.3 3-3 3.6-6.2 6.7-3.8 3.5-2.1 1.8-1.1 0.8 9.1-28.7-2-0.7-10.1 30.8 1.8 2.2 4.5-3.5 2.6-2.4 5.2-5.2 3.4-3.8 3.1-3.6 0.6-0.9 2.4-2.7z"/>
					</g>
					<g id="&lt;Group&gt;">
						<path id="&lt;Compound Path&gt;" fill-rule="evenodd" class="s0" d="m333.7 439.3q-1.8 1.6-6.5 4.1l-0.9 0.4-0.9 0.5-1.1 0.4-1.5 0.5-2.3 0.5q-4.4 0.4-6.5-2.5-2.2-2.8-2.5-6.6l-0.1-1.1q-0.1-0.7 0-1v-1.1l0.2-1.5 0.6-2.5q1.5-4.8 3.8-7.9 2.4-3 5-5.4l0.6-0.5 0.7-0.6 0.2-0.1 0.2-0.2v-0.3l-0.2-0.5-2-3.5q-0.8-1.8-0.9-3.7-0.2-1.7 0-2.8 0.2-1.1 1-2.7l0.5-0.9 0.5-1q0.8-1.7 2.2-3 1.3-1.4 3.5-1.6l0.7-0.1q0.6 0 0.8 0.1 2.3 0.2 3.9 1.9l1.2 1.7q0.5 1 0.6 2.3 0.1 1 0.2 1.5 0 0.6-0.3 1.4-1 3.9-2.9 6.3-1.8 2.6-4.2 4.7l-0.1 0.3-0.3 0.2 0.9 1.2 1.4 2.1 3.4 4.5 3.2 4.6 1.5 2.1 0.2-0.3 0.1-0.3 6.4-10.5 2.6 1.5-6.4 10.6-0.5 0.8-0.4 0.7 1.8 2.6 4.1 5.7 4 5.4 1.8 2.6-2.3 1.8-1.7-2.5-3.8-5.3-3.8-5.2-1.7-2.5q-1.8 2.7-4 4.7zm-9.9-21.6q-1.6 1.4-2.7 2.5-1 1.1-2.5 2.7-1.1 1.3-2 3-0.8 1.7-1.6 4.3l-0.5 3.2v3q0.3 2.9 1.7 4.6 1.5 1.8 4.4 1.6 1.3-0.1 1.7-0.2l1.9-0.7 3-1.4 2.3-1.4q1.3-0.9 2.8-2.3l2.2-2.4 0.5-1 0.7-1-11-15.1zm5.4-9.7q0.7-1 1.2-2.3 0.5-1.2 1-2.9l0.1-1.3v-1.1q-0.1-1.1-1.1-1.8-0.2-0.2-0.8-0.5-1.2-0.6-1.4-0.6h-0.5q-1.2 0.1-2.5 1.5-1.1 1.5-1.9 3.4-0.2 0.3-0.3 0.7-0.2 0.3-0.5 1.4v2q0.1 1 0.6 2.6l0.6 1.2 0.8 1.4 0.5 0.7 0.2 0.2 0.6-0.6q1.6-1.5 3.4-4z"/>
						<path id="&lt;Compound Path&gt;" fill-rule="evenodd" class="s0" d="m348.6 450.8l-1.9-2.9-7.6-10.6-1.4-1.9q-1.7 2.3-3.7 4.3c-1.3 1-3.4 2.4-6.6 4l-1.8 1-1.1 0.4-1.6 0.5-2.3 0.5q-4.7 0.4-7-2.6c-1.5-2-2.3-4.3-2.6-6.9l-0.1-1q0-0.8 0.1-1.1v-1.1l0.2-1.5 0.6-2.6q1.5-4.9 3.9-8.1c1.6-2 3.3-3.8 5-5.4l1.6-1.3-0.2-0.4-2-3.5q-0.8-1.9-1-3.9-0.1-1.7 0.1-2.8 0.2-1.2 1-2.9l1-1.9q0.8-1.7 2.2-3.1 1.5-1.5 3.8-1.7l0.7-0.1q0.7-0.1 1 0.1 2.4 0.2 4.1 2l1.2 1.8q0.6 1.1 0.7 2.5l0.2 1.4q0 0.8-0.4 1.7c-0.6 2.6-1.6 4.8-2.9 6.4q-1.8 2.5-4.2 4.8l-0.1 0.2 0.6 0.8 1.5 2.2 3.3 4.5 3.2 4.6 1.2 1.5 6.6-10.9 3.2 1.9-7.3 12.3 1.7 2.3 4.1 5.8 4 5.3 2 3zm-10.9-16.9l2.1 2.9 3.8 5.2 3.8 5.4 1.4 2.1 1.7-1.3-1.6-2.3-4-5.3-6.2-8.6 1.1-1.8 6.2-10.2-1.8-1-6.8 11.2-2-2.5-3.2-4.6-3.3-4.6-1.5-2.1-1.1-1.5 0.7-0.6q2.4-2.2 4.1-4.7 1.9-2.4 2.8-6.2 0.4-0.8 0.3-1.3l-0.1-1.5q-0.1-1.1-0.6-2.1l-1.2-1.7c-0.9-1-2.1-1.6-3.5-1.7h-0.2c0-0.1-0.1-0.1-0.6-0.1l-0.7 0.1q-2 0.2-3.3 1.5-1.3 1.3-2.1 2.9l-0.9 1.9q-0.7 1.5-1 2.6-0.2 1.1 0 2.7 0.2 1.8 0.9 3.5l2.2 4.2 0.1 0.5-1.9 1.6c-1.7 1.5-3.4 3.3-4.9 5.3-1.6 1.9-2.8 4.6-3.8 7.8l-0.6 2.4-0.2 1.5v1.2c0 0-0.1 0.2 0 0.8l0.1 1c0.2 2.5 1 4.6 2.4 6.4 1.3 1.8 3.4 2.6 6.2 2.3l2.2-0.4 1.5-0.5 1-0.4 1.8-0.9c3.1-1.6 5.2-3 6.4-4q2.2-2 4-4.6zm-17.8 9.1q-2.6 0-4-1.7-1.6-1.9-1.9-4.9v-3l0.5-3.3q0.9-2.7 1.7-4.4 0.8-1.7 2-3.1 1.5-1.6 2.6-2.7 1.1-1.1 2.6-2.5h0.1l1.2-0.9 11.5 15.7-0.9 1.2-0.5 1-2.2 2.5q-1.6 1.5-2.9 2.3l-2.3 1.4-3 1.5-2.1 0.8-1.7 0.1q-0.4 0-0.7 0zm4.1-25q-1.5 1.4-2.6 2.5-1.1 1.1-2.5 2.7-1.1 1.3-1.9 2.9-0.8 1.6-1.6 4.2l-0.6 3.2 0.1 2.9c0.2 1.8 0.7 3.3 1.6 4.4 0.9 1.1 2.2 1.5 4 1.3l1.7-0.1 1.8-0.7 2.9-1.4 2.3-1.4q1.3-0.8 2.8-2.2l2.1-2.4 0.5-0.9 0.5-0.8-10.6-14.5zm1.2-4.7l-0.6-0.7-0.4-0.7-0.9-1.5-0.6-1.2q-0.6-1.7-0.6-2.7v-2c0.2-0.9 0.3-1.4 0.5-1.7q0.1-0.3 0.2-0.6 0.9-1.9 2-3.5 1.5-1.5 2.8-1.6l0.6-0.1h0.1c0.1 0.1 0.4 0.2 1.4 0.6q0.7 0.4 1 0.6 1 0.9 1.2 2.2l0.1 1-0.2 1.4q-0.5 1.8-1 3.1-0.5 1.3-1.2 2.3-1.9 2.6-3.6 4zm3-15.3h-0.5q-1 0.1-2.2 1.4c-0.7 0.9-1.3 2-1.8 3.2q-0.1 0.3-0.3 0.7c-0.1 0.2-0.2 0.5-0.4 1.4v1.8c0 0.6 0.2 1.5 0.5 2.5l0.6 1.1 1.1 1.9 0.3-0.3q1.6-1.4 3.4-3.9 0.7-1 1.1-2.2 0.5-1.2 1-2.9l0.1-1.2-0.1-1q0-0.9-0.8-1.6c-0.1 0-0.3-0.2-0.8-0.4-0.8-0.4-1.1-0.5-1.2-0.5z"/>
					</g>
					<g id="&lt;Group&gt;">
						<path id="&lt;Compound Path&gt;" class="s0" d="m410.2 399.3l1.2-0.6 2-1.3 0.3-0.2 0.3-0.1 1.5-1 1-0.8q0.8-0.7 1.2-1.3 0.3-0.6 0.3-1.1-0.1-1-2-1.5-1.9-0.4-4.8-0.2l-3.6 0.6-4.6 1.1q-2.1 0.6-4.9 1.5-2.7 1-5.9 2.3l-1.2 0.6-1.3 0.7q-1.5 0.9-3.1 2.4-1.5 1.4-2.4 3l-0.8 1.4-0.1 1.4 0.1 0.8 0.6 0.7 0.9 0.7 1.3 0.4 1.8 0.3 0.8-0.1 14 1.6 2.3 0.3 2.6 0.5q3.5 0.7 5.5 2.1 2.6 1.3 2.8 4.2 0.5 5.4-3.9 9.3-4.4 3.8-9.9 6.9l-0.4 0.3-0.3 0.2q-0.9 0.5-2.4 1.1-1.6 0.5-3.5 1.1l-3.5 0.9-3.3 0.5h-0.7l-0.7 0.1q-6.9 0.6-12.8-0.7-5.9-1.4-6.2-4.6-0.2-1.6 2-4.1 2.2-2.4 8-5.4l1.7-0.8 1.7-0.7 2.6-0.9 3.2-0.8 2.6-0.5 4.5-0.7 0.4 3-4.5 0.5-2.1 0.5q-2 0.4-4.5 1.3l-1 0.3q-0.5 0.1-1 0.5-1.2 0.3-1.7 0.8-3.9 2.1-5.7 3.7-1.5 1.5-1.5 2.7 0.1 1.7 4.3 2.4 4.7 0.5 9.1 0.1l0.9-0.1 1-0.1q2.3-0.2 3.3-0.4 1.1-0.1 2.8-0.6 1.6-0.5 3-1 1.4-0.5 2.3-1l1-0.5 1-0.7q4-2.2 7.5-5.5 3.5-3.2 3.2-6.1-0.1-1.4-1.7-2.4l-1.5-0.8-2-0.8-3.3-0.9-1.5-0.3-13.9-1.6-1.1-0.1-1.3-0.1-2.7-0.6q-1.1-0.3-2-1.2-0.9-0.5-1.3-1.4l-0.6-1.8-0.1-0.4q-0.1-1.3 0.5-2.5 0.6-1.2 1.8-2.5 1.3-1.3 2.5-2.4 1.3-1.1 3.1-2.4l1.6-1.1 1.7-1 2.3-1.3 2.5-1q3.6-1.5 7.6-2.6 1.8-0.4 3.9-0.8 2.1-0.4 3.7-0.6 4.8-0.4 7.9 0.6 3.2 0.8 3.4 3 0.1 1.1-0.7 2.5-0.4 0.8-1 1.4-0.6 0.7-1.6 1.7l-1.3 0.9-1.4 1.1-0.5 0.3-0.6 0.4-1.8 1.2-1.6 0.7-9.5 5-1.3-2.6z"/>
						<path id="&lt;Compound Path&gt;" fill-rule="evenodd" class="s0" d="m383.1 438.7q-4.6 0-8.6-0.9c-4.1-0.9-6.3-2.6-6.5-4.9-0.1-1.3 0.6-2.7 2.1-4.4 1.5-1.7 4.2-3.6 8.1-5.6l1.7-0.8 1.7-0.7 2.7-0.9 3.1-0.9 2.8-0.4 4.9-0.8 0.4 3.9-4.8 0.6-2.1 0.4q-2 0.4-4.5 1.3l-1 0.3c-0.3 0.1-0.6 0.2-0.8 0.4l-0.2 0.1q-1 0.3-1.5 0.7l-0.1 0.1q-3.8 2.1-5.6 3.7-1.3 1.3-1.4 2.3c0.1 0.9 1.5 1.6 3.9 2 3.1 0.3 6.2 0.3 9.1 0.1l1.8-0.2q2.4-0.2 3.4-0.4 1-0.2 2.7-0.6 1.6-0.5 3-1 1.3-0.5 2.2-1l1-0.5 1-0.6c2.6-1.5 5.1-3.3 7.4-5.5q3.3-3.1 3.1-5.8-0.1-1.2-1.6-2l-1.4-0.9-1.9-0.7-3.3-0.9-1.5-0.3-16.3-1.8-2.7-0.6q-1.2-0.3-2.2-1.2c-0.6-0.4-1.1-0.9-1.4-1.6l-0.6-1.9-0.1-0.5q-0.1-1.3 0.5-2.6 0.6-1.3 1.9-2.7 1.3-1.3 2.6-2.4 1.2-1.1 3-2.5l1.7-1.1 1.6-1 2.4-1.2 2.5-1.1c2.5-1 5.1-1.9 7.7-2.6q1.8-0.4 3.9-0.9 2.1-0.4 3.8-0.5 4.8-0.5 8.1 0.6c2.2 0.6 3.5 1.7 3.6 3.4q0.1 1.2-0.7 2.7-0.5 0.8-1.1 1.5-0.6 0.7-1.6 1.7l-1.3 1-1.5 1.1-1.1 0.6-1.8 1.2-1.7 0.8-9.8 5.1-1.7-3.3 11.1-5.8 4-2.6 1.1-0.7q0.7-0.7 1-1.2 0.3-0.5 0.3-0.9c-0.1-0.5-1-0.9-1.7-1q-1.8-0.5-4.7-0.3l-3.5 0.6-4.6 1.1c-1.4 0.4-3 0.9-4.9 1.5q-2.7 1-5.8 2.3l-1.2 0.6-1.2 0.7q-1.5 0.9-3.1 2.3-1.5 1.4-2.4 2.9l-0.6 1.3-0.2 1.4 0.1 0.6 0.5 0.6 0.8 0.5 1.2 0.4 1.7 0.2h0.8l14.1 1.5 2.3 0.4 2.6 0.5q3.6 0.7 5.7 2.1 2.7 1.5 3 4.5c0.3 3.8-1 7.1-4.1 9.7-2.9 2.5-6.3 4.9-10 7l-0.7 0.4q-0.9 0.5-2.5 1.2-1.5 0.5-3.5 1.2l-3.5 0.8-4.8 0.6q-2.2 0.2-4.3 0.2zm11.2-19.3l-6.7 1.1-3.1 0.8-2.6 0.9-1.6 0.7-1.7 0.8c-3.8 1.9-6.4 3.8-7.8 5.3q-2.1 2.3-2 3.8c0.2 1.9 2.2 3.3 5.9 4.2 3.8 0.8 8.1 1.1 12.6 0.7l1.5-0.2 3.2-0.5 3.5-0.8q1.9-0.6 3.4-1.1 1.5-0.6 2.4-1.1l0.7-0.4c3.7-2.1 7-4.4 9.9-7 2.8-2.4 4-5.4 3.7-8.9-0.1-1.7-1-3-2.6-3.9q-2-1.3-5.4-2l-2.6-0.5-2.3-0.3-13.9-1.5h-0.8l-1.9-0.3-1.5-0.4-0.9-0.7-0.7-0.9-0.1-0.9 0.2-1.7 0.7-1.4q0.9-1.7 2.6-3.1 1.6-1.5 3.1-2.4l1.3-0.8 1.2-0.6q3.2-1.3 6-2.3 2.7-0.9 4.9-1.5l4.6-1.2 3.6-0.5q3-0.3 5 0.2 2.2 0.6 2.3 1.8 0.1 0.7-0.4 1.4-0.4 0.7-1.2 1.4l-1.1 0.8-4.1 2.6-1.2 0.7-9.2 4.8 1 1.8 9.1-4.8 1.6-0.7 2.9-1.9 1.4-1 1.2-0.9c0.6-0.7 1.2-1.2 1.6-1.7q0.5-0.6 0.9-1.3 0.7-1.3 0.7-2.2c-0.1-1.3-1.1-2.2-3.1-2.7q-3.1-1-7.8-0.5-1.5 0.1-3.6 0.5-2.1 0.4-3.9 0.8c-2.6 0.7-5.1 1.6-7.5 2.6l-2.5 1-2.3 1.3-1.7 1-1.6 1c-1.1 0.9-2.2 1.7-3 2.4q-1.2 1.1-2.5 2.4-1.2 1.3-1.7 2.4-0.5 1.1-0.4 2.3v0.4l0.6 1.7c0.2 0.4 0.6 0.9 1.1 1.2q0.9 0.8 1.9 1.1l2.7 0.6 2.4 0.2 13.8 1.5 1.6 0.4 3.3 0.9 2 0.8 1.6 0.8q1.8 1.1 1.9 2.7 0.3 3.1-3.3 6.6c-2.3 2.1-4.9 4-7.6 5.5l-1 0.7-0.9 0.5q-1 0.5-2.4 1-1.4 0.5-3.1 1-1.7 0.5-2.8 0.7-1 0.1-3.4 0.3l-1.8 0.2c-3 0.3-6.1 0.3-9.3-0.1-3-0.5-4.5-1.4-4.6-2.8 0-0.9 0.5-1.9 1.6-3q1.8-1.6 5.7-3.7 0.6-0.6 1.8-0.9 0.6-0.5 1.2-0.5l0.8-0.3c1.7-0.6 3.2-1.1 4.6-1.3l2.1-0.5 4.1-0.5z"/>
					</g>
					<g id="&lt;Group&gt;">
						<path id="&lt;Compound Path&gt;" class="s0" d="m434.1 397l1-2 2.4-4.9 2.8-5.4 2.6 1.4-2.8 5.4-2.4 4.8-0.5 1-0.5 1 16.2-3.5 0.6 2.8-18.1 4.1-1.6 4-1.6 4.6-1.9 5.9-1.5 5.3-0.7 2.8-0.6 2.9-0.2 0.8-0.2 0.9 0.2-0.2 0.3-0.3 1.4-1.5 1.5-1.5 2-1.7 2.2-1.9 2.4-2 2.4-1.8 1.5-1.2 1.7-1.1 1.6-1 1.8-1.2 1.6 2.6-2.1 1.2-1.8 1.1-1.2 0.9-1.2 0.9-2.4 1.7-2.5 2.1-2.5 2.2-2 2-1.1 1-0.9 1-1.9 2.2-2.2 2.5-2.7-1.1 0.4-2.1 0.4-2 0.4-2.7 0.5-2q0.4-2 0.5-2.4 0.1-0.4 0.6-2.1l0.6-2.5q0.4-1.6 0.9-2.8l1.9-5.8 1.2-3.7 1.2-3.3-6.1 1.3-0.6-2.9 8.1-1.7z"/>
						<path id="&lt;Compound Path&gt;" fill-rule="evenodd" class="s0" d="m426 435.4l-3.2-1.3 1.2-7.2 0.5-2q0.3-2 0.5-2.4 0.1-0.4 0.6-2.2l0.6-2.4q0.4-1.6 0.9-2.8l3.1-9.5 1-2.6-5.9 1.2-0.7-3.7 8.3-1.8 0.8-1.9 6.4-12.7 3.4 1.9-3.1 5.7-2.3 4.8-0.7 1.2 15.9-3.4 0.7 3.7-18.3 4-1.5 3.8-1.6 4.7-1.9 5.9-2.2 8-0.6 3 2.3-2.3 2.1-1.7 2.1-1.9 2.5-2 3.8-3 1.7-1.2 3.9-2.4 2 3.4-4.2 2.5-2.5 1.7-2.3 1.8-2.6 2-4.5 4.2-1 1-0.9 1-1.9 2.2zm-2.2-1.9l2 0.9 2-2.3 1.9-2.3 1-0.9 1-1.1 4.5-4.2 2.6-2 4.8-3.6 3.5-2.1-1.1-1.8-3.1 1.9-1.7 1.1-3.8 3-2.4 2-2.2 1.9-2 1.6-1.4 1.5-1.9 2-1.2 1.4 0.8-3.5 0.6-2.8 0.8-2.8 1.4-5.3 2-5.9 1.6-4.7 1.6-4.3 18-3.9-0.5-2.1-16.6 3.7 0.8-1.8 0.6-1 2.3-4.8 2.7-5-1.9-1.1-2.6 5.1-3.4 6.8-1 2.3-7.8 1.7 0.3 2.1 6.5-1.4-1.5 4-3.1 9.5q-0.5 1.2-0.8 2.8l-0.6 2.4q-0.6 1.8-0.7 2.1-0.1 0.4-0.5 2.4l-0.4 2-0.5 2.7z"/>
					</g>
					<g id="&lt;Group&gt;">
						<path id="&lt;Compound Path&gt;" class="s0" d="m455.8 427.7l0.5-0.4 0.4-0.3 1.2-1.1 1.3-1.1 2.5-2.3 2.6-2.9 3.5-3.8 3.1-3.5 2.2-3 2.2-3.3 2.2-3.5 2.4-4.2 2.6 1.3-22.1 56.2-2.7-1.1 16.7-42.2-0.8 0.9-0.7 0.9-3 3.5-3.5 3.8-2.7 2.8-2.5 2.5-1.3 1.2-1.3 1.2-2.3 1.8-2.5 2-2.3-2.7 10.3-31.4 2.8 0.9z"/>
						<path id="&lt;Compound Path&gt;" fill-rule="evenodd" class="s0" d="m460.6 456.4l-3.5-1.4 15.9-40.2-2.8 3.3-3.4 3.8-5.3 5.3-2.6 2.4-5.2 4.1-2.7-3.2 10.6-32.1 3.5 1.3-8.4 26.7 1-0.8 3.7-3.5 6.1-6.6 3-3.5 2.3-3 2.2-3.2 2.2-3.5 2.5-4.6 3.3 1.7zm-2.4-1.9l2 0.8 21.8-55.5-1.9-0.9-2.2 3.8-2.2 3.6-2.2 3.2-2.3 3-3 3.6-6.2 6.7-3.7 3.5-2.2 1.8-1.1 0.8 9.1-28.7-2-0.7-10.1 30.8 1.8 2.2 4.5-3.5 2.6-2.4 5.3-5.2 3.4-3.8 3-3.6 0.6-0.9 2.5-2.7z"/>
					</g>
					<g id="&lt;Group&gt;">
						<path id="&lt;Compound Path&gt;" class="s0" d="m497.2 387.4l-1.9 5.7-0.5 1.2-0.4 1.2-1.6 5-1.7 5.6-1.8 6-1.4 5.2-0.3 1.3-0.4 1.2-1.1 4.6-1.2 4.9-2.8-0.7 1.1-4.6 1-4.4 0.4-1.5 0.4-1.6 1.5-5.3 1.8-5.9 1.6-5.5 1.6-4.9 0.4-1.4 0.6-1.5 2-5.6 2.4-6.4 2.7 1z"/>
						<path id="&lt;Compound Path&gt;" fill-rule="evenodd" class="s0" d="m485.2 429.9l-3.6-1 1.2-5 1.4-5.9 0.4-1.6 1.5-5.3 3.4-11.5 2-6.2 0.6-1.6 2-5.6 2.6-6.8 3.4 1.3-2.5 6.9-1.9 5.7-0.9 2.4-3.3 10.5-1.8 6-1.7 6.5-0.4 1.2zm-2.6-1.5l2 0.5 2.3-9.2 0.3-1.1 0.3-1.3 1.4-5.2 1.8-6.1 3.3-10.5 0.9-2.5 1.9-5.6 2.3-6.1-1.9-0.7-2.3 6-2.5 7.1-0.4 1.4-1.6 4.9-3.5 11.4-2.3 8.4-0.9 4.3z"/>
					</g>
					<g id="&lt;Group&gt;">
						<path id="&lt;Compound Path&gt;" class="s0" d="m497.7 413.4l0.4-0.3q4.5-1.9 8.3-4.6 3.8-2.7 3.3-7.8-0.1-0.8-0.5-1.1-0.3-0.4-0.9-0.3-1.1 0.1-2.9 1.7-1.7 1.6-3.7 4.3l-1.4 1.9-1.3 2.2-2.3 4.3-0.5 1.5-0.6 1.4-0.1 0.3-0.4 1.6-0.2 1.7-0.3 1.5 0.2 1.3q0.1 1.3 0.6 2.1 0.5 0.9 2 1.3h0.4l0.4-0.1h0.7l0.7-0.3q1.2-0.6 2.1-1.6l2-2.1 1.7-2.6 0.8-1.2 2.5 0.7-0.7 1.5q-0.4 0.7-0.9 1.6-0.6 1-1.2 1.7-1.2 1.6-3.2 3.3-1.8 1.6-4.4 1.8h-0.3-0.3l-0.6 0.1h-0.3q-2.6-0.2-3.9-1.9-1.3-1.7-1.4-3.8l-0.2-1.8q-0.1-0.5 0-0.8 0-0.3 0.3-1.4 0.4-1.8 1.2-4.1l0.4-1 0.4-1q0.9-2.2 1.5-3.4 0.7-1.2 1.9-3 0.9-1.5 2-3 0.8-1.2 1.9-2.5 1.1-1.4 2-2.3 1-0.9 2.3-1.9 2.2-1.6 3.8-1.8 1.4-0.1 2.3 0.8 0.9 0.9 1.5 3.5l0.1 0.3v0.4q0.5 5.5-3.1 8.6-3.2 2.8-7.9 5.4l-1.8 0.8-1.8 0.9-1.2-2.6z"/>
						<path id="&lt;Compound Path&gt;" fill-rule="evenodd" class="s0" d="m496.8 429.7q-2.8-0.3-4.2-2.1-1.4-1.8-1.6-4l-0.1-1.9q-0.1-0.5 0-0.9c0-0.1 0-0.4 0.3-1.4 0.2-1.2 0.6-2.6 1.2-4.1l0.8-2.1q0.9-2.2 1.6-3.4 0.6-1.2 1.8-3.1 1-1.4 2-2.9 0.9-1.3 2-2.6 1-1.3 2-2.3 1-1 2.3-1.9 2.3-1.8 4.1-1.9 1.6-0.2 2.6 0.9c0.7 0.7 1.2 1.9 1.6 3.7l0.1 0.8c0.4 3.8-0.7 6.8-3.2 8.9-2.1 1.9-4.9 3.7-8 5.4l-4.1 2-1-2.5-1.1 2.7-0.4 1.6-0.4 3.1 0.1 1.3q0.1 1.2 0.6 1.9 0.4 0.7 1.6 1.1l1.4-0.2 0.6-0.2q1.1-0.5 2-1.5l2-2.1 1.7-2.6 0.9-1.4 3.4 0.9-1.1 2q-0.3 0.7-0.9 1.6-0.5 1-1.2 1.8-1.2 1.6-3.3 3.3c-1.2 1.1-2.7 1.8-4.6 1.9zm12.6-33.7q-0.2 0-0.3 0-1.6 0.1-3.6 1.7-1.3 1-2.3 1.9-0.9 0.9-1.9 2.2-1.1 1.3-2 2.5-1 1.5-1.9 3-1.2 1.8-1.9 2.9-0.6 1.3-1.5 3.4l-0.8 2q-0.8 2.3-1.1 4c-0.3 1-0.4 1.3-0.4 1.4q0 0.3 0 0.7l0.2 1.9q0.2 1.9 1.4 3.5c0.8 1 2 1.6 3.5 1.8l1.5-0.2q2.4-0.2 4.1-1.7 2-1.6 3.2-3.2 0.6-0.7 1.1-1.6 0.6-0.9 0.9-1.6l0.5-1.1-1.7-0.5-0.6 1-1.7 2.5-2 2.3q-1 1.1-2.3 1.6l-0.8 0.3-1.7 0.2q-1.6-0.5-2.2-1.5-0.6-0.9-0.7-2.3l-0.2-1.3 0.5-3.3 0.6-2 1-2.9 2.3-4.3 1.4-2.3 1.4-1.9q2-2.7 3.8-4.3c1.2-1.2 2.2-1.8 3.1-1.9q0.7-0.1 1.3 0.4 0.5 0.5 0.5 1.4c0.4 3.6-0.8 6.3-3.5 8.2-2.5 1.8-5.3 3.4-8.3 4.6l-0.6 0.4 0.8 1.8 3.2-1.6c3.1-1.6 5.8-3.4 7.9-5.2 2.2-2 3.2-4.8 2.9-8.3l-0.1-0.7c-0.4-1.5-0.9-2.7-1.4-3.2q-0.7-0.7-1.6-0.7zm-0.9 3.8q-0.1 0-0.1 0c-0.5 0-1.3 0.3-2.6 1.6q-1.8 1.6-3.7 4.2l-1.4 1.9-1.3 2.2-1.7 3.2 0.2-0.1q4.5-1.9 8.2-4.6c2.5-1.7 3.5-4.1 3.2-7.4q-0.1-0.6-0.3-0.9-0.2-0.1-0.5-0.1z"/>
					</g>
				</g>
			</g>
		</g>
	</g>
</svg>